<svg xmlns="http://www.w3.org/2000/svg" version="1.1" xmlns:xlink="http://www.w3.org/1999/xlink" xmlns:svgjs="http://svgjs.com/svgjs" width="158.958" height="158.956"><svg xmlns="http://www.w3.org/2000/svg" viewBox="0 0 158.958 158.956">
  <g id="SvgjsG1002" data-name="Layer 1"></g>
  <g id="SvgjsG1001" data-name="Layer 2">
    <g id="SvgjsG1000" data-name="Layer 1">
      <g>
        <path d="M93.752,13.483l-14.275,14.276-29.935,29.929,12.27,12.275,29.938-29.935,14.899-14.899c4.761-4.758,9.645-7.472,14.652-8.139,4.929-.751,10.06,1.545,15.401,6.886,4.343,4.34,6.516,8.849,6.51,13.522,.087,4.595-2.459,9.476-7.637,14.652l-6.258,6.261,11.394,11.394,8.764-8.764c3.423-3.426,6.014-7.598,7.764-12.521,2.005-5.007,2.257-10.604,.751-16.78-1.503-6.342-5.386-12.645-11.646-18.908-4.337-4.34-9.35-7.679-15.025-10.015C125.641,.376,119.633-.039,113.285,1.464c-6.51,1.5-13.02,5.509-19.533,12.019Z" fill="#36b"></path>
        <path d="M69.964,97.146l-29.935-29.938-14.899-14.899c-4.758-4.761-7.472-9.645-8.139-14.652-.751-4.929,1.546-10.06,6.887-15.401,4.34-4.343,8.848-6.516,13.522-6.51,4.594-.087,9.475,2.459,14.651,7.637l6.261,6.258,11.395-11.394-8.766-8.764c-3.425-3.423-7.597-6.014-12.52-7.764C43.413-.286,37.816-.538,31.64,.967c-6.342,1.503-12.645,5.386-18.908,11.647-4.339,4.337-7.679,9.351-10.015,15.025C.377,33.317-.039,39.325,1.464,45.673c1.501,6.51,5.509,13.02,12.019,19.533l14.276,14.274,29.931,29.935,12.273-12.269Z" fill="#36b"></path>
        <path d="M65.206,145.473l14.275-14.276,29.935-29.929-12.271-12.275-29.938,29.935-14.899,14.899c-4.761,4.758-9.645,7.472-14.652,8.139-4.929,.751-10.06-1.545-15.401-6.886-4.343-4.34-6.516-8.849-6.51-13.522-.087-4.595,2.459-9.477,7.637-14.652l6.258-6.261-11.394-11.394-8.764,8.764c-3.423,3.426-6.014,7.598-7.763,12.521-2.005,5.008-2.257,10.604-.751,16.78,1.503,6.342,5.386,12.645,11.647,18.908,4.337,4.34,9.35,7.679,15.025,10.015,5.677,2.341,11.686,2.756,18.033,1.253,6.51-1.5,13.02-5.509,19.533-12.02Z" fill="#36b"></path>
        <path d="M88.994,61.811l29.935,29.938,14.899,14.899c4.758,4.761,7.472,9.645,8.139,14.652,.751,4.929-1.545,10.06-6.886,15.401-4.34,4.343-8.849,6.516-13.522,6.51-4.595,.087-9.476-2.459-14.652-7.637l-6.261-6.258-11.394,11.394,8.764,8.764c3.426,3.423,7.598,6.014,12.521,7.764,5.007,2.005,10.604,2.257,16.78,.751,6.342-1.503,12.645-5.386,18.908-11.647,4.34-4.337,7.679-9.35,10.015-15.025,2.341-5.678,2.756-11.686,1.253-18.033-1.5-6.51-5.509-13.02-12.019-19.533l-14.276-14.274-29.929-29.935-12.275,12.269Z" fill="#36b"></path>
      </g>
    </g>
  </g>
</svg><style>@media (prefers-color-scheme: light) { :root { filter: none; } }
</style></svg>