<svg xmlns="http://www.w3.org/2000/svg" xmlns:xlink="http://www.w3.org/1999/xlink" width="313.24" height="622.535" viewBox="0 0 313.24 622.535">
  <defs>
    <linearGradient id="a" x1="265.92" y1="486.36" x2="232.041" y2="447.254" gradientUnits="userSpaceOnUse">
      <stop offset="0.385" stop-color="#e6e6e6" stop-opacity="0"/>
      <stop offset="0.987" stop-color="#3a4357" stop-opacity="0.2"/>
    </linearGradient>
    <linearGradient id="b" x1="-9.358" y1="464.124" x2="85.868" y2="518.329" gradientUnits="userSpaceOnUse">
      <stop offset="0" stop-color="#fff" stop-opacity="0"/>
      <stop offset="1" stop-color="#1b1464" stop-opacity="0.1"/>
    </linearGradient>
    <linearGradient id="c" x1="73.422" y1="572.887" x2="73.422" y2="434.46" gradientUnits="userSpaceOnUse">
      <stop offset="0" stop-color="#3a4357"/>
      <stop offset="1" stop-color="#e6e6e6" stop-opacity="0"/>
    </linearGradient>
    <radialGradient id="d" cx="66.143" cy="349" fy="321.81229721965803" r="30.488" gradientTransform="matrix(0.863, -0.091, 0.055, 0.914, 93.509, 19.873)" gradientUnits="userSpaceOnUse">
      <stop offset="0.182" stop-opacity="0.4"/>
      <stop offset="0.949" stop-color="#fff" stop-opacity="0"/>
    </radialGradient>
    <linearGradient id="e" x1="-107.78" y1="97.021" x2="-22.738" y2="108.784" gradientTransform="translate(87.549 21.184) rotate(-12.721)" gradientUnits="userSpaceOnUse">
      <stop offset="0" stop-color="#e6e6e6"/>
      <stop offset="0.805" stop-color="#e6e6e6" stop-opacity="0"/>
    </linearGradient>
    <linearGradient id="f" x1="64.726" y1="99.919" x2="157.114" y2="112.698" gradientTransform="translate(87.549 21.184) rotate(-12.721)" gradientUnits="userSpaceOnUse">
      <stop offset="0.195" stop-color="#e6e6e6" stop-opacity="0"/>
      <stop offset="1" stop-color="#e6e6e6"/>
    </linearGradient>
    <linearGradient id="g" x1="32.217" y1="244.518" x2="59.525" y2="265.854" gradientTransform="translate(87.549 21.184) rotate(-12.721)" gradientUnits="userSpaceOnUse">
      <stop offset="0" stop-color="#3a4357" stop-opacity="0.5"/>
      <stop offset="0.615" stop-opacity="0"/>
    </linearGradient>
    <linearGradient id="h" x1="1462.012" y1="244.247" x2="1489.914" y2="266.047" gradientTransform="matrix(-0.975, 0.22, 0.22, 0.975, 1518.687, -301.876)" xlink:href="#g"/>
    <linearGradient id="i" x1="157.582" y1="441.844" x2="153.556" y2="390.358" gradientUnits="userSpaceOnUse">
      <stop offset="0.018" stop-color="#060055" stop-opacity="0.2"/>
      <stop offset="1" stop-color="#fff" stop-opacity="0"/>
    </linearGradient>
    <linearGradient id="j" x1="196.674" y1="438.587" x2="192.696" y2="387.714" xlink:href="#i"/>
    <linearGradient id="k" x1="106.923" y1="476.871" x2="106.923" y2="419.341" gradientUnits="userSpaceOnUse">
      <stop offset="0.385" stop-color="#e6e6e6" stop-opacity="0"/>
      <stop offset="0.772" stop-color="#3a4357" stop-opacity="0.2"/>
    </linearGradient>
    <linearGradient id="l" x1="182.178" y1="487.888" x2="177.114" y2="423.12" xlink:href="#i"/>
    <linearGradient id="m" x1="174.944" y1="357.254" x2="174.944" y2="338.534" gradientUnits="userSpaceOnUse">
      <stop offset="0" stop-color="#3a4357" stop-opacity="0"/>
      <stop offset="0.177" stop-color="#3a4357" stop-opacity="0.187"/>
      <stop offset="0.982" stop-color="#3a4357"/>
    </linearGradient>
    <linearGradient id="n" x1="217.761" y1="234.722" x2="217.761" y2="183.407" gradientUnits="userSpaceOnUse">
      <stop offset="0" stop-color="#f2f2f2"/>
      <stop offset="1" stop-color="#f2f2f2" stop-opacity="0"/>
    </linearGradient>
    <linearGradient id="o" x1="218.754" y1="351.628" x2="238.16" y2="313.006" xlink:href="#m"/>
  </defs>
  <title>JLINX Not Found-Web use</title>
  <g>
    <g>
      <path d="M218.335,367.21c34.366-5.687,18.027,50.01,21.045,71.573a231.52,231.52,0,0,0,13.281,51.222,9.069,9.069,0,0,1,.918,4.9c-.705,3.577-5.31,4.822-8.911,4.254a18.8,18.8,0,0,1-9.611-4.594c-3.094-2.8-5.156-6.53-7.085-10.228A315.6,315.6,0,0,1,202.671,419c-2.994-11.326-8.876-44.988-8.876-44.988C196.674,376.486,207.378,369.023,218.335,367.21Z" fill="#31a9ba"/>
      <path d="M233.524,441.565c.841,5.461,2.657,25.726,5.436,30.846,5.54,10.2-2.878,16.666-6.959,11.078-4.976-6.635-7.072-14.166-7.062-17.562.053-18.966-.44-32.07.11-51.029.089-3.038.089-6.2.99-9.1C231.032,415.266,231.9,431.038,233.524,441.565Z" fill="#e6e6e6"/>
      <path d="M236.881,475.546c1.462.471,4.013-15.2,3.667-19.235-.6-6.837-2-28.909-7.219-35.825v.22C233.3,429.429,221.883,483.217,236.881,475.546Z" fill="url(#a)"/>
    </g>
    <g>
      <g>
        <g>
          <path d="M137.842,514.244a14.073,14.073,0,0,1-.11,1.808c-.032.3-.079.6-.126.895s-.11.582-.173.881l-.016.015-18.578,33.181-12.26,21.863c-.141-.094-.44-.251-.44-.251a6.7,6.7,0,0,0-1.352-.786c-.031,0-.047,0-.063-.016h-.015a1.686,1.686,0,0,1-.378-.094.78.78,0,0,1-.188-.032c-.11-.015-.2-.031-.315-.047-.031-.015-.047-.015-.078-.031-.079,0-.157-.016-.236-.016-.22-.031-.44-.047-.66-.063a11.075,11.075,0,0,0-1.776.047c-.865.1-1.745.173-2.609.236-.126,0-.252.016-.378.016-.094.016-.188.016-.283.031l-.911.048c-.613.047-1.242.078-1.855.094-.188.016-.361.031-.55.031-.2,0-.409.016-.613.016-.189.016-.377.016-.566.031-2.027.048-4.071.032-6.114-.031-1.839-.063-3.678-.173-5.533-.33l-.534-.047c-1.792-.157-3.6-.377-5.391-.629-1.258-.173-2.515-.377-3.773-.6-.2-.032-.408-.063-.613-.11-.236-.032-.487-.079-.738-.126-.331-.063-.661-.126-.991-.2-2.027-.393-4.055-.833-6.051-1.352-.456-.11-.9-.236-1.352-.362-.817-.2-1.619-.44-2.42-.676l-.189-.047q-1.3-.376-2.593-.8c-.016,0-.048-.016-.063-.016-.818-.267-1.619-.534-2.405-.817-.865-.3-1.729-.613-2.578-.943a.22.22,0,0,1-.094-.032c-.613-.236-1.242-.487-1.871-.739-.518-.2-1.037-.424-1.556-.644-.5-.2-.99-.424-1.493-.644-.094-.048-.173-.079-.267-.126-.723-.33-1.446-.66-2.169-1.006-.535-.252-1.069-.519-1.588-.77a.131.131,0,0,0-.094-.047.722.722,0,0,0-.157-.079c-.44-.22-.865-.456-1.289-.676-.519-.267-1.037-.55-1.556-.833a4.159,4.159,0,0,0-.456-.251c-.471-.268-.943-.535-1.414-.818-.378-.22-.739-.44-1.116-.66-.488-.3-.959-.6-1.431-.9-.188-.11-.377-.236-.55-.346-.3-.2-.6-.393-.88-.565-.22-.158-.425-.3-.629-.425-.487-.314-.959-.644-1.43-.99-.016-.016-.032-.016-.047-.031l-.66-.472c-.456-.314-.881-.644-1.321-.959-.015-.015-.015-.015-.031-.015-.44-.331-.88-.661-1.321-1.006-.424-.346-.848-.676-1.273-1.022-.393-.315-.77-.629-1.147-.959a.4.4,0,0,0-.094-.078c-1.179-.991-2.311-2.028-3.395-3.081-.645-.629-1.273-1.258-1.9-1.9-.44-.472-.88-.927-1.3-1.4-.078-.079-.141-.157-.22-.236-.424-.487-.864-.974-1.273-1.461-.487-.566-.959-1.148-1.415-1.729-.487-.6-.943-1.211-1.4-1.839-.361-.5-.723-1.006-1.068-1.525a.881.881,0,0,1-.11-.157c-.378-.535-.723-1.085-1.069-1.635-.032-.047-.063-.11-.094-.157-.346-.55-.692-1.116-1.006-1.682-.048-.078-.1-.173-.142-.251-.079-.126-.157-.268-.22-.393-.236-.409-.456-.833-.676-1.258-.016-.031-.016-.063-.031-.078-.22-.425-.425-.849-.629-1.273q-.212-.449-.424-.9a2.269,2.269,0,0,0-.126-.283c-.189-.425-.362-.849-.534-1.273h.015a1.448,1.448,0,0,0,.236.078c.786.252,1.556.487,2.326.723,1.273.377,2.547.739,3.788,1.053.8.205,1.6.409,2.389.566a.449.449,0,0,1,.142.032c.377.094.754.172,1.116.251.015-.016.015,0,.031,0,.393.079.77.157,1.163.22.6.11,1.164.2,1.745.283.2.047.393.063.6.094.488.063.975.126,1.462.173a.342.342,0,0,1,.126.016c.236.016.471.047.691.063.362.047.723.063,1.085.094a.1.1,0,0,0,.094,0h.11a.235.235,0,0,0,.062.008c.162.009.318.007.478.014.705.031,1.4.05,2.086.039.069,0,.134-.009.2-.01a24.664,24.664,0,0,0,6.523-.963,17.249,17.249,0,0,0,2.185-.8c-8.032-2.782-16.535-5.831-21.612-11.113-5.061-5.265-5.5-11.1-4.7-17.116.094-.692.2-1.384.314-2.091.534-3.128,1.3-6.3,1.839-9.462.047-.283.078-.55.126-.817.141-.912.251-1.824.345-2.735a34.087,34.087,0,0,0,.11-3.6l.016.016c.032.047.063.063.079.11.063.079.11.141.173.22.251.377.518.739.785,1.1,4.5,6.193,8.9,12.1,18.956,11.459h.032a9.167,9.167,0,0,1-.409-1.116,4.85,4.85,0,0,1-.142-.5,19.153,19.153,0,0,1-.487-2.767.209.209,0,0,0-.015-.094,3.78,3.78,0,0,0-.032-.424,2.3,2.3,0,0,1-.031-.33c-.456-7.011,1.807-17.2,6.413-25.966C41.538,460,45.405,454.28,49,448.575c0-.016.032-.032.032-.047,3.222-5.093,6.256-10.138,7.686-14.036a.056.056,0,0,0,.016-.032c.864,1.792,1.729,3.6,2.64,5.391,3.065,6.115,6.586,12.15,11.71,17.557.314.346.645.676.99,1.006.582.6,1.195,1.179,1.824,1.745l.062.063a82.765,82.765,0,0,0,14.319,9.9c4.794,2.735,9.84,5.281,14.759,7.906.818.424,1.635.865,2.437,1.32l1.792.991c.691.377,1.367.754,2.043,1.147l.33.188c.393.221.786.441,1.163.676.6.346,1.21.708,1.792,1.069.456.252.88.519,1.32.818.629.361,1.258.754,1.871,1.163.487.3.958.613,1.43.943,1.147.754,2.279,1.54,3.364,2.342.393.267.77.55,1.131.833s.723.55,1.085.833c.377.3.723.581,1.084.88.158.126.315.252.488.393.424.361.848.723,1.257,1.084.079.063.157.142.236.205.833.739,1.65,1.509,2.42,2.279.6.6,1.179,1.226,1.745,1.855.3.33.582.66.865,1.006.282.33.565.675.833,1.021a34.734,34.734,0,0,1,3.473,5.329c.173.345.346.691.5,1.037a1.56,1.56,0,0,1,.11.236c.157.361.315.707.456,1.053.047.126.094.236.142.346.125.345.251.675.345.99.047.141.095.267.126.377.063.189.11.346.157.519a2.828,2.828,0,0,1,.11.346c.016.062.032.141.047.22.079.267.142.534.2.8.015.063.031.142.047.22l.141.755c.032.22.079.44.095.66.047.361.078.707.11,1.053Q137.842,513.631,137.842,514.244Z" fill="#31a9ba"/>
          <path d="M137.732,516.052c-.032.3-.079.6-.126.895-.063.3-.11.6-.189.9l-18.578,33.181-12.26,21.863c-.141-.094-.44-.251-.44-.251a2.734,2.734,0,0,0-1.352-.786h-.047l-.016-.016h-.015a1.686,1.686,0,0,1-.378-.094.763.763,0,0,0-.188-.032c-.126-.031-.267-.047-.393-.078-.079,0-.157-.016-.236-.016-.22-.031-.44-.047-.66-.063a11.075,11.075,0,0,0-1.776.047c-.865.1-1.745.173-2.609.236l-.661.047c-1.1.079-2.2.142-3.316.173-.2.016-.409.032-.613.032s-.377.015-.566.015c-2.027.048-4.071.032-6.114-.031-1.839-.063-3.678-.173-5.533-.33l-.534-.047c-1.792-.157-3.6-.377-5.391-.629-1.258-.173-2.515-.377-3.773-.6-.2-.032-.408-.063-.613-.11-.236-.032-.487-.079-.738-.126-1.321-.245-2.63-.52-3.934-.813q-1.562-.345-3.108-.743-.99-.235-1.981-.519c-.6-.173-1.194-.33-1.791-.5a.874.874,0,0,1-.189-.063q-1.3-.376-2.593-.8c-.016,0-.048-.016-.063-.016-.55-.173-1.1-.361-1.651-.55-.518-.173-1.021-.346-1.524-.535-.645-.22-1.273-.455-1.9-.707-.613-.236-1.242-.487-1.871-.739-.518-.2-1.037-.424-1.556-.644-.5-.2-.99-.424-1.493-.644-.094-.048-.173-.079-.267-.126-.723-.33-1.446-.66-2.169-1.006-.535-.252-1.069-.519-1.588-.77a.131.131,0,0,0-.094-.047.722.722,0,0,0-.157-.079c-.44-.22-.865-.456-1.289-.676-.519-.267-1.037-.55-1.556-.833-.487-.283-.99-.566-1.477-.849-.5-.283-.991-.581-1.478-.88-.5-.3-.974-.6-1.462-.9-.188-.11-.377-.236-.55-.346-.3-.2-.6-.393-.88-.565-.22-.158-.425-.3-.629-.425-.487-.314-.959-.644-1.43-.99-.016-.016-.032-.016-.047-.031l-.66-.472c-.456-.314-.881-.644-1.321-.959-.015-.015-.015-.015-.031-.015-.44-.331-.88-.661-1.321-1.006l-.565-.472c-.236-.173-.472-.362-.708-.55-.393-.315-.77-.629-1.147-.959a.4.4,0,0,0-.094-.078c-1.179-.991-2.311-2.028-3.395-3.081-.645-.629-1.273-1.258-1.9-1.9-.44-.472-.88-.927-1.3-1.4-.078-.079-.141-.157-.22-.236-.424-.487-.864-.974-1.273-1.461-.487-.566-.959-1.148-1.415-1.729-.487-.6-.943-1.211-1.4-1.839-.361-.5-.723-1.006-1.068-1.525a.881.881,0,0,1-.11-.157c-.378-.535-.723-1.085-1.069-1.635-.032-.047-.063-.11-.094-.157-.236-.362-.441-.723-.645-1.085-.251-.408-.487-.817-.707-1.241-.236-.409-.456-.833-.676-1.258-.016-.016-.016-.047-.047-.078-.22-.425-.425-.849-.629-1.273-.173-.393-.361-.786-.534-1.179-.189-.425-.362-.849-.535-1.273a1.448,1.448,0,0,0,.236.078,60.488,60.488,0,0,0,16.3,3.552c.126,0,.236.016.362.016a.1.1,0,0,0,.094,0,.611.611,0,0,0,.073,0c.169.01.33.007.5.014q.4.012.8.012a29.819,29.819,0,0,0,10.279-1.744c-8.032-2.782-16.535-5.831-21.612-11.113-5.061-5.265-5.5-11.1-4.7-17.116.094-.692.2-1.384.314-2.091.534-3.128,1.3-6.3,1.839-9.462.047-.267.094-.534.126-.817.141-.912.251-1.824.345-2.735a30.235,30.235,0,0,0,.126-3.584c.032.047.063.063.079.11.063.079.11.141.173.22.251.377.518.739.785,1.1a33.781,33.781,0,0,0,5.36,5.753c.189.157.378.33.582.487.047.032.078.079.126.11a.47.47,0,0,0,.157.11c.377.315.754.6,1.131.865a1.04,1.04,0,0,1,.268.188c.361.252.723.472,1.084.692.629.377,1.273.723,1.918,1.053.5.252,1.006.472,1.524.676.346.142.708.267,1.069.393a10.478,10.478,0,0,0,1.2.361,11.334,11.334,0,0,0,1.226.3c.2.063.424.094.644.142.315.062.629.11.943.141.189.031.393.063.6.079.377.047.754.078,1.131.11h.032a26.854,26.854,0,0,1-1.038-4.386.209.209,0,0,0-.015-.094,32.376,32.376,0,0,1,.408-10.562c.2-1.116.472-2.232.786-3.348a57.121,57.121,0,0,1,2.326-6.743c.676-1.7,1.446-3.38,2.28-5.061.267-.566.55-1.132.833-1.7.581-1.116,1.163-2.232,1.776-3.348v-.016c.911-1.666,1.87-3.332,2.845-4.982v-.016c.565-.974,1.147-1.933,1.728-2.892.158-.267.331-.534.488-.8.581-.959,1.163-1.9,1.744-2.845a.056.056,0,0,1,.016-.032c.99-1.619,1.981-3.206,2.955-4.778,1.949-3.175,3.82-6.256,5.47-9.226a.056.056,0,0,0,.016-.032c.864,1.792,1.729,3.6,2.64,5.391,3.065,6.115,6.586,12.15,11.71,17.557.314.346.645.676.99,1.006.582.6,1.195,1.179,1.824,1.745l.062.063a82.765,82.765,0,0,0,14.319,9.9c4.794,2.735,9.84,5.281,14.759,7.906.818.424,1.635.865,2.437,1.32l1.792.991c.691.377,1.367.754,2.043,1.147l.33.188c.393.221.786.441,1.163.676.6.346,1.21.708,1.792,1.069.456.252.88.519,1.32.818.629.361,1.258.754,1.871,1.163.487.3.958.613,1.43.943,1.147.754,2.279,1.54,3.364,2.342.393.267.77.55,1.131.833s.723.55,1.085.833.723.581,1.084.88c.158.126.315.252.488.393.424.361.848.723,1.257,1.084.079.063.157.142.236.205.833.739,1.65,1.509,2.42,2.279.6.6,1.179,1.226,1.745,1.855.3.33.582.66.865,1.006.282.33.565.675.833,1.021a34.734,34.734,0,0,1,3.473,5.329c.173.345.346.691.5,1.037a1.56,1.56,0,0,1,.11.236c.157.346.315.691.456,1.053.047.126.094.236.142.346.125.33.235.66.345.99a3.473,3.473,0,0,1,.126.377c.063.173.11.346.157.519a1.325,1.325,0,0,1,.095.33,1.265,1.265,0,0,1,.062.236c.095.33.173.675.236,1.006.094.408.157.817.22,1.226A17.057,17.057,0,0,1,137.732,516.052Z" fill="url(#b)"/>
          <path d="M91.518,566.4a9.564,9.564,0,0,1-4.319,5.674,109.014,109.014,0,0,1-42.687-10.254c-16.956-8.123-29.976-20.765-35.5-34.411C20.118,531,30.2,532.662,37.657,529.349c-8.025-2.779-16.532-5.826-21.613-11.114-10.225-10.661-1.579-23.608-1.96-35.822,5.336,7.143,11.4,12.808,20.032,12.912-2.7-6.136-.652-19.858,5.3-31.208,2.133-4.108,5.993-9.839,9.6-15.535-6.51,12.877,6.687,44.823,25.438,51.983,9.576,3.661,20.29,11.926,18.234,19.38-1,3.493-5.461,6.1-10.574,6.137-5.13.019-10.5-2.517-12.684-6-.956,8,6.959,16.813,17.957,20-5.539,2.047-11.074,4.075-16.613,6.122C81.235,551.081,93.282,558.231,91.518,566.4Z" fill="#e6e6e6"/>
        </g>
        <path d="M137.559,511.148c.016.047.016.11.031.157a4.164,4.164,0,0,1,.063.456.893.893,0,0,1,.032.2c.047.361.078.707.11,1.053q.047.613.047,1.226a8.839,8.839,0,0,1-.032.912,8.487,8.487,0,0,1-.078.9c-.032.3-.079.6-.126.895a2.513,2.513,0,0,1-.094.441c-.016.141-.047.282-.079.44l-.016.015-18.578,33.181-12.26,21.863a9.509,9.509,0,0,0-1.808-1.021.056.056,0,0,1-.031-.016.016.016,0,0,1-.016-.016h-.015a1.634,1.634,0,0,1-.378-.094.771.771,0,0,1-.188-.032c-.11-.015-.2-.031-.315-.047s-.2-.031-.314-.047c-.22-.031-.44-.047-.66-.063a11.075,11.075,0,0,0-1.776.047c-.629.063-1.258.126-1.886.173-.362.032-.723.063-1.1.079-.094.016-.188.016-.283.031l-.911.048c-.613.047-1.242.078-1.855.094-.189.016-.361.031-.55.031-.2,0-.409.016-.613.016-2.216.063-4.448.079-6.68,0-1.839-.063-3.694-.173-5.533-.33l-.534-.047c-.189-.016-.362-.032-.55-.063-.723-.063-1.431-.142-2.154-.22-.9-.11-1.792-.22-2.687-.346-1.258-.173-2.515-.377-3.773-.6-.2-.032-.408-.063-.613-.11-.581-.1-1.147-.2-1.729-.33q-1.249-.237-2.5-.519c-.361-.063-.723-.157-1.069-.236-.66-.141-1.32-.3-1.964-.471-.173-.032-.346-.079-.519-.126-.2-.047-.393-.094-.6-.157-.252-.063-.5-.142-.755-.205a1.306,1.306,0,0,1-.236-.062c-.141-.032-.267-.063-.393-.1-.188-.063-.392-.11-.581-.173-.409-.11-.8-.22-1.21-.33v-.015l-.189-.048c-.864-.251-1.713-.518-2.578-.8h-.015c-.016,0-.048-.016-.063-.016-.55-.173-1.1-.361-1.651-.55-.251-.079-.5-.173-.754-.267s-.5-.173-.77-.267c-.6-.221-1.211-.441-1.808-.676a.22.22,0,0,1-.094-.032c-.613-.236-1.242-.487-1.871-.739-.518-.2-1.037-.424-1.556-.644-.5-.2-.99-.424-1.493-.644-.094-.048-.173-.079-.267-.126-.723-.33-1.446-.66-2.169-1.006-.535-.252-1.069-.519-1.588-.77a.131.131,0,0,0-.094-.047.722.722,0,0,0-.157-.079c-.44-.22-.865-.456-1.289-.676-.519-.267-1.037-.55-1.556-.833a4.159,4.159,0,0,0-.456-.251c-.11-.063-.2-.126-.314-.189-.236-.126-.472-.267-.708-.409-.125-.063-.267-.141-.392-.22-.189-.11-.362-.22-.535-.33a6.4,6.4,0,0,1-.55-.33h-.031l-.613-.377c-.283-.173-.551-.346-.818-.519-.188-.11-.377-.236-.55-.346-.3-.2-.6-.393-.88-.565-.22-.158-.424-.3-.629-.425-.487-.33-.959-.66-1.43-.99-.016-.016-.032-.016-.047-.031l-.66-.472h-.016c-.456-.314-.865-.644-1.3-.959-.015-.015-.015-.015-.031-.015-.645-.488-1.273-.975-1.886-1.478-.629-.487-1.242-1.006-1.855-1.509a.4.4,0,0,0-.094-.078c-.425-.362-.849-.739-1.273-1.116-.158-.142-.315-.268-.456-.409-.566-.519-1.116-1.037-1.666-1.556-.645-.629-1.274-1.258-1.9-1.9l-.047-.047c-.425-.456-.849-.9-1.258-1.352-.078-.079-.141-.157-.22-.236-.2-.235-.424-.487-.644-.738s-.425-.472-.629-.723c-.487-.566-.959-1.148-1.415-1.729-.487-.6-.943-1.211-1.4-1.839-.361-.5-.723-1.006-1.068-1.525a.936.936,0,0,1-.11-.157c-.378-.535-.723-1.085-1.069-1.635-.032-.047-.063-.11-.094-.157-.142-.22-.268-.44-.393-.644-.095-.158-.173-.3-.252-.441-.094-.157-.189-.3-.267-.44a1.513,1.513,0,0,0-.094-.157c-.048-.078-.1-.173-.142-.251a.342.342,0,0,0-.047-.079c-.063-.11-.11-.22-.157-.314h-.016c-.236-.425-.456-.833-.66-1.258h-.016c-.016-.031-.016-.063-.031-.078-.22-.425-.425-.849-.629-1.273a1.013,1.013,0,0,1-.079-.189c-.125-.236-.235-.472-.345-.707-.016-.032-.016-.063-.032-.1a.937.937,0,0,1-.078-.188H9.537c-.189-.425-.362-.849-.534-1.273h.015a1.448,1.448,0,0,0,.236.078.287.287,0,0,0,.11.032c.754.235,1.478.471,2.216.691.488.142.99.283,1.478.425.487.125.974.251,1.461.392.393.111.8.221,1.211.315.6.157,1.179.3,1.776.424a1.441,1.441,0,0,0,.251.063.449.449,0,0,1,.142.032c.031,0,.063.015.094.015.33.079.676.142,1.022.22.33.063.66.126,1.006.189q.8.165,1.6.283l.33.047c.094.016.2.031.3.047l.738.094c.346.048.676.079,1.022.126a.342.342,0,0,1,.126.016c.236.016.471.047.691.063.189.015.362.031.535.047a4.337,4.337,0,0,1,.644.047h.173c.126,0,.267.016.393.016.267.016.534.016.8.016a29.82,29.82,0,0,0,10.279-1.745c-8.032-2.782-16.535-5.831-21.612-11.113a17.419,17.419,0,0,1-5.014-12.778c0-.425.016-.833.032-1.258.015-.3.031-.6.062-.9.016-.361.048-.723.095-1.084.031-.377.078-.739.125-1.1,0-.032.016-.063.016-.1.079-.581.173-1.163.267-1.76a1.2,1.2,0,0,1,.032-.236c.188-1.069.393-2.138.613-3.222.251-1.273.534-2.562.786-3.851.015-.11.047-.236.063-.346.125-.66.251-1.3.361-1.964,0-.032.016-.048.016-.079s.016-.063.016-.094c.031-.252.062-.488.11-.723.141-.912.251-1.824.345-2.735a34.087,34.087,0,0,0,.11-3.6H14.1v.016c.032.047.063.063.079.11.063.079.11.142.173.22.015.032.047.047.062.079.346.471.708.927,1.054,1.367a.456.456,0,0,1,.078.094c.377.472.77.928,1.148,1.368.282.346.565.66.864.99.582.645,1.179,1.273,1.776,1.855.315.3.613.6.928.88.267.236.534.472.817.707.047.032.078.079.126.11l.031.032c.016.016.031.016.047.031.032.016.047.032.079.047.377.315.754.6,1.131.865a1.04,1.04,0,0,1,.268.188c.361.252.723.472,1.084.692.629.377,1.273.723,1.918,1.053.5.236,1.006.472,1.524.676.346.141.708.283,1.069.393a10.478,10.478,0,0,0,1.2.361,11.334,11.334,0,0,0,1.226.3c.2.063.424.094.644.142.315.062.629.11.943.141.189.031.393.063.6.079.377.047.738.078,1.116.11h.047a9.167,9.167,0,0,1-.409-1.116,4.614,4.614,0,0,1-.141-.5,17.623,17.623,0,0,1-.393-2.028c-.032-.236-.063-.487-.095-.739a.209.209,0,0,0-.015-.094,3.78,3.78,0,0,0-.032-.424,2.3,2.3,0,0,1-.031-.33c0-.063-.016-.126-.016-.189a33.2,33.2,0,0,1,.487-9.619c.22-1.116.487-2.232.786-3.348a66.162,66.162,0,0,1,2.326-6.743c.692-1.682,1.462-3.364,2.279-5.061.268-.566.551-1.132.834-1.7.581-1.116,1.163-2.232,1.776-3.348v-.015c.911-1.667,1.87-3.333,2.845-4.983v-.016c.581-.959,1.147-1.933,1.729-2.892.157-.267.33-.534.487-.8.581-.959,1.163-1.9,1.744-2.845a.056.056,0,0,1,.016-.032c.99-1.619,1.981-3.206,2.955-4.778,1.949-3.175,3.82-6.256,5.47-9.226a.056.056,0,0,0,.016-.032c.864,1.792,1.729,3.6,2.64,5.391,3.065,6.115,6.586,12.15,11.71,17.557.314.346.645.676.99,1.006.582.6,1.195,1.179,1.824,1.745l.062.063a82.709,82.709,0,0,0,14.319,9.9c4.794,2.735,9.84,5.281,14.759,7.906.818.424,1.635.865,2.437,1.32l1.792.991c.691.377,1.367.754,2.043,1.147l.33.189c.393.22.786.44,1.163.675.6.346,1.21.708,1.792,1.069.456.252.88.519,1.32.818.629.361,1.258.754,1.871,1.163.487.3.958.613,1.43.943,1.147.754,2.279,1.54,3.364,2.342.393.267.77.55,1.131.833s.723.55,1.085.833.723.581,1.084.88c.158.126.315.252.488.393.424.361.848.723,1.257,1.085.079.062.157.141.236.2.833.739,1.65,1.509,2.42,2.279.6.6,1.179,1.226,1.745,1.855.3.33.582.66.865,1.006.282.33.565.675.833,1.021a34.734,34.734,0,0,1,3.473,5.329c.173.345.346.691.5,1.037a1.56,1.56,0,0,1,.11.236c.157.361.315.707.456,1.053.047.126.094.236.142.346.125.345.251.675.345.99.047.141.095.267.126.377.063.189.11.346.157.519a1.325,1.325,0,0,1,.095.33l.015.016c.016.062.032.141.047.22.079.267.142.534.2.8a.833.833,0,0,1,.031.205s.016,0,.016.015c.031.2.078.393.11.6Z" opacity="0.38" fill="url(#c)"/>
      </g>
      <path d="M186.864,352.872c-1.224,1.169-2.374,2.43-3.45,3.58a18.181,18.181,0,0,1,3.357-6.751C186.771,350.8,186.808,351.852,186.864,352.872Z" fill="#3a4357"/>
      <path d="M151.609,334.947c9.747-1.605,27-5.985,35.5-7.466-.373,14.621-3.188,24.79-13.283,27.006C156.707,358.246,152.089,342.165,151.609,334.947Z" fill="url(#d)"/>
      <path d="M32.617,266.69a1.477,1.477,0,0,1,.209-.652A1.477,1.477,0,0,0,32.617,266.69Z" fill="#e6e6e6"/>
      <g>
        <path d="M45.651,187.017c-.044,10.993-10.328-3.667-12.5-7.037C8.566,141.755,15.667,102.568,54,74.352c17.568-7.968,22.226-5.567,4.235,10.794C23.994,116.283,45.781,154.795,45.651,187.017Z" fill="#3a4357"/>
        <path d="M237.068,146.516c5.031,10.1,7.941-7.77,8.311-11.774,4.2-45.408-22.588-77.235-68.95-85.259-18.422.359-23.113,5.154.536,11.556C221.97,73.224,222.32,116.905,237.068,146.516Z" fill="#3a4357"/>
        <path d="M243.18,216.694a21.754,21.754,0,0,0-2.766-2.106,31.5,31.5,0,0,0-11.223-4.259h-.015c-5.816-.22-11.364-.173-16.944,1.634a43.589,43.589,0,0,0-8.551,4.2,27.714,27.714,0,0,0-3.128,2.137,57.578,57.578,0,0,0-9.666,9.4c-1.163,1.4-2.185,2.876-3.222,4.385,10.688,3.772,20.92,4.873,31.939,1.855,7.8-2.138,14.067-6.4,20.213-11.521a.26.26,0,0,1,.063-.079,9.812,9.812,0,0,0,.9-.833l.047-.047.063-.063v-.016l.094-.094c.487-.519,2.153-2.248,2.782-3.112.094-.126.487-.362.393-.519A5.7,5.7,0,0,0,243.18,216.694Zm-122.489,28.67c-.141-.079-.283-.157-.424-.22a64.538,64.538,0,0,0-13.958-5.344,46.805,46.805,0,0,0-14.319-1.1,35.941,35.941,0,0,0-8.5,1.981l-.016.015a18.943,18.943,0,0,0-6.366,3.175,30.825,30.825,0,0,0-9.194,9.337,27.336,27.336,0,0,0-2.091,4.385c.393.189.472.22.927.44.456.236,1.776.77,2.185.975.425.188.865.3,1.1.408,2.3,1.132,8.284,2.421,9.761,2.594.22.016.393.047.5.047a.444.444,0,0,0,.2.016,64.041,64.041,0,0,0,14.319-.173,52.265,52.265,0,0,0,9.29-2.5l.015-.016c.393-3.254,5.832-3.034,8.331-4.134v-.016a2.728,2.728,0,0,1,1.587-1.068l.11-.047a.254.254,0,0,1,.063-.016c.079-.032.158-.063.268-.11,2.2-.9,6.428-4.778,8.126-7.466A16.36,16.36,0,0,0,120.691,245.364ZM101.374,355.232c.2.172.3.251.55.471.346.283.707.6,1.084.849a30.648,30.648,0,0,0,4.684,2.719ZM313.156,250.881c-1.619-5.36-3.631-10.688-5.815-15.97-.2-.471-.393-.943-.6-1.414-.864-2.075-1.76-4.134-2.687-6.162-2.94-6.711-5.942-13.36-8.017-18.044-.738-1.666-1.367-3.1-1.823-4.181-.346-.786-.676-1.587-1.006-2.389a.417.417,0,0,1-.063-.157c-.015-.031-.031-.016-.031-.047-1.43-3.8-2.735-7.278-4.008-11.207-6.932-21.518-12.229-43.208-20.921-64.3-.015-.031-.015-.047-.031-.078-.189-.456-.377-.9-.582-1.352-.078-.157-.157-.314-.22-.472a77.033,77.033,0,0,0-3.819-7.293c-1.037-1.776-2.138-3.521-3.269-5.2-1.085-1.6-2.169-3.191-3.254-4.747q-2.475-3.489-5.014-6.806a136.562,136.562,0,0,0-12.983-14.649c-.66-.66-1.352-1.305-2.043-1.949-1.305-1.21-2.641-2.4-4.024-3.568q-1.179-.99-2.405-1.98h-.016V78.9h-.015V78.88H230.5l-.016-.016-.015-.015a.5.5,0,0,1-.11-.095c-.362-.3-2.562-1.98-3.175-2.514-6.366-5.517-21.471-14.037-26.988-16.583-2.751-1.257-5.03-2.2-7.026-2.923-1.666-.613-3.128-1.069-4.527-1.462-.55-.157-1.084-.3-1.634-.44-.8-.2-1.588-.393-2.389-.582-7-1.65-8.771-1.933-14.775-2.263-.032,0-.047,0-.063.016-.031,0-.016.015-.079.015h-.031c-.047.016-.11.016-.157.032-2.8.581-4.7,1.556-5.894,4.165-.048.094-.095.189-.142.3a8.59,8.59,0,0,0-.55,3.253,16.529,16.529,0,0,0,.251,2.625c3.584,18.547,9.274,43,10.987,60.042,1.085,10.83,5.313,18.83.519,19.365a2.58,2.58,0,0,0-.88-.173c-9.1-.755-69.772,13.234-76.688,16.142a2.629,2.629,0,0,0-.518.252c-2.547,1.7-2.248,2.624-4.4,4.07-5.69-27.82-19.019-54.493-29.974-80.679V81.4c-.818-1.918-2.122-4.48-3-6.507-.158.094-.3.173-.425.236-.126.078-.236.157-.393.267A113.013,113.013,0,0,0,47.32,84.177c-1.273,1.163-2.53,2.342-3.741,3.568-.408.377-.8.786-1.21,1.195q-3.608,3.677-6.853,7.638c-.723.881-1.43,1.776-2.138,2.688-1.4,1.808-2.75,3.662-4.071,5.564-2.64,3.8-5.139,7.781-7.528,11.977-.016.016-.016.032-.032.063-.126.236-.236.487-.346.723,0,.016-.015.016-.015.032a142.374,142.374,0,0,0-8.032,19.757q-1.933,6.036-3.3,12.166A117.456,117.456,0,0,0,7.68,164.935c-.063.676-.11,1.352-.142,2-.047.628-.078,1.257-.11,1.87v.047c-.016.6-.031,1.179-.047,1.761-.079,4.636.2,8.613.189,13.658a76.676,76.676,0,0,0,.487,8.142c1.886,19.145,5.045,37.849,7.293,56.836.786,6.57,1.289,13.062,1.7,19.632.032.44.048.88.079,1.367.016.267.031.55.047.833l.047.755c.016.125,0,.251.016.377v.377a.524.524,0,0,1,.016.157,2.964,2.964,0,0,0,.016.377c.031.912.062,1.9.11,2.924.015.346.031.707.031,1.053.016.487.016.975.031,1.446v.283c.016.943.016,1.87.016,2.814a183.935,183.935,0,0,1-1.776,27.506c-.22,1.666-.456,3.348-.723,5.014a2.789,2.789,0,0,0-.079.408,116.113,116.113,0,0,1-3.552,13.816A69.334,69.334,0,0,0,22.5,315.277c.141-.22.235-.377.408-.66s.362-.645.582-1.022c.22-.393.581-1.037.817-1.462s.472-.88.692-1.273c.2-.393.487-.943.628-1.242a2.185,2.185,0,0,0,.173-.346c.126-.267.315-.675.472-1.021s.361-.8.519-1.163.361-.833.487-1.148.173-.44.283-.707c.11-.283.141-.377.283-.723.125-.33.33-.864.471-1.289a70.431,70.431,0,0,0,2.075-7.482.168.168,0,0,0,.016.079v.094c0,.315.125,1.336.22,2.012.015.079.015.142.031.205.189-.818.252-1.195.377-1.949-.047,1.1-.22,1.776-.2,2.955v.235c.047.267.079.535.126.8.408,2.578.88,5.14,1.446,7.7.141.628.3,1.273.44,1.9.314,1.289.66,2.547,1.022,3.836.345,1.273.707,2.53,1.116,3.8.125.409.251.818.408,1.258a147.808,147.808,0,0,0,11.741,25.29c.032.031.048.063.063.078.519.708,1.053,1.4,1.6,2.107.8,1.037,1.619,2.043,2.452,3.049,1.87,2.295,3.882,4.6,6.067,6.931,1.4,1.541,2.845,3.065,4.322,4.574.707.708,1.43,1.415,2.153,2.138a65.872,65.872,0,0,1-5.124-17.29c-.015-.031,0,0-.015-.094-.032-.11-.063-.566-.079-.676a.792.792,0,0,1-.016-.157,51.473,51.473,0,0,1,1.871-20.292.837.837,0,0,1,.063-.188c.015,0,.031.094.047.11a.058.058,0,0,0,.016.047c.157.676.33,1.352.518,2.012.189-.975.393-1.965.645-2.971a.938.938,0,0,1,.063-.2c0-.016.015-.016.015-.032.016.032.016.079.032.126a.18.18,0,0,0,.015.079v.062c.016.032.016.016.016.048a.224.224,0,0,0,.032.094,22.442,22.442,0,0,0,1.634,5.155c.283.66.582,1.321.928,2,.141.314.314.628.487.943l.283.518,36.151,23.106c-.063-.063-.142-.126-.236-.22-.361-.346-.99-.959-1.4-1.368s-.959-1.053-1.273-1.43c-.314-.393-.393-.488-.644-.8a8.356,8.356,0,0,1-.6-.833,15.23,15.23,0,0,1-1.021-1.572,17.8,17.8,0,0,1-2.217-7.984v-.032c.535.142,1.1.283,1.635.409.016.016.016.016.031.016a9.461,9.461,0,0,1-.125-2.3v-.095h.015c.189.048.362.11.551.158,29.172,3.473,52.953,6.79,83.682,1.886l45.393-14.382a.626.626,0,0,1,.141-.079,180.44,180.44,0,0,0,20.575-12.778c1.666-1.179,3.316-2.389,4.951-3.647a90.063,90.063,0,0,0,6.759-6.648l.015-.016c.048.078.079.157.126.236.11.2.22.424.314.644l.032-.031s.016,0,.016.015a.057.057,0,0,1,.015.032c.016.015.016.031.032.047,0,.016.015.031.031.047,0,.016.016.016.016.031v.016c.016.016.031.032.031.047a2.089,2.089,0,0,1,.126.205c.912,1.54,1.981,6.444,1.1,9.116-.094.314-.078.833-.188,1.21-.095.393-.2.912-.33,1.368a29.323,29.323,0,0,1-.943,2.939c-.126.283-.236.582-.378.88s-.267.613-.424.927a31.948,31.948,0,0,1-5.108,7.184c5.517-2.3,14.492-10.374,16.629-12.606.283-.3.5-.519.66-.692.708-.786.676-.833,1.148-1.383a.165.165,0,0,0,.047-.063c.33-.456.691-.911,1.006-1.352a60.947,60.947,0,0,0,7.309-13.58c.2-.534.377-1.084.5-1.509,2.153-7.246,3.269-14.319,1.791-21.69a3.548,3.548,0,0,0-.251-.9.258.258,0,0,1-.031-.079c.047.016.094.095.157.157.094.095.173.189.251.283a1.828,1.828,0,0,0-.031-.283.5.5,0,0,1,.11.095l.063.063c.078.078.173.157.283.267,1.6,1.524,6.318,7.56,7.45,10.845.016.063.126.2.157.283a65.782,65.782,0,0,1,5.486,29.44l1.524-78.59.016-.8c0-.016-.016-.048-.016-.063l.8,1.037c.267.346.534.676.817,1.006.456.566.927,1.116,1.43,1.666.048.047.1.11.142.157.676.739,1.54,1.556,2.216,2.217.723.707,1.179,1.147,1.933,1.807s1.651,1.431,2.468,2.122c.346.283.723.566,1.1.865s.881.675,1.274.943c.393.283.723.55,1.084.785s.692.472,1.022.692c.786.519,1.587,1.069,2.357,1.54.095.063.236.189.252.126S313.235,251.132,313.156,250.881Z" fill="#31a9ba"/>
        <path d="M193.8,139.169h0" fill="none" stroke="#000" stroke-miterlimit="10"/>
        <path d="M91.833,162.688c0-.032-.016-.047-.016-.079-.2-.691-.377-1.383-.581-2.075v-.047c-.267-.9-.535-1.776-.8-2.656a.213.213,0,0,0-.031-.094c-1.352-4.276-2.908-8.472-4.323-12.732-.015-.047-.047-.11-.063-.157Q79.228,124.1,71.023,104a3.183,3.183,0,0,1-.173-.408c-2.138-5.282-4.386-10.547-6.7-15.781a1.351,1.351,0,0,0-.079-.157c-.424-.833-.8-1.635-1.194-2.421a.119.119,0,0,1-.032-.063c-.471-.99-.943-1.949-1.43-3-.016-.016-.031-.031-.031-.047-.928-1.949-1.9-4.134-2.751-6.177-.079-.189-.173-.362-.236-.55A113.013,113.013,0,0,0,47.32,84.177c-1.273,1.163-2.53,2.342-3.741,3.568-.408.377-.8.786-1.21,1.195q-3.608,3.677-6.853,7.638c-.723.881-1.43,1.776-2.138,2.688-1.4,1.808-2.75,3.662-4.071,5.564-2.64,3.8-5.139,7.781-7.528,11.977-.016.016-.016.032-.032.063-.126.236-.236.487-.346.723,0,.016-.015.016-.015.032a142.374,142.374,0,0,0-8.032,19.757c-1.3,4.008-2.4,8.079-3.3,12.166A117.456,117.456,0,0,0,7.68,164.935c-.063.676-.11,1.352-.142,2-.047.628-.078,1.257-.11,1.87v.047c-.016.6-.031,1.179-.047,1.761-.079,4.636.2,8.613.189,13.658,0,.315.22.488.44.755a21.327,21.327,0,0,0,4.354,3.128c.817.518,1.4,1.1,2,1.461C19.971,192.976,25.268,196.4,32,196.56c9.415.235,15.97-5.2,22.917-11.239a.265.265,0,0,0,.078-.062c.016-.016.048-.032.063-.063.063-.063.142-.157.268-.267.2-.189.518-.5.9-.881,1.242-1.241,3.207-3.253,4.354-4.542,1.242-1.368,3.49-3.9,4.841-5.486.142-.173.252-.3.393-.471,2.61-3.049,5.816-5.266,9.148-7.592,3.207-.629,8.126-1.525,10.955-2.028.063-.015.126-.015.189-.031,2.672-.456,3.442-.613,5.816-1.053C91.833,162.8,91.849,162.735,91.833,162.688Z" fill-opacity="0.989" fill="url(#e)"/>
        <path d="M62.534,17c-8.248,21.464-11.7,38.144-2.76,60.7s28.045,60.357,31.54,85.179a30.791,30.791,0,0,0,6.129-3.622c-5.519-25.08-10.789-63.283-18.078-84.841S58.7,38.356,62.534,17Z" fill="#3a4357"/>
        <path d="M60.4,124c2.654,11.172,6.6,22.833,6.136,34.136-.046,1.134-3.344-4.636-4.369-5.486-8.739-7.246-20.21-10.164-31.091-4.975.6-.269,1.257-.5,1.89-.726,8.171,3.007,13.825,8.794,17.407,16.65-4.871,6.76-11.288,11.7-19.444,13.546a3.736,3.736,0,0,1-2.73-.257,2.039,2.039,0,0,1-.959-2.456,3.932,3.932,0,0,0-2.213,1.91,8.413,8.413,0,0,0,1.009,7.66,11.611,11.611,0,0,0,6.289,4.5c2.574.89,5.078,1.513,7.649.413C58.792,185.233,71.87,176.6,86.49,164.747,79.8,149.711,70.945,136.554,60.4,124Z" fill="#e6e6e6"/>
        <path d="M267.574,125.578c-.078-.157-.157-.314-.22-.472-1.163-2.467-2.452-4.919-3.819-7.293-1.037-1.776-2.138-3.521-3.269-5.2-1.085-1.6-2.169-3.191-3.254-4.747q-2.475-3.489-5.014-6.806a136.562,136.562,0,0,0-12.983-14.649c-.66-.66-1.352-1.305-2.043-1.949-1.305-1.21-2.641-2.4-4.024-3.568q-1.179-.99-2.405-1.98h-.016V78.9h-.015V78.88H230.5l-.016-.016-.015-.015a.5.5,0,0,1-.11-.095c-.362-.3-2.562-1.98-3.175-2.514-6.366-5.517-21.471-14.037-26.988-16.583-2.751-1.257-5.03-2.2-7.026-2.923-1.666-.613-3.128-1.069-4.527-1.462-.55-.157-1.084-.3-1.634-.44-.8-.2-1.588-.393-2.389-.582-7-1.65-8.771-1.933-14.775-2.263-.032,0-.047,0-.063.016-.016,0-.016.031-.016.047.016,2.075.047,4.2-.015,6.287a3.719,3.719,0,0,1,.015.409.209.209,0,0,1-.015.094v.5c.062,2.483.062,4.967.22,7.45v.157c1.1,18.563,2.137,36.8,5.438,55.17,1.022,5.627,2.546,11.49,4.149,17.038.032.079.063.173.095.267a34.271,34.271,0,0,0,1.414,3.725c.016.032.032.079.048.11,1.6-.094,3.4-.282,5.234-.487a93.477,93.477,0,0,1,10.735-.864c4.542.063,7.922-.377,11.82.911,2.467.818,5.3,2.389,7.623,3.144.959.3,2.059.723,3.049,1.084.692.252,1.32.472,1.792.614,10.028,2.939,19.349,5.847,28.952,1.178,7.058-3.426,10-9.981,13.722-16.378,1.352-1.87,2.782-3.615,4.149-5.454,0-.016,0-.016.016-.031C268,126.505,267.779,126.049,267.574,125.578Z" fill-opacity="0.989" fill="url(#f)"/>
        <path d="M142.421,0C159.2,16.561,168.732,28.3,169.59,53.827s3.243,63.251,11.5,89.321a24,24,0,0,1-7.042-.582c-6.457-24.949-21.11-60.545-23.218-83.373S154.967,18.033,142.421,0Z" fill="#3a4357"/>
        <path d="M190.147,95.271c3.1,11.175,5.154,23.318,11.084,33.111.595.983.589-5.667,1.133-6.9,4.629-10.534,13.951-18.045,26.117-18.118-.663.022-1.359.107-2.032.183-5.984,6.311-8.418,13.827-8.087,22.47,7.874,3.812,15.783,5.469,24.364,3.606a3.614,3.614,0,0,0,2.382-1.409,2.034,2.034,0,0,0-.25-2.624,4.245,4.245,0,0,1,2.931.773,8.528,8.528,0,0,1,2.724,7.425,11.238,11.238,0,0,1-3.56,6.867c-1.943,1.957-4.093,3.506-6.9,3.639-18.973,4.761-34.963,2.9-53.706-1.517A173.548,173.548,0,0,1,190.147,95.271Z" fill="#e6e6e6"/>
      </g>
      <polygon points="5.511 330.896 5.527 330.88 5.527 330.896 5.511 330.896" fill="#e6e6e6" fill-opacity="0.989"/>
      <path d="M183.949,207.054c5.277-11.371,13.119-10.54,23.572-10.054,12.243.568,29.723,7.527,35.751,13.659,4.184,4.257,15.465.2,13.3.491,10.072-9.786-23.053,54.086-76.05,28.669C177.481,224.607,182.347,210.505,183.949,207.054Z" fill="#eaeaea" stroke="#eaeaea" stroke-width="0.265"/>
      <path d="M91.593,218.093c-10.4,4.826-20.217,22.3-23.486,30.255-3.694,8.984-16.813,11.506-14.734,10.845-13.3-4.511,44.036,34.947,80.975-10.772-5.209-16.226-10.508-31.386-20.886-33.309A35.7,35.7,0,0,0,91.593,218.093Z" fill="#eaeaea" stroke="#eaeaea" stroke-width="0.265"/>
      <path d="M243.789,215.613c-.3-.314-.629-.628-.943-.927-.959-.88-2-1.7-3.018-2.468-15.482-11.615-22.917-11.348-31.011-7.277-9.054,4.558-17.164,13.25-23.734,23.058l-1.132,1.682c.864.424,1.635.77,2.389,1.084a47.889,47.889,0,0,0,12.056,3.678,49.145,49.145,0,0,0,18.971-.518c.362-.079.723-.158,1.069-.252a49.671,49.671,0,0,0,25.133-15.419l.015-.016c.095-.094.173-.2.268-.3l1.021-1.195Zm-7.938,5.36a46.138,46.138,0,0,1-18.248,9.336,46.125,46.125,0,0,1-28.449-2.09,50.514,50.514,0,0,1,9.415-9.9,40.4,40.4,0,0,1,6.507-4.291A35.572,35.572,0,0,1,211.3,211.4c9.195-2.845,19.333-1.446,26.516,3.646h.016a21.7,21.7,0,0,1,2.3,1.855A45.527,45.527,0,0,1,235.851,220.973Z" fill="#3a4357"/>
      <ellipse cx="100.395" cy="208.274" rx="13.176" ry="7.281" transform="translate(-50.03 32.691) rotate(-14.852)" fill="#3a4357"/>
      <ellipse cx="64.349" cy="229.677" rx="8.259" ry="5.433" transform="translate(-125.081 84.733) rotate(-36.927)" fill="#3a4357"/>
      <ellipse cx="54.663" cy="243.676" rx="5.538" ry="4.016" transform="translate(-125.11 70.333) rotate(-33.4)" fill="#3a4357"/>
      <ellipse cx="227.642" cy="191.515" rx="5.433" ry="8.259" transform="translate(-12.112 367.632) rotate(-76.374)" fill="#3a4357"/>
      <ellipse cx="244.867" cy="199.661" rx="4.016" ry="5.538" transform="translate(35.458 436.246) rotate(-87.68)" fill="#3a4357"/>
      <ellipse cx="197.068" cy="190.107" rx="13.176" ry="7.44" transform="translate(-37.024 48.06) rotate(-12.721)" fill="#3a4357"/>
      <ellipse cx="115.816" cy="168.269" rx="5.774" ry="4.002" transform="translate(-80.153 110.615) rotate(-39.067)" fill="#3a4357"/>
      <ellipse cx="132.824" cy="199.661" rx="5.774" ry="4.002" transform="translate(-96.134 128.353) rotate(-39.067)" fill="#3a4357"/>
      <ellipse cx="117.499" cy="156.066" rx="3.894" ry="2.941" transform="translate(-74.703 121.123) rotate(-42.721)" fill="#3a4357"/>
      <ellipse cx="119.683" cy="185.398" rx="9.168" ry="5.506" transform="translate(-96.204 139.69) rotate(-45.202)" fill="#3a4357"/>
      <ellipse cx="160.541" cy="157.314" rx="4.002" ry="5.774" transform="translate(-30.167 276.275) rotate(-76.374)" fill="#3a4357"/>
      <ellipse cx="158.668" cy="192.969" rx="4.002" ry="5.774" transform="translate(-66.249 301.709) rotate(-76.374)" fill="#3a4357"/>
      <ellipse cx="156.649" cy="148.262" rx="2.941" ry="3.894" transform="translate(-31.452 253.803) rotate(-72.721)" fill="#3a4357"/>
      <ellipse cx="164.408" cy="174.444" rx="5.506" ry="9.168" transform="translate(-55.348 270.193) rotate(-70.24)" fill="#3a4357"/>
      <path d="M59.379,308.006c-1.381.047-2.124-3.836-1.876-5.194,2.81-15.407,20.64-17.935,36.213-16.335,10.012,1.509,10.2,4.477.216,3.462C74.934,288.007,63.424,307.87,59.379,308.006Z" fill="#3a4357"/>
      <path d="M86.076,319.72c-1,.421-2.324-1.975-2.427-2.954-1.165-11,8.386-16,23.241-21.164,6.019-1.353,1.477,1.964.86,2.261C94.482,304.239,89.015,318.488,86.076,319.72Z" fill="#3a4357"/>
      <path d="M183.949,229.677c-4.591,7.585-4.377,10.53-4.447,16.577-.079,6.863,2.684,14.759,1.056,21.427-1.531,6.264-8.143,10.287-14.281,12.262.349.265,40.916-15.244,40.881-19.057a46.46,46.46,0,0,0-8.079-25.657c-1.486-2.168-3.282-1.6-5.821-2.274a43.205,43.205,0,0,1-9.309-3.278Z" fill="url(#g)"/>
      <path d="M125.35,241.271c5.365,3.614,8.9,9.168,11.558,14.6,3.019,6.164,3.916,14.481,8.251,19.8,4.073,5,12.736,5.872,19.128,5.019-.2.39-44.462,3.731-46.068.273-3.832-8.252-5.7-18.374-4.283-27.361Z" fill="url(#h)"/>
      <path d="M284.11,215.537c1.219-.65-.079-4.385-.973-5.437-10.136-11.938-26.842-5.212-39.529,3.96-7.915,6.313-6.594,8.976,1.544,3.106C260.639,206,280.539,217.441,284.11,215.537Z" fill="#3a4357"/>
      <path d="M190.458,223.364c6.913-8.624,10.8-11.867,19.451-16.366,9.936-5.169,24.282,5.628,33.363,11.016-8.769,5.35-16.595,11.9-27.112,14.028a48.036,48.036,0,0,1-28.686-3.169A44.1,44.1,0,0,1,190.458,223.364Z" fill="#141414"/>
      <circle cx="203.036" cy="218.014" r="4.484" fill="#e6e6e6"/>
      <circle cx="231.367" cy="220.798" r="4.484" fill="#e6e6e6"/>
      <path d="M270.516,221.4a48.2,48.2,0,0,1-2.1,14.1,46.2,46.2,0,0,1-3.079,7.636c-3.032,2.067-6.235,4.061-9.594,5.922a105.75,105.75,0,0,1-16.171,7.281,96.437,96.437,0,0,1-26.03,5.361c-.871.059-1.757.088-2.628.133H210.9a96.828,96.828,0,0,1-22.469-1.861,49.44,49.44,0,0,1-18.131-38.03c0-18.239,10.154-34.233,25.408-43.124,4.758-.222,9.952.074,15.565.325a96.578,96.578,0,0,1,15.255,2.038,146.59,146.59,0,0,1,17.664,4.9,133.471,133.471,0,0,1,17.415,7.3,49.061,49.061,0,0,1,7.433,16.142c.358,1.432.669,2.909.886,4.386A47.718,47.718,0,0,1,270.516,221.4Z" fill="#eaeaea"/>
      <path d="M271,216.17c-.22-1.571-.535-3.143-.9-4.668a51.134,51.134,0,0,0-1.886-6.177,76.447,76.447,0,0,0-13.509-7.387c-33.276-12.54-46.79-9.795-57.143-4.969-28.56,13.31-25.18,40.4-26.281,42.047v.016c.3,1.54.661,3.049,1.085,4.542.393.157.786.33,1.163.488,1.493.675,3,1.32,4.527,1.9,2.389.928,4.825,1.745,7.277,2.452a83.238,83.238,0,0,0,9.934,2.264,88.581,88.581,0,0,0,34.2-.928c.644-.141,1.305-.282,1.918-.455a89.2,89.2,0,0,0,29.156-13.345,87.309,87.309,0,0,0,7.026-5.422c1.383-1.164,2.719-2.39,4.008-3.663A52.465,52.465,0,0,0,271,216.17Zm-3.836,2.3c-1.414,1.368-2.876,2.688-4.369,3.93-.519.44-1.038.864-1.556,1.257a80.353,80.353,0,0,1-8.849,6.177,82.178,82.178,0,0,1-22.493,9.4,83.352,83.352,0,0,1-47.53-2.326c-1.274-.44-2.531-.927-3.773-1.446q1.273-1.768,2.641-3.442a90.036,90.036,0,0,1,14.335-14.4,72.805,72.805,0,0,1,11.741-7.748,64.5,64.5,0,0,1,11.222-4.732,57.407,57.407,0,0,1,39.169,1.761,47.228,47.228,0,0,1,7.749,4.228c.3.189.6.393.88.6h.032a38.11,38.11,0,0,1,4.149,3.332C269.432,216.218,268.316,217.365,267.168,218.465Z" fill="#3a4357"/>
      <path d="M271.444,220.053c-3.458,2.216-6.853,4.479-10.28,6.711-10.421,6.759-21.03,13-33.872,15.592a86.6,86.6,0,0,1-51.114-5.454c-.2-.078-.393-.157-.6-.251.079-.252.189-.519.3-.8,1.147-2.8-.812-28.436,29.812-39.282,12.61-4.466,37.539.915,51.308,8.79,4.794,2.75,9.384,5.658,13.58,8.267q.235,1.274.425,2.546C271.192,217.459,271.349,218.748,271.444,220.053Z" fill="#141414"/>
      <path d="M206.476,231.635c2.771,3.5,1.936,7.234-1.964,9.406-3.275,1.824-11.92-.01-16.813-6.306-2.74-3.525-2.9-8.17,1.455-9.153S203.036,227.289,206.476,231.635Z" fill="#e6e6e6"/>
      <path d="M246.817,207.511c.984,4.355-4.291,4.82-8.753,4.974-6.946.239-12.772-1.109-13.756-5.464s1.184-8.266,8.509-8.266C239.878,198.755,245.834,203.156,246.817,207.511Z" fill="#e6e6e6"/>
      <path d="M275.889,257.514c-1.179.628-4.165-.2-8.173-1.195a65.89,65.89,0,0,0-11.694-2.043c.236-.236.44-.456.644-.692a43.144,43.144,0,0,0,5.564-7.875,17.281,17.281,0,0,1,9.793,3.584,19.247,19.247,0,0,1,2.892,2.782C275.811,253.128,277.115,256.853,275.889,257.514Z" fill="#3a4357"/>
      <path d="M258.628,281c1.078-.137,1.025-2.873.625-3.772-4.493-10.113-15.262-9.661-30.71-6.708-5.889,1.837-.3,2.439.386,2.387C243.607,271.8,255.467,281.4,258.628,281Z" fill="#3a4357"/>
      <path d="M313.156,250.881c-1.619-5.36-3.631-10.688-5.815-15.97-.2-.471-.393-.943-.6-1.414-.864-2.075-1.76-4.134-2.687-6.162-2.735-6.192-5.612-12.275-8.284-18.264-.864-1.949-1.147-2.562-1.854-4.307-1.116,8.9-.55,18-.943,26.721-.079,1.823-3.788-9.179-3.285-6.555s4.369,16.127,4.463,16.693c.9,5.36,4.37,29.534-2.656,26.956-8.44-3.112-17.07-6.067-26.092-6.932-3.74,1.572.566,5.124-5.218,6.13a66.076,66.076,0,0,1-12.581.756c-9.845-.207-22,3.7-30.978,3.552-9.714-.142-16.483-5.518-25.8-4.135-2.955.44-5.878,1.053-8.833,1.509a17.725,17.725,0,0,1-8.378,7.733c-.424.2-1.713.582-2.247.8a4.614,4.614,0,0,1-.173-.786c-1.226.362-2.405.9-3.663,1.226-1.241.33-3,.739-4.165.943s-2.8.315-3.646.393a31.331,31.331,0,0,1-13.895-1.462c-.472-.157-1.132-.456-1.619-.644-1.367.409-2.7.723-4.055,1.132-9.022,2.735-16.5,6.208-25.212,10.5-11.647,5.753-25.2,15.576-37.424,18.972-5.643,1.556-3.3-3.474-7.4-3.333-6.837,4.338-13.03,12.182-22.068,12.025-8.33-.126-9.525-9.431-12.558-17.73-.331-.865-2.484-14.382-3.3-16.991-.8-2.594.817,8.943-.095,7.293-4.683-8.441-9.745-16.85-15.277-24.913.11,1.493.188,2.924.283,4.48.031.283.062.99.078,1.336.016.33.032.518.047.848.016.346.048,1.179.063,1.446a1.608,1.608,0,0,1,.016.2c0,.173.016.2.016.393.031.911.063,1.807.063,2.719.015.346.031.707.031,1.053.016.487.016.975.031,1.446v.283c.016.943.016,1.87.016,2.814a209.442,209.442,0,0,1-1.776,27.506c-.22,1.666-.456,3.348-.723,5.014a2.789,2.789,0,0,0-.079.408,116.113,116.113,0,0,1-3.552,13.816,3.445,3.445,0,0,1-.126.393c-.282.833-.581,1.635-.864,2.421a2.227,2.227,0,0,0-.142.44c-.015.079.095-.094.126-.079,0-.015,0-.015.016-.015a61.1,61.1,0,0,0,13.5-16.19c.22-.377.345-.644.581-1.069.22-.424.55-1.053.786-1.493.22-.456.456-.927.66-1.32.205-.409.456-.974.6-1.273s.031-.079.157-.362c.125-.267.314-.691.471-1.037.157-.362.346-.833.5-1.195.142-.361.346-.833.472-1.163.125-.314.173-.44.283-.723.094-.283.141-.393.251-.723s.346-.943.472-1.3a55.058,55.058,0,0,0,1.587-5.564c.189-.818.252-1.195.377-1.949-.047,1.1-.22,1.776-.2,2.955v.235c.3,17.117,6.68,30.729,16.347,44.718.031.031.047.062.062.078.519.676,1.022,1.336,1.557,1.981.8,1.037,1.619,2.043,2.452,3.049,1.964,2.373,3.976,4.668,6.067,6.931,1.4,1.541,2.845,3.065,4.322,4.574.739.755,1.478,1.509,2.232,2.264,1.745,1.744,3.961,3.835,5.831,5.564-5.548-14.586-10.169-26.029-8.582-42.14.079-.786.456-2.09.613-2.939a1.433,1.433,0,0,0,.063-.2c.016-.016.016-.032.032-.016a.18.18,0,0,0,.015.079v.062c.016.032.016.016.016.048a.224.224,0,0,0,.032.094,27.358,27.358,0,0,0,1.634,5.155c.283.66.582,1.321.928,2,0,.047.031.078.047.125a5.419,5.419,0,0,0,.487.959c.079.126.157.252.236.377,10.138,15.923,23.592,24.269,42.469,27.145.048.016.11.016.158.031a53.6,53.6,0,0,0,8.99-.031,29.853,29.853,0,0,1-11.9-4.841c-.393-.267-.786-.566-1.132-.849a9.3,9.3,0,0,1-.833-.676c-.393-.33-1.053-.943-1.477-1.351-.441-.409-1.022-1.038-1.352-1.415s-.409-.456-.66-.786c-.268-.314-.315-.409-.613-.786-.3-.393-.744-1.06-1.053-1.54-1.1-1.71-2.409-7.855-2.3-7.906.188.015.377.031.566.063,29.172,3.473,52.953,6.79,83.682,1.886.141-.016.282-.047.44-.079h.047c1.367-.22,2.86-.5,4.432-.833,4.04-.817,8.629-1.949,13.392-3.316a184.637,184.637,0,0,0,21.816-7.671c1.6-.691,3.38-1.54,5.266-2.483a.626.626,0,0,1,.141-.079,146.826,146.826,0,0,0,20.575-12.778c1.713-1.289,3.285-2.578,4.684-3.82a86.774,86.774,0,0,0,6.538-6.365c.079-.11.158-.205.22-.283.315-.032.378.173.409.393a3.013,3.013,0,0,0,.094.393,16.323,16.323,0,0,1,.739,8.691c-.047.378-.126.755-.22,1.179s-.2.912-.346,1.368c-.283.974-.644,1.98-1.037,2.955-.126.283-.267.566-.409.88s-.267.6-.44.912a29.008,29.008,0,0,1-9.163,10.436.235.235,0,0,0,.11-.047c1.1-.236,3.3-1.462,4.291-1.808.235-.078.471-.172.723-.282,5.517-2.3,14.492-10.374,16.629-12.606.283-.3.5-.519.66-.692.708-.786.676-.833,1.148-1.383a.165.165,0,0,0,.047-.063c.33-.456.691-.911,1.006-1.352a60.947,60.947,0,0,0,7.309-13.58c.2-.534.377-1.084.5-1.509,2.153-7.246,3.269-14.319,1.791-21.69a3.548,3.548,0,0,0-.251-.9.258.258,0,0,1-.031-.079l-.016-.015h.016v.015c.047.016.094.095.157.157.094.095.173.189.251.283v.016a42.918,42.918,0,0,1,7.5,11.081,1.137,1.137,0,0,1,.11.236c4.071,10.515,5.171,20.905,4.652,32.1,0,.094-.016.173-.016.2s-.015.126-.015.142c.33-.723.676-1.557.99-2.311.031-.094.078-.2.11-.283.063-.141.126-.3.189-.471.267-.661.581-1.478.754-1.949.236-.6.33-.833.5-1.289.173-.472.314-.865.44-1.273.629-1.792,1.21-3.537,1.729-5.36.016-.032.016-.079.032-.126a152.265,152.265,0,0,0-1.934-68.593c-.094-.393-.188-.8-.3-1.194.111.125.205.267.315.393.251.33.519.66.786.974.267.346.534.676.817,1.006.456.566.927,1.116,1.43,1.666.048.047.1.11.142.157.676.739,1.54,1.556,2.216,2.217.723.707,1.179,1.147,1.933,1.807s1.651,1.431,2.468,2.122c.346.283.723.566,1.1.865s.881.675,1.274.943c.393.283.723.55,1.084.785s.692.472,1.022.692c.786.519,1.587,1.069,2.357,1.54.095.063.236.189.252.126S313.235,251.132,313.156,250.881Z" fill="#e6e6e6" fill-opacity="0.989"/>
      <path d="M178.252,341.3s-.455,10.61-.675,15.922c-1.226,29.864-2.279,59.854-4.244,89.545a.342.342,0,0,1-.016.126v.016c-.236,3.552-.456,6.271-.707,9.635-.016.015,0,.015,0,.031-.016.157-.032.283-.047.44v.032a744.489,744.489,0,0,1-27.082,143.409c-.393.2-.8.393-1.211.6a31.713,31.713,0,0,1-3.6-1.745,27.509,27.509,0,0,1-3.521-2.216c-2.452-2.044-4.589-4.511-7.214-6.35-.032-.016-.016-.016-.047-.032-.472-.377-.943-.77-1.415-1.147-.472-.393-.959-.739-1.415-1.147-1.666-1.415-3.316-2.893-4.935-4.339-1.069-.958-2.106-1.886-3.175-2.829l-.031-.031c-.032-.016-.048-.032-.079-.047-1.933-1.462-3.977-2.924-5.973-4.228a2.158,2.158,0,0,0-.22-.126h-.016a.046.046,0,0,0-.031-.016.05.05,0,0,0-.032-.016.015.015,0,0,0-.015-.015v-.016h-.032a.034.034,0,0,1-.031-.032c0-.015-.032-.015-.047-.015s-.016-.016-.032-.016v-.016H112.4c0-.015-.016,0-.016-.015s0-.016-.016-.016-.015,0-.015-.016c-.016,0-.016-.016-.063-.031-1.887-1.3-3.741-2.578-5.706-3.71-.141-.094-.44-.251-.44-.251-.016-.016-.927-.519-1.368-.755v-.015a.016.016,0,0,0,.016-.016c.33-.865.6-1.022,1.022-2,6.758-15.419,16.142-29.534,19.962-46.258a67.434,67.434,0,0,0,.094-30.681,162.464,162.464,0,0,0-5.219-18c-1.335-3.882-3.395-14.225-4.621-20.8a.425.425,0,0,1-.047-.188c-.487-2.531-.848-4.48-.99-5.25-.016-.142-.031-.267-.047-.362v-.047l-.016-.047v-.047c-.016-.33-.078-1.163-.094-1.4a.407.407,0,0,1-.016-.11v-.016c-.031-.11-.251-.016-.283-.078a.05.05,0,0,1-.016-.032h-.031a.016.016,0,0,1-.016.016h-.015c-.016.016-.016-.016-.032,0l-.015-.016-.016.016c-.126.031-.22-.063-.377.094s-.016.566-.063.818c-.315,2.09-1.855,14.6-3.663,29.03-.2,1.7-.424,3.427-.644,5.171-1.116,8.944-2.263,18.233-3.254,25.935-.031.236-.078.456-.11.692l-3.41,18.138c0,.031-.016.079-.016.11-1.635,7.12-4.464,20.543-6.146,31.326-.236,1.54-.44,3.1-.613,4.652a.141.141,0,0,1-.016.079c-.785,3.458-1.508,6.586-2.2,9.462v.016c-4.7,19.584-7.718,26.547-15.812,35.176-2.829,3.018-18.61,3.647-23.483,5.847l-.361.157c-.11.032-.2.079-.267.1-15.262,6.79-31.593,13.014-47.374,6.271-3.694-1.572-5.6-4.1-6.114-7.419a28.337,28.337,0,0,1,.094-10.829c2.405-10.075,12.071-13.345,23.907-18.8,11.788-5.422,23.011-7.827,32.552-15.8a46.961,46.961,0,0,0,10.09-11.93,83.565,83.565,0,0,0,4.37-8.315c.11-.236.22-.487.33-.723,1.6-3.489,3.191-7.356,4.715-11.427.519-1.367,1.038-2.766,1.541-4.181v-.031c.22-.613.393-1.21.66-1.823v-.016a18.969,18.969,0,0,0,.833-2.452c1.116-4.055,2.436-11.364,3.882-20.638.708-4.668,1.462-9.855,2.217-15.34.487-3.537.99-7.2,1.477-10.971.377-2.892.77-5.832,1.147-8.818,2.107-16.394,4.2-33.762,6-48.694,2.4-19.915,4.306-35.459,5.092-38.462a17.485,17.485,0,0,1,.55-1.744,12.6,12.6,0,0,1,5.722-7,10.121,10.121,0,0,1,3.442-1.194c14.1-1.729,25.589,7.827,39.688,2.326,6.554-2.546,7.607-14,8.33-20.591,0-.062.016-.125.016-.188,0-.126.031-.2.047-.519s.063-1.619.094-2.059.047-.943.063-1.273c0-.314.016-.6.016-.77v-.236c-.016-2.169-.1-4.259-.205-6.381C158.322,343.3,176.1,341.913,178.252,341.3Z" fill="#31a9ba"/>
      <path d="M230.923,447.836c-3.348,20.7-6.381,59.445-14.209,82.975-.9,2.672-2.908,8.189-3.678,10.09-2.169,5.36-4.369,10.248-6.287,14.712-1.918,4.48-3.159,7.168-5.077,11.223-.031.047,0,.031-.016.063-3.693,9.242-6.02,18.72-10.892,27.522-7.089,5.03-17.164,9.415-25.212,10.751a32.83,32.83,0,0,1-18.578-1.776c-9.6-3.663-15.529-9.62-23.718-16-3.112-2.421-7.073-7.875-10.61-10.563-.016,0-.016,0-.016-.015a.046.046,0,0,0-.031-.016.05.05,0,0,0-.032-.016v-.015h-.031a.016.016,0,0,1-.016-.016.034.034,0,0,1-.031-.032c0-.015-.032-.015-.047-.015s-.016-.016-.032-.016-.015,0-.015-.016-.016,0-.016-.015,0-.016-.016-.016v-.016h-.015v-.11c0-.2.219-.456.3-.786,5.8-22.7,16.582-41.133,18.736-65.5,1.65-18.437-10.8-37.723-15.357-56.113a.425.425,0,0,1-.047-.188c-.188-.724-.346-1.446-.5-2.17a10.128,10.128,0,0,1-.3-1.65c-.016-.346-.126-.974-.189-1.43-.016-.142-.031-.267-.047-.362v-.047l-.016-.047v-.047a6.222,6.222,0,0,1-.409-1.6v-.032h-.047v.016h-.015c-.016.016-.016-.016-.032,0h-.031c-.032.031-.047.016-.079.031-.015,0-.031,0-.031.032a.13.13,0,0,0-.032.094c-.047.2-.173.314-.078.644.974,3.27-4.464,39.374-7.781,60.247-.031.236-.078.456-.11.692-1.1,6.915-1.949,12.039-2.232,13.548a1.267,1.267,0,0,0,.032-.283c-.11.189-.55,2.012-1.21,4.873,0,.031-.016.079-.016.11-1.635,7.12-4.464,20.543-6.146,31.326-.236,1.54-.44,3.1-.613,4.652a.141.141,0,0,1-.016.079c1.588,9.069.205,21.2-.031,23.7-1.556,16.5-14.948,25.149-23.168,28.151-6.822,2.483-13.6,3.757-18.138-.974a.633.633,0,0,1-.158-.362v-.016c-.958-3.788-.66-7.874,2.389-10.3-3.3,7.057,18.61,11.474,29.031-10.091,3.631-7.5,3.474-22.712,2.861-31.058a18.378,18.378,0,0,1,.3-4.731c1.226-6.13,2.279-11.019,3.772-16.991,5.847-23.31,10.578-43.633,13.643-68.216a.878.878,0,0,0,.016-.2c.015-.267.031-.377.031-.377.032-.566.047-1.336.079-2.358.188-7.78,2.012-37.126,5.155-48.993v-.047c.032-.126.063-.487.079-.487v-.079a76.312,76.312,0,0,1,10-26.327c.063-.11.142-.22.2-.33.078-.126.173-.252.235-.362a10.617,10.617,0,0,1,1.494-1.933,1.452,1.452,0,0,1,.157-.157c.031-.032.016-.047.063-.079,7.906-6.35,10.814-6.4,21.738-9.148,8.126-2.043,15.765-14.586,15.026-24.519a4.8,4.8,0,0,1,.047-.582,12.39,12.39,0,0,0,.346-2.7c0-.032.015-.063,0-.079s-.016,0-.016-.047a.489.489,0,0,0,.016-.189c.047-1.022.11-3.662.11-4.322v-.425c-.016-1.713-.063-3.238-.157-4.841-.016-.188-.032-.6-.032-.613.645-.078,30.571-4.684,30.6-3.992.251,6.036.346,11.458,1.006,16.567,1.273,9.572,4.542,18.044,14.617,27.239,4.134,3.772,12.858,6.837,18.28,18.641S234.271,427.12,230.923,447.836Z" fill="#e6e6e6"/>
      <path d="M148.98,442.517c-.712-1.839-2.035-3.423-2.629-5.34-3.064-9.9-.087-16.883,4.874-25.684.54-.957,1.418-2.3,2.134-3.443,3.839-6.136,7.823-12.421,11.7-18.592-6.179,14.745-17.2,26.434-17.251,43.068,4.174-8.261,9.136-14.888,16.7-20.323-7.357,7.421-12.374,14.642-14.855,24.975C149.289,438.686,149.279,440.892,148.98,442.517Z" fill="url(#i)"/>
      <path d="M201.859,438.182c-.7-1.029-1.946-2.77-2.523-3.727a168.423,168.423,0,0,1-12.067-24.906q5.867,9.385,11.876,18.65a80.348,80.348,0,0,0-4.573-40.632c6.808,15.315,8.595,29.457,7.676,46.213C202.187,434.9,201.989,436.957,201.859,438.182Z" fill="url(#j)"/>
      <path d="M124.466,396.439c-6.617-8.221-15.231-10.846-24.394-15.121a.726.726,0,0,1-.142-.094,12.6,12.6,0,0,1,5.722-7C115.13,379.165,122.407,385.515,124.466,396.439Z" fill="#3a4357"/>
      <path d="M94.292,421.434c1.7,2.56,4.276,7.986,7.176,8.7s2.618-3.665,2.5-5.118a25.005,25.005,0,0,0-7.663-16.557C95.56,412.792,94.816,417.023,94.292,421.434Z" fill="#3a4357"/>
      <path d="M97.417,454.28c1.591,1.749,4.9,4.938,7.152,4.935s1.385-3.645.981-4.558c-1.9-4.286-5.022-8.453-9.127-10.2C89.632,441.565,95.6,452.287,97.417,454.28Z" fill="#3a4357"/>
      <path d="M97.463,480.073c-.755,3.05-5.313,6.492-7.938,8.268a10.971,10.971,0,0,1-3.866,1.572c.487-3.537.99-7.2,1.477-10.971,1.9-1.006,3.489-2.248,5.973-2.059C94.681,477.008,98.217,477.04,97.463,480.073Z" fill="#3a4357"/>
      <path d="M95.3,509.676c1.146-.841,4.363-3.58,4.669-5.28s-2.218-1.892-3.107-1.674c-4.169,1.024-7.9,2.214-10.331,5.907C82.061,515.423,92.091,512.028,95.3,509.676Z" fill="#3a4357"/>
      <path d="M78.791,532.226c1.837,1.285,3.856,2.412,5.714,2.048s1.563-2.824,1.329-3.944a3.936,3.936,0,0,0-1.6-2.267c-1.792-1.589-3.523-1.265-5.239.044C77.681,529.105,77.909,531.609,78.791,532.226Z" fill="#3a4357"/>
      <path d="M79.637,546.6a1.356,1.356,0,0,0,.53.888c1.725,1.05,4.1,2.474,5.952,2.432s2.023-3.532,1.863-4c-.747-2.217-1.794-3.757-3.694-4.3C80.583,540.572,80.139,543.7,79.637,546.6Z" fill="#3a4357"/>
      <path d="M69.234,560.742c1.919.916,3.268.052,4.959-.627S75,556.536,74.7,556c-1.395-2.512-1.8-3.484-4.306-1.8S66.921,558.307,69.234,560.742Z" fill="#3a4357"/>
      <path d="M114.68,446.506c-.006-.008.009.044,0,.025s.008.025-.022-.039-.13-.032-.149.028-.021.008-.031.03-.007-.008-.016,0,0-.009-.015,0c-.027.023,0-.038-.051.011s-.117-.053-.151.149-.024.305-.072.651c-.751,5.41-1.2,9.677-1.574,15.558-.241,3.8-.644,9.671-.893,13.945-2.674-.275-3.768-2.383-5.224-5.356-2.7-5.518-7.6-14.383-7.3-21.2.492-11.545,6.813-21.556,12.671-30.972a.457.457,0,0,1,.021.226A152.264,152.264,0,0,0,114.68,446.506Z" fill="url(#k)"/>
      <path d="M180.772,488c-6.753-20.946-10.375-42.465-14.559-64.026,4.412,16.179,10.659,31.733,14.378,48.106,3.559-15.139,5.744-30.416,7.736-45.827C189.225,447.422,185.077,467.378,180.772,488Z" fill="url(#l)"/>
      <path d="M216.364,391.991c7.185-7.729,15.964-9.735,25.408-13.348a.721.721,0,0,0,.148-.084,12.593,12.593,0,0,0-5.209-7.383C226.906,375.424,219.2,381.241,216.364,391.991Z" fill="#3a4357"/>
      <path d="M244.521,409.914c1.146-.841,4.364-3.58,4.669-5.279s-2.218-1.893-3.107-1.675c-4.169,1.024-7.9,2.214-10.331,5.908C231.284,415.662,241.314,412.266,244.521,409.914Z" fill="#3a4357"/>
      <path d="M165.144,279.357l-.02-.258.839-.149.067.25c2.588,7.56,4,18.53,4,18.53l-.753.229S165.667,286.386,165.144,279.357Z" fill="#3a4357"/>
      <path d="M181.577,266.941c2.742,12.148-34.948,20.656-37.69,8.508A108.311,108.311,0,0,0,181.577,266.941Z" fill="#141414"/>
      <path d="M164.436,359.674a23.283,23.283,0,0,0-3.458-2.955,32.712,32.712,0,0,0-3.787-2.263c.015-.126.031-.267.047-.393.031-.377.063-1.729.094-2.153.047-.424.047-.927.063-1.273.016-.252.016-.535.016-.77a43.953,43.953,0,0,1,3.866,3.725C163.478,356.012,164.8,358.244,164.436,359.674Z" fill="#3a4357"/>
      <path d="M124.82,241.16c-10.215,4.787-22.342,15.476-33.973,17.557-7.125,1.275-17.864.714-24.281-1.781-14.6-5.664-32.458-7.945-39.245,6.168-.6,1.245-.909,5.186.434,5.506,3.937.94,20.286-15.148,38.1-8.278,8.108,3.127,21.31,6.473,28.737,4.208,9.671-2.95,12.656-5.055,20.163-11.827.938-.846,8.713-9.673,9.773-10.319,1.3-.79,2.905.451,3.734,1.178C128.062,242.766,126.133,240.544,124.82,241.16Z" fill="#3a4357"/>
      <ellipse cx="171.369" cy="303.834" rx="14.868" ry="10.913" transform="translate(-176.773 325.744) rotate(-64.177)" fill="#3a4357"/>
      <path d="M54.766,613.118c-.11.032-.748.227-.81.243-15.262,6.79-31.593,13.014-47.374,6.271-3.694-1.572-5.6-4.1-6.114-7.419a28.337,28.337,0,0,1,.094-10.829,6.26,6.26,0,0,0,1.147,3.143v.016c.016.016.032.016.032.031a6.162,6.162,0,0,1,.786,1.211c0,.016.015.031.015.047a5.485,5.485,0,0,1,.158,1.132,5.658,5.658,0,0,0,3.1,4.369,6.781,6.781,0,0,0,5.423.173,6.941,6.941,0,0,1,.959-.346,2.37,2.37,0,0,1,.581-.031,1.85,1.85,0,0,1,.692.267c.141.063.091-.134,0,0-.826,1.206.613,2.869,4.64,3.163,9.5.7,34.466-5.725,36.258-6.055a3.188,3.188,0,0,1,.675-.079A18.766,18.766,0,0,1,54.766,613.118Z" fill="#e6e6e6"/>
      <path d="M45.106,591.539c-14.957,4.516-32.456,7.116-34.85,25.943C16.436,600.269,29.69,596.967,45.106,591.539Z" fill="#3a4357"/>
      <path d="M43.011,582.108c-12.748,4-42.276,13.329-42.2,28.919C3.918,597.141,30.684,586.758,43.011,582.108Z" fill="#3a4357"/>
      <path d="M78.261,587.446c-12.748,4-23.169,9.676-24.334,22.675C57.716,597.759,65.934,592.1,78.261,587.446Z" fill="#3a4357"/>
      <ellipse cx="241.409" cy="177.33" rx="5.433" ry="8.259" transform="translate(18.559 377.487) rotate(-78.229)" fill="#3a4357"/>
      <ellipse cx="261.259" cy="192.968" rx="4.016" ry="5.538" transform="translate(32.824 423.858) rotate(-81.756)" fill="#3a4357"/>
      <path d="M192.776,355.1a63.636,63.636,0,0,1-15.2,2.121c-.676.016-1.368.032-2.059.032a67.947,67.947,0,0,1-14.618-1.509c-1.32-.283-2.593-.613-3.788-.975,0-.062.016-.125.016-.188,0-.126.031-.2.047-.519s.063-1.619.094-2.059.047-.943.063-1.273c0-.314.016-.6.016-.77v-.236c-.016-2.169-.1-4.259-.205-6.381,1.352-.048,2.688-.126,4.056-.2,5.485-.346,11.144-.927,17.053-1.839.5-.078,1.006-.157,1.525-.235.142-.016.283-.048.44-.079h.047c1.368-.22,2.861-.5,4.433-.833,2.216-.44,4.589-.99,7.073-1.619C192.021,344.57,192.116,349.992,192.776,355.1Z" opacity="0.28" fill="url(#m)"/>
    </g>
    <g>
      <path d="M269.212,362.975c-1.934,17.007-6.6,18.437-11.317,24.6-3.694,4.825-3.112,17.572-1.478,30.822.205,1.714.44,3.427.676,5.14,1.132,8.158,2.484,16.142,3.317,22.209.393,2.845.66,5.266.723,7.089.015.346.031.708.047,1.053.644,12.465,3.489,24.913-1.32,36.4a12.613,12.613,0,0,1-.928,1.76,16.354,16.354,0,0,1-4.872,4.873,13.375,13.375,0,0,1-4.92,2.012c-2.515-6.287-5.5-11.631-8.315-17.353-1.1-2.232-2.169-4.527-3.159-6.947.754-1.792,1.21-5.941,1.65-9.918v-.063a56.015,56.015,0,0,1,1.226-8.346,59.634,59.634,0,0,0,1.619-9.085,1.722,1.722,0,0,0,.032-.267c1.383-11.333,2.326-30.54-.8-48.773v-.063a139.725,139.725,0,0,0-2.263-14.539c-.472-2.012-4.323-9.6-7.875-15.419l34.186-22.775,5.879-3.914C268.3,348.2,270.045,355.651,269.212,362.975Z" fill="#31a9ba"/>
      <path d="M217.761,170.312A53.834,53.834,0,1,0,271.6,224.145,53.825,53.825,0,0,0,217.761,170.312Zm0,101.773a47.94,47.94,0,1,1,47.939-47.94A47.95,47.95,0,0,1,217.761,272.085Z" fill="#f2f2f2"/>
      <path d="M271.585,222.866c-.016-.943-.063-1.886-.141-2.813-.1-1.305-.252-2.594-.44-3.883q-.189-1.272-.425-2.546-.212-1.06-.471-2.122a51.134,51.134,0,0,0-1.886-6.177,52.991,52.991,0,0,0-2.468-5.611,52.391,52.391,0,0,0-3.16-5.391,53.84,53.84,0,0,0-97.67,40.112v.015c.3,1.541.66,3.05,1.084,4.543a53.844,53.844,0,0,0,95.345,16.739,50.88,50.88,0,0,0,4.306-7.026c.252-.471.488-.943.708-1.43a50.787,50.787,0,0,0,3.112-8.126,53.8,53.8,0,0,0,2.122-15.011C271.6,223.715,271.6,223.291,271.585,222.866Zm-11.034,9.085A43.332,43.332,0,0,1,250.3,253c-.2.236-.409.456-.644.692a43.484,43.484,0,0,1-38.3,13.486h-.015c-1.258-.189-2.484-.425-3.694-.723a43.586,43.586,0,0,1-28.67-22.618c-.314-.613-.612-1.242-.911-1.871a41.228,41.228,0,0,1-1.886-5.061c-.063-.188-.11-.393-.173-.581-.047-.157-.095-.315-.126-.472a37.682,37.682,0,0,1-1.006-4.417c-.078-.424-.141-.848-.188-1.288a42.016,42.016,0,0,1-.425-6c0-.864.032-1.713.079-2.546a43.5,43.5,0,0,1,43.428-40.945c1.006,0,2.012.031,3,.11a43.175,43.175,0,0,1,17.856,5.218,43.577,43.577,0,0,1,14.382,12.669s0,.016.015.016a42.674,42.674,0,0,1,3.977,6.7c.251.5.487,1.021.707,1.54.519,1.179.975,2.405,1.383,3.646a43.365,43.365,0,0,1,1.714,7.341,41.207,41.207,0,0,1,.44,5.768c.016.157.016.33.016.487,0,.6-.016,1.211-.048,1.808-.015.267-.031.55-.047.817A39.8,39.8,0,0,1,260.551,231.951Z" fill="#999"/>
      <path d="M217.761,176.206A47.94,47.94,0,1,0,265.7,224.145,47.932,47.932,0,0,0,217.761,176.206Z" opacity="0.21" fill="url(#n)"/>
      <path d="M260.583,372.8c-1.635,5.69-6.24,9.509-12.323,7.466-3.348,2.263,2.3,47.782,1.619,61.928-.582,11.757-3.867,31.09-9.054,39.389a9.356,9.356,0,0,1-3.411,3.568c-1.194-6.193-1.029-18.264-.288-25.379,3.733-35.8,2.432-71.912.917-75.053-.9-1.861-3.238-10.74-6.79-16.556a57.566,57.566,0,0,0-3.316-4.92c-13.078-16.959,2.546-23.781,6.475-53.9,1.163-8.975,15.577,21.156,22.461,25.824,5.533,3.741,7.576,6.3,8.566,10.217.613,2.468-1.151,2.469-.774,6.649C265.294,358.984,263.286,363.463,260.583,372.8Z" fill="#e6e6e6"/>
      <path d="M254.36,327.047c11.425,29.677,9.4,55.349,4.466,56.5s-19.968-22.248-21.992-53.986-9.053-57-4.117-58.148S242.976,297.479,254.36,327.047Z" fill="#b3b3b3"/>
      <path d="M234.878,311.837c-2.276-1.949-5.192-3.356-7.77-2.55-2.111.661-3.6,2.7-4.435,4.963a41.186,41.186,0,0,0-1.53,7.2,37.511,37.511,0,0,1-2.4,9.272,50.329,50.329,0,0,0-3.908,12.872c-.9,5.625,4.112,13.789,7.466,17.518,1.7,1.9,11.673,14.4,13.342,16.819,2.013,2.914-4.338-26.844,5.612-35.663a10.98,10.98,0,0,0,3.981-8.295,25.721,25.721,0,0,0-1.712-8.264C241.673,320.446,238.936,315.313,234.878,311.837Z" fill="#31a9ba"/>
      <path d="M244.179,326.836a49.559,49.559,0,0,0-4.248-7.139l-4.092-6.077A17.314,17.314,0,0,0,232.892,310a5.824,5.824,0,0,0-4.287-1.54,2.456,2.456,0,0,0-1.488.623,3.083,3.083,0,0,0-.647,2.288c.084,4.364,2.086,8.445,2.915,12.73a24.158,24.158,0,0,1-2.528,16.086c-1.161,2.111-2.657,4.082-3.313,6.4a17.543,17.543,0,0,0-.124,7.016,16.832,16.832,0,0,0,.957,4.237,18.35,18.35,0,0,0,2.412,3.894,120.484,120.484,0,0,1,8.127,12.857,29.108,29.108,0,0,1,1.069,4.3c.955-2.66,2.807-31.668,4.042-34.21C243.189,338.166,247.162,333.432,244.179,326.836Z" fill="#e6e6e6"/>
      <path d="M234.878,311.837c-2.276-1.949-5.192-3.356-7.77-2.55-2.111.661-3.6,2.7-4.435,4.963a41.186,41.186,0,0,0-1.53,7.2,37.511,37.511,0,0,1-2.4,9.272,50.329,50.329,0,0,0-3.908,12.872c-.9,5.625,3.16,11.326,12.889,6.805,7.316-3.4,3.265-3.733,10.582-8.928,2.276-1.616,3.582-8.251,2.639-10.927C239.1,325.281,238.936,315.313,234.878,311.837Z" opacity="0.22" fill="url(#o)"/>
      <path d="M260.583,322.627a17.753,17.753,0,0,1-1.2,2.044,22.948,22.948,0,0,1-16.928,9.509,12.6,12.6,0,0,1-3.1-.188c-4.653-.8-8.331-4.166-8.85-11.144a27.927,27.927,0,0,1,2.2-11.286c3.191-8.346,9.478-16.818,16.425-16.975,5.69-.142,10.531,4.605,12.574,9.918A22.433,22.433,0,0,1,260.583,322.627Z" fill="#31a9ba"/>
      <path d="M268.583,344.1a16.455,16.455,0,0,1-9.525,3.474,51.287,51.287,0,0,1-10.39-.755c-.974-.188-1.949-.393-2.876-.66-4.857-1.352-8.77-3.835-8-8.236a10.9,10.9,0,0,1,1.572-3.929,17.233,17.233,0,0,1,3.819-4.071c4.951-3.946,12.134-6.35,16.834-7.2l.566-.095C278.5,319.735,278.312,336.585,268.583,344.1Z" fill="#31a9ba"/>
      <path d="M268.033,358.008c-3.678,1.588-7.906,1.1-11.8.22a24.462,24.462,0,0,1-6.492-2.263,10.929,10.929,0,0,1-3.772-3.364c-1.336-2.892-1.289-4.982-.173-6.444.912-1.242,2.578-2.027,4.778-2.42.283-.063.582-.1.881-.142a27.354,27.354,0,0,1,3.552-.55c1.776-.016,3.536-.016,5.312-.016a23.843,23.843,0,0,1,7.309.723,10.023,10.023,0,0,1,.959.346,7.784,7.784,0,0,1,4.464,4.26C274.461,352.1,271.711,356.421,268.033,358.008Z" fill="#31a9ba"/>
      <path d="M260.583,322.627a40.311,40.311,0,0,0-18.4,8.139C246.3,327.866,255.161,323.631,260.583,322.627Z" fill="#3a4357"/>
      <path d="M251.419,355.949c-.566.016-1.116.032-1.682.016a10.929,10.929,0,0,1-3.772-3.364c-1.336-2.892-1.289-4.982-.173-6.444-4.857-1.352-8.77-3.835-8-8.236a10.9,10.9,0,0,1,1.572-3.929c-4.653-.8-8.331-4.166-8.85-11.144a27.927,27.927,0,0,1,2.2-11.286c.236-.22.134-.861.385-.971-.974,5.422-1.082,11.878,2.455,16.462,3.342,4.333,8.975,1.956,9.7,1.893a21.105,21.105,0,0,0-3.28,3.641c-5.141,7.073,1.993,12.089,8.972,12.084a3.034,3.034,0,0,0-2.277,2.146,7.114,7.114,0,0,0-.5,2.845A7.951,7.951,0,0,0,251.419,355.949Z" fill="#e6e6e6"/>
      <path d="M271.318,341.473c-5.756,3.544-14.665,3.192-20.373,3.2C255.968,344.306,266.487,344.132,271.318,341.473Z" fill="#3a4357"/>
      <path d="M257.093,423.536a1.577,1.577,0,0,1-.959.55c-1.854.378-3.882-.754-5.721-2.043-.88-.613-1.1-3.128.2-4.118,1.714-1.305,3.443-1.635,5.235-.047.2.173.393.345.565.518C256.622,420.11,256.857,421.823,257.093,423.536Z" fill="#3a4357"/>
      <path d="M261.18,453.887a20.759,20.759,0,0,1-4.26-2.137c-.2-.126-.581-.645-.534-.9.471-2.719.9-5.643,4.024-5.109.393,2.845.66,5.266.723,7.089C261.148,453.18,261.164,453.542,261.18,453.887Z" fill="#3a4357"/>
      <path d="M254.98,476.492c1.92.916,3.269.052,4.959-.626s.807-3.58.509-4.116c-1.395-2.511-1.8-3.484-4.307-1.8S252.668,474.057,254.98,476.492Z" fill="#3a4357"/>
      <path d="M258.932,492.05a16.354,16.354,0,0,1-4.872,4.873c-2.3-3.474-5.769-10.908.015-8.441A14.394,14.394,0,0,1,258.932,492.05Z" fill="#3a4357"/>
    </g>
  </g>
</svg>
