<svg version="1.1" xmlns="http://www.w3.org/2000/svg" viewBox="0 0 1158.1089736175259 873" width="1158.1089736175259" height="873">
  <!-- svg-source:excalidraw -->
  
  <defs>
    <style>
      @font-face {
        font-family: "Virgil";
        src: url("https://excalidraw.com/Virgil.woff2");
      }
      @font-face {
        font-family: "Cascadia";
        src: url("https://excalidraw.com/Cascadia.woff2");
      }
    </style>
  </defs>
  <rect x="0" y="0" width="1158.1089736175259" height="873" fill="#ffffff"></rect><g stroke-linecap="round" transform="translate(219.10897361752592 10) rotate(0 464.5 426.5)"><path d="M101.51 159.79 C101.51 159.79, 101.51 159.79, 101.51 159.79 M101.51 159.79 C101.51 159.79, 101.51 159.79, 101.51 159.79 M75.12 194.64 C93.24 180.82, 101.41 161.02, 132.14 130.69 M79.36 191.64 C93.99 175.05, 113.06 153.72, 130.43 131.7 M58.61 226.55 C86.63 194.42, 115.03 158.29, 160.04 108.16 M56.44 223.42 C83.71 193.16, 110.05 161.26, 157.82 106.83 M49.5 238.65 C78.25 208.56, 106.14 177.69, 161.18 107.75 M51.56 234.4 C87.39 194.56, 124.71 147.51, 163.28 106.83 M44.2 250.83 C75.62 213.23, 101.21 179.87, 180.45 100.33 M44.83 250.33 C84.55 202.43, 123.32 159.72, 175.75 96 M41.67 259.03 C80.06 209.57, 124.71 161.26, 191.81 86.93 M40.51 261.82 C85.17 210.98, 126.31 165.2, 190.06 87.72 M32.25 274.03 C92.64 203.49, 150.62 138.44, 206.6 80.88 M32.97 275.7 C70.61 235.53, 103.99 195.58, 204.62 80.25 M25.51 287.34 C105.6 200.71, 179.08 117.82, 219.8 72.41 M26.82 285.96 C81.11 226.57, 134.24 168.02, 218.43 69.26 M21.45 296.11 C89.6 217.36, 158.48 140.84, 233.95 56.12 M24.03 298.36 C72.27 240.34, 120.02 182.97, 231.4 58.47 M20.27 305.91 C67.05 258.3, 108.15 207.84, 237.54 57.72 M21.98 307.37 C99.93 216.65, 181.67 120.74, 239.94 54.44 M18.1 314.9 C73.11 258.02, 123.47 198.86, 250.04 52.18 M19.79 317.04 C102.15 220.09, 183.72 128.07, 249.41 50.41 M18.07 325.08 C79.43 253.23, 140.47 181.14, 257.09 46.94 M16.58 323.86 C66.31 269.91, 116.32 213.14, 257.84 48.42 M14.06 334.07 C106.87 227.96, 200.07 120.63, 268.01 43.64 M15.11 333.44 C111.11 226.84, 204.61 117.15, 265.97 44.68 M10.11 342.46 C102.53 235.7, 193.72 132.95, 274.57 40.62 M11.78 342.28 C94 243.96, 177.62 150.15, 273.85 40.12 M11.65 347.82 C86.53 264.16, 159.96 182.6, 282.35 37.71 M10.35 350.46 C92.68 257.71, 174.27 164.27, 283.18 36.98 M9.54 358.21 C114.53 236.32, 224.69 112.87, 291.95 31.57 M7.45 359.3 C77.23 278.15, 147.18 199.36, 290.97 33.09 M7.74 365.77 C93.95 267.5, 180.04 170.48, 301.73 27.74 M6.26 367.65 C108.24 247.32, 212.06 129.98, 300.68 28.18 M4.05 375.33 C88.26 278.46, 171.53 182.4, 308.33 24.81 M4.71 375.05 C79.1 289.7, 153.81 201.96, 309.1 25.59 M4.25 379.3 C67.3 304.65, 129.72 233.83, 316.09 22.2 M5.61 381.42 C99.64 272.12, 194.02 164.93, 315.57 23.36 M4.46 387.13 C96.4 281.54, 187.68 176.31, 323.62 21.29 M5.13 386.58 C118.34 254.6, 232.75 123.03, 322.86 20.93 M4.56 394.79 C76.04 312.22, 144.59 228.59, 328.12 20.79 M5.22 393.38 C68.29 317.42, 133.88 241.86, 328.63 21.15 M3.27 398.63 C98.38 291.53, 194.9 184.86, 335.57 19.92 M4.06 399.55 C116.99 271, 227.61 143.77, 334.36 18.84 M2.34 407.43 C119.37 278.11, 235.02 146.09, 341.05 19.16 M3.39 406.77 C83 319, 162.36 229.2, 340.74 18.34 M2.82 411.58 C96.19 303.9, 194.21 194.07, 346.94 16.04 M3.51 412.2 C110.56 286.34, 221.06 159.88, 347.55 16.9 M2.92 418.14 C86.14 323.05, 168.95 230.37, 352.6 16.08 M3.98 418.63 C81.75 326.21, 160.69 234.78, 353.53 15.74 M3.82 426.63 C102.76 312.11, 201.42 198.84, 358.63 13.42 M3.49 424.61 C133.06 272.9, 263.97 122.88, 360.19 14.15 M4.38 431.92 C133.16 282.36, 264.56 131.45, 366.36 14.48 M2.17 431.33 C142.24 270.21, 280.49 110.96, 366.96 14.05 M3.74 438.43 C88.38 340.89, 174.52 241.43, 372.45 12.19 M3.02 437.62 C123.14 300.47, 244.66 161.19, 371.82 12.43 M2.42 443.81 C85.34 347.18, 169 252.79, 377.96 12.88 M3.01 445.22 C124.69 304.39, 250.13 159.68, 379.2 10.78 M1.71 449.99 C117.84 314.14, 238.33 178.51, 386.22 10.46 M2.52 450.52 C142.54 295.66, 279.6 137.24, 384.62 10.75 M2.88 454.9 C127.79 311.04, 249.06 171.54, 393.29 9.41 M2.6 456.38 C105.2 336.9, 211.78 215.09, 392.86 8.32 M2.03 462.43 C164.4 281.74, 320.58 100.75, 398.59 9.09 M3.36 461.12 C89.99 363.87, 173.99 267.85, 397.72 7.75 M4.08 464.92 C89.7 372.2, 177 273.25, 403.8 7.94 M4.88 465.94 C101.49 355.73, 201.24 241.81, 403.84 8.04 M4.17 469.83 C93.36 372.52, 180.09 272.57, 409.34 8.46 M5.01 471.03 C149.57 308.7, 291.24 145.99, 408.35 7.19 M6.72 477.97 C110.53 360.3, 211.4 244.2, 415.14 7.47 M6.79 477.07 C111.45 360.74, 214.92 241.72, 414.86 6.82 M7.6 482.63 C92.08 387.79, 176.62 289.26, 421.69 5.47 M7.53 481.07 C102.59 375.04, 196.56 267.05, 419.74 6.24 M7.27 486.63 C106.53 377.26, 201.43 263.58, 426.25 4.79 M8.34 486.23 C145.19 322.6, 285.29 160.53, 426.41 5.44 M9.65 491.04 C98.59 388.77, 188.48 282.12, 430.35 6.13 M8.6 492.25 C99.6 388.97, 187.32 289.06, 431.59 5.56 M9.05 496.5 C165.05 320.17, 316.35 146.58, 436.04 6.7 M10.18 497.35 C139.32 353.76, 264.7 208, 437.99 5.48 M11.45 501.46 C118.3 375.52, 222.04 253.22, 443.7 3.21 M10.26 501.4 C118.74 376.53, 226.19 252.76, 442.2 5.46 M12.42 506.55 C133.08 370.1, 254.08 234.59, 448.31 5.97 M10.96 507.76 C173.99 317.13, 339.92 126.66, 448.91 3.73 M11.98 512.84 C140.08 358.77, 272.33 208.75, 453.3 3.47 M12.16 511.98 C109.07 403.05, 206.52 291.78, 454.04 3.42 M14.36 516.75 C111.07 401.12, 209.09 288.63, 460.43 2.12 M12.51 518.23 C188.77 316.94, 364.48 115.18, 460.62 4.22 M14.03 521.14 C146.94 362.21, 284.54 204.05, 464.37 3.63 M13.52 521.64 C182.72 324.7, 353.67 128.59, 465 2.97 M15.27 526.81 C155.36 365.09, 294.16 202.17, 471.42 3.08 M14.66 527.72 C187.36 328.4, 362.7 126.98, 471.2 2.95 M14.36 531.6 C114.01 417.05, 215.95 303.29, 479.44 0.08 M15.29 532.21 C155.25 371.31, 293.07 211.23, 478.44 0.12 M16.05 536.68 C118.07 427.32, 213.4 315.73, 483.54 1.14 M17.86 537.84 C186.2 344.07, 357.07 148.76, 482.49 1.57 M17.49 541.95 C170.06 367.81, 322.2 194.38, 486.38 1.98 M18.75 541.6 C178.35 354.53, 341.67 166.69, 487.21 2.1 M20.34 546.84 C151.97 396.93, 280.74 245.54, 492.92 1.66 M21.52 545.99 C207.21 333.52, 391.31 121.73, 493.23 3.22 M22.42 550.02 C170.88 375.2, 325.34 197.63, 496.81 3.45 M22.63 549.07 C210.3 333.89, 395.48 119.47, 496.87 3.53 M25.22 552.34 C143.12 418.59, 257.47 285.49, 501.59 4.17 M23.39 552.98 C148.79 404.27, 275.51 258.97, 502.14 4.06 M26.93 558.16 C143.61 428.76, 257.69 298.07, 508.97 3.49 M26.59 557.24 C174.18 391.26, 320.39 221.69, 507 3.93 M26.7 562.31 C170.04 392.78, 318.1 224.81, 511.85 5.3 M27.56 562.51 C148.32 420.01, 270.41 279.61, 512.85 4.95 M29.8 568.22 C180.36 383.43, 335.29 204.46, 517.13 5.43 M27.84 566.27 C149.97 419.91, 277.21 273.97, 516.54 4.84 M28.94 571.81 C140.53 440.46, 254.84 309.07, 522.19 5.97 M30.43 571.49 C211.38 370.8, 388.49 167.75, 522.49 5.15 M31.77 573.79 C202.56 382.34, 370.25 191.05, 527.98 6.75 M32.55 574.9 C147.29 440.6, 259.94 310.16, 526.6 6.73 M32.53 579.59 C171.39 420.36, 310.72 261.28, 531.5 6.86 M33.75 578.92 C161.57 431.69, 287.42 286.55, 531.57 6.42 M36.46 582.28 C184.41 409.68, 332.7 235.99, 535.82 5.16 M35.1 584.12 C183.74 418.26, 329.23 250.08, 537.3 6.36 M38.47 587.88 C170.19 439.52, 300.42 287.24, 543.1 8.04 M36.69 588.13 C216.02 386.25, 390.76 186.07, 542.4 7.25 M38.56 591.14 C196.89 409.01, 354.53 227.97, 546.06 6.77 M39.11 591.79 C201.31 402.6, 365.35 213.12, 546.42 7.34 M39.67 594.49 C178.35 439.79, 319.32 279.69, 552.36 8.39 M40.88 596.47 C191.79 415.68, 347.33 236.53, 550.7 9.29 M40.78 599.78 C210.77 410.6, 375.52 218.72, 556.28 10.05 M41.59 600.59 C202.58 419.87, 358.35 240.26, 555.25 9.67 M44.28 604.82 C246.76 373.04, 441.43 148.16, 559.84 8.09 M44.12 603.33 C221.67 399, 399.41 192.99, 561.12 9.59 M45.87 607.98 C250.1 369.79, 457.22 132.71, 565.54 12.28 M44.95 607.59 C160.94 478.65, 273.39 350.48, 564.35 10.57 M49.08 610.31 C223.21 418.1, 391.91 223, 570.18 13.82 M48.27 611.74 C228.31 405.63, 404.43 204.05, 569.38 12.89 M49.91 616 C166.2 480.42, 285.18 343.27, 572.76 14.34 M51.09 614.79 C223.13 408.81, 398.85 205.63, 572.69 13.35 M52.68 617.09 C175.16 485.35, 295.44 347.6, 576.63 14.56 M52.3 617.89 C213.32 435.64, 371.61 252.99, 576.38 14.71 M55.33 621.85 C177.91 485.76, 294.93 349.97, 582.81 15.02 M54.42 622.35 C236.74 411.82, 425.27 195.73, 581.33 16.02 M56.35 626 C198.09 465.23, 341.18 302.8, 585.57 18.76 M57.28 625.53 C224.01 433.01, 388.69 242.88, 586.28 16.85 M59.85 628.13 C184.71 486.68, 305.19 349.39, 588.91 18.42 M58.8 629.9 C196.96 476.5, 333.1 321.41, 589.51 17.96 M60.04 632.84 C176.22 500.03, 287.48 374.7, 595.7 20.76 M61.46 632.56 C269.53 390.9, 478.2 150.54, 594.53 20.25 M61.8 637.63 C279.51 393.48, 491.2 145.99, 598.52 21.61 M62.88 636.07 C179.25 496.48, 298.98 359.17, 597.21 21.16 M65.1 639.19 C217.67 461.81, 369.91 284.99, 600.91 23.3 M65.49 639.53 C183.86 508.46, 298.86 375.31, 602.75 22.66 M66.97 642.51 C240.12 446.16, 410.74 251.44, 608.12 23.04 M67.71 642.89 C256.27 429.85, 443.89 215.19, 606.4 23.42 M70.86 648.75 C233.19 461.14, 398.98 274.79, 609.92 23.98 M69.75 648.35 C178.91 516.74, 290.44 386.61, 610.34 25.19 M72.13 651.12 C227.77 467.12, 383.92 284.43, 616.27 26.18 M72.3 651.45 C250.79 445.76, 424.72 245.16, 615.72 26.01 M74.28 655.19 C267.55 437.27, 457.35 218.78, 618.29 27.9 M74.82 654.12 C207.43 501.08, 343.25 345.62, 619.31 26.4 M78.31 657.97 C214.67 503.4, 352.1 346.72, 623.93 29.31 M76.48 658.19 C253.5 450.74, 435.1 242.61, 623.15 29 M79.18 662.01 C222.46 493.18, 370.89 322.67, 628 30.87 M78.69 662.62 C285.05 427.94, 487.7 193.93, 627.44 30.49 M80.75 664.14 C221.56 509.21, 359.78 350.44, 631.68 31.17 M81.23 665.02 C284.51 423.63, 492.16 185.37, 632.06 31.43 M83.23 669.3 C303.63 413.6, 524.83 157.23, 635.03 31.67 M83.77 668.25 C222.48 511.28, 362.1 351.14, 635.9 33 M85.32 672.9 C291.27 437.23, 494.95 202.02, 640.54 33.99 M85.16 672.41 C275.84 449.14, 467.46 227.97, 640.03 33.41 M87.75 674.14 C217.2 521.99, 348.98 368.99, 646.88 34.13 M88.28 676.05 C266.96 463.7, 450.72 252.64, 645.09 33.37 M90.21 676.58 C207.51 548.64, 324.27 418.44, 649.82 35.58 M90.94 678.38 C285.04 458.15, 474.96 238.97, 648.66 35.51 M93 681.32 C299.98 452.9, 502.57 218, 654.04 37.48 M93.55 681.2 C255.04 498.5, 413.28 317.03, 652.62 37.32 M97.8 683.06 C311.76 435.52, 527.78 187.18, 656.73 39.65 M95.58 683.31 C292.98 450.65, 491.77 221.2, 656.06 40.2 M97.15 688.69 C275.05 479.23, 454.89 274.09, 661.21 42.45 M98.98 687.16 C293.69 462.59, 491.78 235.2, 659.65 41.24 M101.51 690.21 C252.33 521.66, 395.76 353.4, 665.14 43.28 M102.13 689.23 C327.45 431.6, 550.2 175.58, 664.73 43.36 M103.07 692.92 C291.23 473.16, 478.31 259.85, 666.37 44.39 M104.82 693.08 C227.39 548.02, 353.41 403.32, 668.38 45.44 M106.03 694.71 C330.6 439.61, 552.28 184.19, 670.43 46.21 M107.02 696.58 C308.93 468.73, 508.43 240.98, 672.06 47.62 M110.28 697.52 C334.89 446.46, 555.28 193.53, 673.92 48.66 M109.75 699.35 C299.02 482.63, 488.13 263.9, 675.16 49.43 M112.83 703.19 C270.45 517.12, 428.45 335.47, 678.4 50.96 M112.09 701.82 C305.93 482.92, 496.01 264.28, 678.81 50.36 M113.99 704.61 C331.55 459.39, 541.93 218.03, 683.45 52.96 M115.47 705.06 C327.58 450.92, 544.96 201.19, 682.58 52.73 M118.64 708.27 C252.62 548.34, 391.32 387.12, 684.49 54.85 M117.34 707.83 C316.87 477.97, 514.48 251.06, 686.74 54.23 M120.17 712.05 C296.77 507.71, 474.22 301.05, 688.23 55.38 M120.26 710.63 C237.46 573.93, 354.16 439.64, 688.97 55.67 M123.4 712.54 C303.28 498.11, 490.97 285.06, 694.55 57.94 M123.38 713.49 C349.69 451.83, 574.66 193.2, 693 58.27 M125.38 718.01 C314 500.34, 504.03 281.74, 695.92 59.18 M126.71 716.84 C293.84 524.83, 462.77 330.46, 697.28 60.2 M128.68 720.55 C353.69 465.3, 571.5 213, 700.86 61.49 M128.99 719.29 C351.44 462.83, 570.55 210.51, 700.51 61.92 M131.8 721.84 C307.99 516.65, 488.52 309.17, 704.61 64.81 M132 723.29 C303.98 523.88, 478.24 324.47, 704.64 64.28 M133.53 723.7 C260.5 584.06, 385.28 439.53, 709.33 66.33 M134.21 725.78 C266.36 574.4, 395.4 425.82, 707.6 65.86 M136.04 728.86 C264.63 574.06, 396.09 423.7, 710.81 68.28 M136.69 729.21 C325 516.12, 510.26 303.16, 711.15 67.48 M139.85 730.4 C273.5 580.85, 402.82 430.65, 715.48 68.05 M140.09 731.01 C331.1 512.66, 519.05 295.55, 715.17 69.55 M143.52 735.99 C256.39 597.3, 374.27 462.27, 720.67 72.37 M142.35 734.22 C256.85 601.59, 373.96 466.54, 719.12 71.78 M145.8 736.84 C351.53 502.57, 555.36 268.63, 721.42 75.38 M146.08 737.19 C324.22 536.06, 497.93 335.89, 722.06 74.45 M149.02 738.18 C293.8 572.77, 441.56 401.5, 725.31 76.2 M148.83 739.25 C294.12 577.68, 434.45 416.09, 725.17 75.13 M152.38 740.23 C356.39 507.86, 561.89 268.39, 729.77 77.53 M152.68 742.43 C304.59 567.31, 456.25 391.66, 729.41 77.7 M156.7 744.2 C363.87 501.56, 573.96 260.35, 732.51 81.72 M155.95 743.86 C323.27 547.12, 494.75 349.63, 731.99 80.35 M158.75 746.26 C340.75 536.73, 523.45 326.3, 736.96 83.22 M159.06 745.72 C350.85 523.41, 540.69 303.96, 736.29 83.22 M162.62 748.82 C383.84 496.16, 607.61 240.57, 737 84.93 M161.17 748.07 C316.28 565.81, 472.15 388.17, 738.55 85.54 M164.37 751.3 C366.07 523.04, 563.24 297.89, 741.79 86.34 M166.08 750.8 C344.21 540.56, 525.94 331.88, 742.75 87.33 M167.2 752.15 C373.08 520.2, 575.35 288.83, 744.37 90.87 M168.12 753.26 C290.04 616.02, 412.23 474.65, 745.64 90.3 M171.93 755.29 C316.76 583.58, 463.7 412.56, 749.69 93.94 M171.98 755.81 C311.9 601.23, 447.55 445.27, 748.39 93.13 M176.16 759.3 C386.88 521.35, 594.87 283.62, 752.89 93 M175.43 757.86 C306.75 604.59, 441.65 449.13, 751.31 95.06 M178.1 761.08 C361.85 554.18, 544.84 345.06, 754.43 95.94 M178.37 759.82 C300.27 619.92, 422.38 479.85, 754.15 97.06 M181.61 763.79 C348.03 571.05, 516.45 375.39, 757 98.72 M181.12 762.33 C402.82 504.55, 628.71 245.01, 758.31 100.25 M184.02 764.56 C358.21 567.01, 526.1 373.82, 761.46 100.14 M185.47 765.01 C398.42 521.41, 612.91 275.37, 762.38 102.25 M188.08 766.03 C365.41 563.84, 536.56 366.69, 764.32 105.53 M188.59 767.68 C412.86 501.73, 640.98 239.2, 764.79 104.02 M192.46 770.01 C414.49 509.62, 638.12 249.36, 769.07 105.89 M191.67 770.34 C382.01 551.96, 571.57 334.52, 768.45 107.42 M194.13 773.08 C374.39 575.76, 546.69 373.45, 770.94 107.18 M195.42 772.79 C369.75 572.39, 545.84 370.24, 770.67 109.21 M198.56 773.41 C390.63 557.81, 580.77 340.14, 775.12 109.86 M197.95 774.95 C379.54 571.58, 560.52 364.68, 774.65 111.85 M199.17 778.77 C368.73 578.86, 541.69 378.69, 778.43 114.62 M201.01 777.75 C338.24 620.63, 474.48 463.36, 777.95 113.13 M203.54 778.17 C349.71 611.31, 497.25 439.32, 781.12 115.35 M204.69 778.64 C343.86 610.07, 488.18 445.4, 780.72 115.91 M206.98 782.24 C358.28 611.72, 505.95 441.67, 784.52 117.56 M207.71 782.41 C350.82 614.98, 495.98 447.01, 783.76 117.82 M211.84 784.89 C346.57 619.65, 487.35 460.42, 786.89 121.28 M209.65 785.21 C363.62 610.49, 515.57 433.56, 787.22 120.41 M213.83 787.67 C339.01 635.43, 468.61 485.48, 789.89 122.15 M214.47 786.89 C367.36 602.93, 522.42 424.23, 789.49 123.87 M219.34 786.71 C436.42 542.18, 653.2 290.96, 793.35 126.07 M217.82 787.48 C439.73 532.29, 664.8 273.54, 792.8 126.47 M223.54 788.56 C351.61 646.33, 473.83 503.72, 794.58 129.28 M221.61 789.46 C419.93 556.31, 623.44 322.43, 796.52 128.6 M225.73 789.78 C392.13 605.19, 550.38 419.42, 798.46 131.09 M225.74 791.68 C368.56 620.98, 514.96 452.47, 798.91 131.85 M227.91 794.54 C417.56 581.52, 604.2 366.75, 802.81 136.17 M229.56 793.37 C362.89 640.54, 492.19 492.93, 802.12 134.91 M231.66 793.38 C452.19 539.84, 675.89 282.61, 804.5 137.18 M233.89 795.23 C454.09 531.93, 678.98 274.48, 803.49 137.78 M236.58 797.41 C359.69 662.55, 479.43 523.95, 807.32 142.1 M237.56 796.06 C435.75 564.25, 637.73 331.53, 807.07 140.22 M239.78 798.08 C396.13 621.74, 551.44 444.13, 808.83 144.03 M240.5 798.86 C429.28 581.23, 621.66 361.21, 810.11 142.78 M243.34 802.09 C371.34 660.55, 493.39 519.08, 811.42 145.89 M244.38 800.16 C398.3 626.64, 548.84 453.22, 812.89 147.48 M247.31 800.8 C420.38 595.29, 597.55 393.33, 815.68 148.32 M247.73 802.51 C431.58 594.43, 613.59 383.82, 814.97 149.63 M250.83 805.1 C387.81 643.45, 527.33 483.99, 818.47 153.12 M251.37 803.88 C375.81 660.18, 504.67 513.58, 816.87 152.48 M254.7 805.23 C381.4 668.1, 502.78 529.46, 819.24 156.9 M255.13 806.92 C471.34 554.13, 688.67 303.5, 821.21 155.28 M259.3 808.89 C420.88 616.17, 586.94 426.82, 824.48 157.8 M258.48 808.28 C469.4 566.68, 678.15 327.69, 823.16 158.27 M264.66 809.87 C448.65 597.51, 630.64 389.68, 825.11 162.51 M262.7 808.86 C417.28 638.46, 567.44 466.11, 825.92 161.01 M265.69 809.98 C436.84 613.39, 609.59 413.8, 829.93 162.99 M267.3 810.85 C473.75 572.23, 678.89 336.4, 829.73 164.57 M271.58 812.69 C427.6 624.31, 588.33 437.9, 830.08 167.08 M270.65 813.01 C445.1 619.16, 616.61 422.34, 831.17 167.76 M275.39 816.29 C458.92 609.36, 641.07 399.3, 835.71 171.44 M274.43 814.16 C467.03 587.91, 662.19 364.7, 834.69 170.43 M276.62 817.73 C494.32 567.1, 713.53 312.79, 837.25 172.95 M277.75 816.98 C465.26 593.16, 656.21 373.49, 837.47 172.88 M282.19 818.68 C480.56 597.27, 674.31 372.45, 838.85 177.44 M281.04 818.93 C499.44 567.76, 718.73 315.16, 839.29 176.5 M286.74 820.58 C420.26 663.41, 552.3 509.64, 842.16 177.91 M285.9 819.97 C413.38 681.5, 538.2 537.96, 843.55 178.84 M290.3 820.36 C437.03 658.94, 582.44 492.82, 844.41 183.65 M290.07 820.71 C418.45 670.71, 548.89 521.62, 844.57 181.82 M292.61 823.7 C435.24 657.72, 575.42 495.1, 847.28 185.81 M293.3 822.85 C456.72 638.35, 617.05 454.35, 847.25 185.37 M299.3 823.28 C468.48 629.22, 634.53 434.7, 850.44 187.46 M298.41 824.19 C492.4 598.98, 689.57 373.06, 849.9 188.6 M301.52 823.33 C523.61 580.14, 740.4 329.35, 853.37 192.93 M302.52 825.54 C461.44 638.37, 619.71 454.98, 852.03 192.7 M305.74 826.53 C425.19 691.78, 539.75 557.49, 854.72 196.35 M307.28 826.44 C469.42 640.66, 628.4 457.33, 854.16 195.96 M310.22 826.55 C437.5 683.45, 563.03 538.88, 855.92 201.41 M310.15 827.23 C455.98 656.23, 603.8 485.01, 856.26 199.76 M314.99 830.37 C464.06 653.5, 616 478.21, 860.11 203.64 M315.67 828.15 C492.81 629.32, 668.94 426.09, 858.67 203.74 M320.66 828.94 C458.32 669.86, 594.67 510.64, 859.59 207.52 M318.57 830.43 C472.19 649.24, 625.98 471.75, 860.43 206.02 M322.42 832.35 C476.81 657.66, 626.25 486.71, 863.52 208.79 M323.13 830.54 C540.47 582.05, 753.93 335.72, 863.36 209.52 M328.07 833.5 C537.46 588.37, 750.65 345.01, 866.3 214.17 M327.96 831.94 C477 656.84, 627.92 482.84, 865.68 213.64 M333.46 833.48 C521.88 611.17, 712.46 393.56, 868.8 217.86 M331.45 832.73 C540.84 589.58, 751.78 344.89, 867.67 217.93 M337.93 833.29 C490.13 658.35, 646.7 475.83, 869.2 220.65 M336.53 835.03 C452.47 705.03, 565.03 575.2, 870.11 221.2 M342.2 836.8 C514.31 639.49, 687.48 439.98, 871.31 223.04 M341.65 835.88 C479.86 675.6, 620.47 515.08, 871.88 224.17 M344.56 836.11 C464.86 702.02, 583.74 566.05, 875.44 228.34 M345.51 836.56 C521.08 635.3, 696.11 434.08, 874.8 227.01 M348.38 836.89 C553.6 599.23, 756.69 363.48, 877.21 231.98 M349.33 838.36 C501.96 659.57, 654.38 481.68, 876.49 231.34 M354.45 838.1 C541.34 620.15, 731.75 397.3, 877.55 234.83 M352.84 839.78 C505.15 657.84, 661.16 480.09, 878.38 235.21 M358.3 841.5 C468.07 715.49, 574.99 591.25, 881.53 238.3 M357.62 840.52 C473.04 709.8, 589.51 575.04, 881.78 239.33 M361.67 841.53 C540 636.61, 719.58 430.65, 882.73 242.25 M361.42 842.47 C495.02 682.23, 630.99 525.39, 883.09 242.56 M367.3 843.71 C474.75 716.39, 585.79 589.32, 884.47 246.52 M366.89 841.7 C552.89 632.8, 738.54 419.64, 885.79 245 M372.48 843.38 C518.36 668.6, 669.77 493.45, 887.43 248.2 M372.48 842.39 C568.44 610.5, 770.05 379.92, 887.79 249.28 M374.68 843.16 C542.52 649.6, 711.42 458.08, 888.43 253.37 M375.98 843.03 C498.57 707.19, 620.09 566.91, 890.12 253.02 M382.53 845.62 C570.32 621.19, 763.43 399.62, 893.07 255.38 M381.21 843.51 C554.68 646.34, 727.52 446.45, 891.68 256.74 M386.68 845.54 C500.44 704.92, 619.69 568.63, 893.31 261.6 M386.06 844.53 C568.9 635.35, 754.18 423, 892.81 261.74 M390.11 844.38 C534.85 684.85, 675.04 520.95, 894.25 267.02 M390.83 846.03 C580.86 628.58, 768.36 412.49, 894.51 265.29 M394.33 846.53 C537.82 682.38, 683.84 514.75, 896.83 269.7 M395.26 847.43 C534.74 677.07, 678.77 512.39, 895.92 269.68 M400.89 848.14 C556.56 667.83, 712.11 490.94, 898.27 273.94 M400.46 847.68 C525 702.67, 651.6 557.65, 897.67 274.92 M403.93 849.39 C516.07 712.17, 631.9 579.31, 900.53 279.56 M404.33 848.61 C556.35 673.9, 708.68 497.98, 899.47 277.61 M407.76 849.73 C556.1 676.2, 705.03 508.13, 901.03 282.4 M409.85 848.63 C574.97 655.91, 745.62 460.27, 900.13 283.45 M413.64 849.78 C546.41 703.2, 675.63 554.29, 901.17 288.66 M414.82 848.55 C600.04 635.27, 785.58 421.31, 901.67 287.91 M418.04 850.36 C570.33 678.78, 716.18 510.57, 903.46 290.38 M418.49 850.64 C573.17 675.96, 728.08 498.09, 904.45 290.9 M422.07 850.02 C598.15 642.62, 776.94 438.02, 907.12 295.78 M424.15 850.46 C526.05 732.67, 628.14 615.72, 904.87 295.09 M426.28 851.62 C566.85 683.24, 712.07 517.24, 908.56 300.92 M428.09 851.5 C543.91 721.16, 659.02 589.03, 906.61 299.17 M433.83 852.92 C617.1 635.76, 806.41 417.64, 910.37 303.92 M433.46 851.66 C602.25 659.48, 771.23 464.46, 909.27 303.97 M438.24 853.88 C579.37 691.66, 716.89 528.97, 908.96 308.61 M436.94 852.21 C570.78 703.3, 699.78 553.79, 910 308.96 M442.51 853.64 C619.45 652.57, 795.69 450.96, 912.58 313.29 M442.63 853.86 C593.53 680.52, 744.16 507.27, 912.42 312.15 M446.92 854.68 C543.19 742.38, 642.81 627.36, 912.87 318.18 M447.11 854.57 C542.64 743.84, 637.24 637.46, 913.74 316.73 M452.11 853.31 C633.77 641.43, 818.78 429.6, 915.1 321.34 M451.74 855.18 C572.58 716.15, 696.04 573.72, 914.6 322.15 M457.83 855.21 C637.94 640.05, 821.72 429.97, 914.86 326.49 M456.98 854.1 C586.58 703.29, 718.01 551.22, 916.28 326.32 M461.42 855.16 C624.79 672.82, 780.99 488.25, 918.03 330.62 M462.19 853.47 C602.18 690.67, 740.79 531.53, 916.96 332.41 M468.18 852.92 C615.93 684.91, 765.27 513.33, 916.8 335.81 M468.35 854.18 C561.27 742.5, 656.51 634.44, 917.92 337.41 M472.55 853.73 C634.3 664.19, 801.34 475.03, 917.33 341.7 M473.29 853.95 C564.85 752.46, 653.17 650.24, 917.88 342.22 M479.97 853.64 C615.4 696.88, 748.11 542.52, 917.8 348.64 M479.59 853.42 C634.79 680.22, 787.38 504.64, 919.58 347.56 M485.55 852.08 C651.57 659.13, 818.77 465.91, 919.92 350.79 M485.64 851.95 C600.58 722.49, 715.92 590.56, 920.85 351.79 M489.49 853.2 C637.66 684.95, 783.9 515.19, 919.79 358.4 M490.33 852.08 C607.62 714.35, 725.51 580.41, 921.15 356.47 M494.95 852.82 C657.53 668.61, 822.25 482.42, 922.74 361.57 M496.88 852.06 C605.4 721.55, 717.71 592.07, 922.38 361.99 M501.07 852.6 C617.85 718.1, 734.03 586.51, 921.94 365.15 M501.58 852.02 C618.25 723.11, 731.62 593.3, 923.13 366.53 M507.26 850.17 C641.97 690.39, 778.77 533.34, 922.79 371.69 M507.21 851.25 C642.71 700.46, 774.83 548.78, 924.35 372.91 M512.64 850.05 C625.7 717.37, 739.15 585.31, 924.24 378.12 M513.35 851.13 C600.8 748.16, 688.04 646.54, 924.61 376.53 M519.6 851.44 C630.94 726.19, 741.96 598.63, 927.05 381.69 M517.97 850.05 C680.21 664.69, 839.52 480.96, 925.63 382.39 M523.11 849.66 C666.76 686.85, 804.82 528.29, 927.9 386.24 M524.76 849.66 C644.45 714.68, 760.59 579.47, 927.63 386.61 M530.24 850.09 C617.85 745.68, 705.84 645.54, 927.75 391.57 M530.25 850.37 C610.7 751.41, 693.69 655.68, 928.48 391.33 M536.6 850.46 C688.23 678.49, 836.97 503.52, 929.75 396.31 M535.91 849.62 C648.82 721.58, 759.93 592.24, 929.25 397.2 M538.23 849.3 C638.04 730.5, 744.62 610.68, 929.67 401.79 M540.46 851.08 C672.04 694.47, 806.13 540.07, 931.47 400.76 M547.25 849.32 C674.27 703.59, 800.01 557.37, 929.08 406.67 M546.3 848.87 C652.53 725.24, 758.8 602.35, 930.72 407.52 M551.6 849.1 C648.73 732.96, 748.48 617.83, 929.82 415.26 M552.53 847.14 C672.66 713.05, 790.44 577.61, 930.76 412.99 M558.3 846.86 C655.51 739.53, 745.68 635.1, 928.52 419.21 M560.25 846.28 C696.44 688.88, 831.9 533.38, 929.64 420.38 M564.91 845.32 C691.96 697.36, 820.9 547.4, 931.49 424.63 M565.95 845.34 C673.19 719.91, 783.58 594.39, 930.19 426.09 M573.82 843.81 C652.67 752.89, 729.61 662.41, 930.69 432.47 M573.12 842.07 C688.42 708.95, 804.43 576.61, 930.09 432.86 M578.44 840.83 C663.08 744.58, 746.25 646.25, 929.57 438.54 M579.63 841.15 C656.51 749.54, 735.41 657.62, 930.5 438.57 M586.46 839.76 C673.33 744.08, 761.1 643.36, 929.32 445.12 M585.4 840.56 C708.46 700.64, 830 561.94, 929.91 443.83 M593.31 838.04 C694.34 718.48, 798.07 601.7, 929.58 451.78 M592.71 839.22 C682.85 735.12, 774.23 628.26, 930.08 450.75 M598.85 837.22 C722.82 695.97, 846.96 554.07, 930.2 457.02 M599.3 837.39 C711.75 705.72, 825.24 574.52, 929.48 457.37 M606.65 834.13 C708.23 718.86, 805.69 606.02, 928.03 462.55 M605.26 835.04 C724.08 698.83, 843.26 561.83, 930.09 463.57 M611.64 834.97 C717.26 708.68, 828.48 584.06, 929.04 468.5 M612.49 834.53 C735.64 693.92, 857.19 553.2, 929.76 468.47 M618.96 833.13 C700.39 737.03, 782.53 642.81, 928.94 474.36 M618.58 832.39 C708.5 726.22, 799.55 621.19, 929.18 474.91 M623.28 834.59 C725.37 716.18, 826.88 601.22, 928.43 480.16 M624.99 833.07 C704.32 740.6, 787.03 645.09, 929.02 481.39 M633.18 830.14 C750.44 690.7, 866.79 558.07, 929.58 489.45 M633.36 828.78 C744.29 695.93, 858.7 565.96, 927.72 489.82 M640.71 824.33 C712.57 746.43, 778.99 664.9, 924.98 496.54 M642.56 825.23 C699.36 758.36, 757.15 691.63, 925.42 497.58 M651.57 821.2 C748.23 707.4, 846.7 594.44, 922.75 505.98 M649.93 821.64 C714.12 753.28, 776.97 681.34, 922.56 507.7 M659.44 818.45 C709.34 755.43, 766.35 693.33, 918.95 518.4 M658.38 816.99 C729.7 735.19, 801.94 651.95, 919.25 516.61 M668.53 810.39 C722.3 751.57, 774.52 691.77, 920.02 523.24 M667.3 813.5 C755.34 710.66, 844.66 608.28, 917.69 525.47 M677.96 811.58 C741.2 735.45, 805.55 664.46, 917.52 535.95 M676.35 809.15 C769.36 701.98, 863.47 594.68, 916.83 534.84 M684.12 806.63 C750.65 728.22, 813.91 655.83, 913.02 540.04 M685.98 805.69 C765.9 714.28, 844.15 624.12, 914.41 543.13 M695.94 800.39 C752.77 730.52, 817.77 657.84, 905.93 556.37 M692.38 801.25 C766.74 716.41, 839.47 630.97, 907.99 555.87 M699.65 798.61 C746.37 739.76, 797.38 685.43, 902.52 567.2 M702.2 797.97 C777.58 714.07, 848.72 633.09, 902.24 568.38 M716.24 789.33 C766.36 733.54, 812.24 670.74, 892.96 583.76 M714.14 790.38 C780.48 716, 844 644.43, 894.65 581.6 M724.36 781.73 C775.36 727.53, 824.03 675.89, 888.72 593.27 M726.16 782.74 C786.52 714.18, 848.52 643.7, 890.34 594.04 M735.53 773.55 C773.86 733.13, 812.93 694.57, 880.68 609.06 M738.05 773.65 C779.35 722.24, 823.47 670.94, 882.72 608.48 M746.93 770.45 C793.87 715.4, 843.07 664.19, 878.03 620 M752.59 767.8 C792.18 717.65, 834.67 669.01, 877.99 618.28 M764.68 753.9 C802.72 712.56, 840.6 669.79, 876.84 629.98 M768.11 752.14 C799.25 712.83, 834.02 672.1, 876.52 627.05 M806.54 717.35 C816.44 703.8, 822.58 689.81, 846.7 662.11 M801.5 717.34 C813.25 704.8, 823.53 693.51, 850.46 666.45" stroke="#ced4da" stroke-width="0.5" fill="none"></path><path d="M160.88 104.24 C175.86 82.57, 205.17 70.17, 229.59 56.61 C254.02 43.05, 280.49 31.15, 307.4 22.87 C334.31 14.58, 362.74 10.58, 391.04 6.9 C419.35 3.22, 448.79 0.47, 477.23 0.77 C505.68 1.08, 533.87 3.31, 561.7 8.73 C589.54 14.15, 617.91 22.86, 644.24 33.28 C670.57 43.71, 695.89 56.83, 719.7 71.27 C743.5 85.71, 766.27 101.63, 787.06 119.93 C807.85 138.23, 827.94 159.86, 844.45 181.05 C860.97 202.23, 874.63 223.7, 886.15 247.04 C897.67 270.38, 906.56 295.71, 913.6 321.09 C920.64 346.46, 926.11 373.01, 928.38 399.3 C930.65 425.6, 930.79 452.72, 927.2 478.85 C923.61 504.99, 915.53 531.45, 906.84 556.12 C898.15 580.79, 888.28 604.16, 875.07 626.87 C861.87 649.57, 845.63 671.58, 827.61 692.37 C809.59 713.15, 788.34 734.42, 766.96 751.56 C745.59 768.7, 723.59 782.14, 699.37 795.21 C675.14 808.29, 648.52 821.09, 621.62 830 C594.72 838.91, 566.41 844.65, 537.95 848.67 C509.49 852.69, 479.53 855.32, 450.86 854.12 C422.2 852.91, 393.98 847.45, 365.98 841.46 C337.98 835.46, 309.21 828.05, 282.87 818.13 C256.52 808.21, 231.54 796.11, 207.91 781.92 C184.28 767.74, 161.6 751.34, 141.11 733.02 C120.61 714.7, 101.26 693.53, 84.96 672.01 C68.65 650.48, 55.09 627.21, 43.29 603.89 C31.5 580.58, 21.27 557.01, 14.18 532.1 C7.1 507.19, 2.44 480.94, 0.79 454.44 C-0.85 427.93, 0.63 399.06, 4.3 373.08 C7.97 347.1, 14.14 323.46, 22.81 298.56 C31.48 273.67, 43.18 246.86, 56.31 223.71 C69.45 200.56, 74.65 186.37, 101.63 159.65 C128.6 132.93, 187.76 82.86, 218.16 63.37 C248.57 43.88, 280.18 36.3, 284.06 42.71 M751.71 88.31 C777.72 98.93, 794.06 127.73, 813 147.74 C831.94 167.74, 851.08 186.24, 865.36 208.34 C879.63 230.43, 889.09 255.58, 898.64 280.31 C908.19 305.03, 917.22 331.27, 922.68 356.69 C928.14 382.1, 932.18 407.12, 931.39 432.82 C930.59 458.51, 924.35 484.78, 917.9 510.86 C911.45 536.94, 902.9 565.2, 892.68 589.29 C882.46 613.37, 871.86 634.14, 856.57 655.37 C841.27 676.6, 820.23 697.65, 800.88 716.68 C781.53 735.71, 762.99 753.58, 740.45 769.58 C717.91 785.58, 692.16 801.06, 665.65 812.69 C639.15 824.32, 608.82 832.96, 581.42 839.37 C554.03 845.78, 529.13 849.34, 501.27 851.15 C473.41 852.96, 443.31 852.94, 414.28 850.2 C385.25 847.46, 354.65 842.53, 327.1 834.72 C299.54 826.91, 273.53 815.38, 248.94 803.36 C224.36 791.34, 201.35 778.64, 179.58 762.61 C157.82 746.58, 137.59 726.72, 118.36 707.16 C99.12 687.6, 78.81 667.61, 64.17 645.27 C49.53 622.93, 40.63 597.31, 30.52 573.11 C20.41 548.91, 8.78 526.07, 3.53 500.08 C-1.73 474.08, -1.83 443.8, -1 417.15 C-0.17 390.5, 2.92 365.33, 8.49 340.17 C14.05 315.01, 21.46 290.76, 32.38 266.2 C43.29 241.63, 58.6 214.76, 73.99 192.79 C89.38 170.81, 104.69 152.9, 124.71 134.34 C144.73 115.77, 170.71 96.95, 194.12 81.39 C217.53 65.84, 239.47 52.23, 265.17 41 C290.87 29.77, 320.72 20.94, 348.31 14.04 C375.9 7.13, 402.36 1.54, 430.72 -0.42 C459.07 -2.38, 490.63 -0.92, 518.44 2.27 C546.26 5.47, 571.26 10.62, 597.63 18.73 C624 26.85, 650.71 38.62, 676.69 50.94 C702.67 63.26, 741.69 85.23, 753.51 92.67 C765.32 100.11, 753.16 89.99, 747.57 95.59" stroke="#000000" stroke-width="1" fill="none"></path></g><g stroke-linecap="round" transform="translate(319.1089736175259 189) rotate(0 82.5 70)"><path d="M48.35 5.2 C58 0.42, 72.06 -0.07, 84.17 0.35 C96.29 0.76, 110.38 3.06, 121.01 7.7 C131.64 12.34, 140.79 20.18, 147.95 28.18 C155.12 36.18, 161.46 45.66, 164.01 55.7 C166.56 65.74, 166.19 78.48, 163.26 88.41 C160.33 98.34, 154.15 107.72, 146.43 115.29 C138.7 122.85, 128.13 129.6, 116.93 133.8 C105.72 138.01, 91.08 140.78, 79.19 140.52 C67.3 140.27, 56.12 137.05, 45.58 132.28 C35.05 127.51, 23.17 119.88, 15.98 111.88 C8.79 103.88, 4.59 94.05, 2.44 84.29 C0.3 74.52, 0.25 63.18, 3.13 53.27 C6.01 43.35, 10 33.43, 19.73 24.78 C29.46 16.13, 52.17 5.08, 61.53 1.35 C70.89 -2.39, 75.41 1.04, 75.89 2.37 M50.62 5.33 C60.49 0.84, 75.22 0.15, 86.94 0.62 C98.66 1.09, 110.71 3.67, 120.94 8.14 C131.17 12.61, 141.04 19.01, 148.31 27.43 C155.57 35.84, 162.47 48.22, 164.54 58.63 C166.61 69.03, 164.09 80.24, 160.73 89.87 C157.37 99.5, 151.83 108.98, 144.37 116.41 C136.91 123.84, 126.77 130.65, 115.97 134.45 C105.17 138.24, 91.85 139.4, 79.58 139.18 C67.31 138.96, 53.06 137.76, 42.33 133.13 C31.61 128.5, 22.21 119.6, 15.23 111.38 C8.26 103.16, 2.75 93.99, 0.47 83.82 C-1.81 73.65, -1.77 60.1, 1.55 50.36 C4.87 40.63, 12.21 32.69, 20.39 25.4 C28.56 18.1, 45.76 9.78, 50.61 6.59 C55.46 3.41, 49.04 5.54, 49.48 6.3" stroke="#5f3dc4" stroke-width="1" fill="none"></path></g><g transform="translate(324.1089736175259 205) rotate(0 77.5 54)"><text x="77.5" y="25" font-family="Virgil, Segoe UI Emoji" font-size="28px" fill="#5f3dc4" text-anchor="middle" style="white-space: pre;" direction="ltr">Alice's</text><text x="77.5" y="61" font-family="Virgil, Segoe UI Emoji" font-size="28px" fill="#5f3dc4" text-anchor="middle" style="white-space: pre;" direction="ltr">Data </text><text x="77.5" y="97" font-family="Virgil, Segoe UI Emoji" font-size="28px" fill="#5f3dc4" text-anchor="middle" style="white-space: pre;" direction="ltr">Agent</text></g><g stroke-linecap="round" transform="translate(611.1089736175259 211) rotate(0 259 245)"><path d="M414.9 49 C432.9 57.14, 446.67 75.69, 459.53 90.81 C472.38 105.94, 483.22 121.72, 492.01 139.76 C500.8 157.8, 508.28 179.45, 512.26 199.03 C516.25 218.61, 516.55 237.81, 515.9 257.23 C515.26 276.65, 514.2 296.94, 508.42 315.53 C502.64 334.13, 491.68 351.93, 481.22 368.8 C470.77 385.67, 459.71 402.71, 445.7 416.73 C431.69 430.76, 414.65 443.06, 397.17 452.97 C379.69 462.89, 360.42 469.83, 340.83 476.21 C321.25 482.59, 300.42 489.28, 279.66 491.25 C258.89 493.21, 236.74 491.46, 216.26 488.01 C195.78 484.57, 176.04 478.57, 156.78 470.55 C137.51 462.54, 117.36 451.84, 100.67 439.94 C83.97 428.05, 69.33 414.5, 56.63 399.18 C43.92 383.86, 32.73 365.92, 24.44 348.01 C16.15 330.11, 11.01 310.41, 6.89 291.75 C2.77 273.08, -1.06 255.38, -0.27 236.01 C0.53 216.63, 5.88 194.71, 11.66 175.49 C17.43 156.28, 23.87 137.51, 34.37 120.71 C44.86 103.91, 60.29 88.86, 74.65 74.71 C89.01 60.57, 103.4 46.55, 120.55 35.86 C137.69 25.17, 157.83 16.53, 177.52 10.59 C197.22 4.66, 218.1 1.7, 238.71 0.25 C259.31 -1.2, 280.92 -1.26, 301.14 1.91 C321.36 5.09, 337.44 8.4, 360.04 19.31 C382.63 30.21, 422.12 56.5, 436.68 67.32 C451.25 78.13, 450.85 81.51, 447.42 84.19 M142.29 28.21 C158.67 16.07, 182.41 7.99, 202.14 3.65 C221.87 -0.7, 240.62 1.27, 260.65 2.15 C280.68 3.03, 302.51 4.68, 322.32 8.94 C342.13 13.21, 360.71 18.75, 379.5 27.73 C398.29 36.7, 419.31 49.05, 435.04 62.81 C450.77 76.56, 462.45 94.37, 473.88 110.25 C485.31 126.14, 496.92 139.88, 503.61 158.11 C510.3 176.35, 511.69 200.4, 514.04 219.66 C516.39 238.91, 519.5 254.65, 517.71 273.65 C515.92 292.64, 511.24 314.53, 503.3 333.62 C495.36 352.71, 482.42 372.4, 470.08 388.19 C457.74 403.97, 444.56 415.42, 429.25 428.32 C413.94 441.23, 396.45 456.75, 378.24 465.63 C360.02 474.5, 340.49 477.89, 319.97 481.57 C299.45 485.25, 275.89 487.83, 255.11 487.7 C234.32 487.57, 214.92 485.25, 195.26 480.81 C175.59 476.36, 155.05 469.68, 137.14 461.03 C119.24 452.39, 103.2 442.53, 87.84 428.95 C72.48 415.37, 56.95 396.17, 44.96 379.57 C32.97 362.96, 22.71 346.91, 15.89 329.32 C9.07 311.73, 6 292.95, 4.06 274.02 C2.13 255.09, 1.78 235.29, 4.26 215.75 C6.75 196.21, 11.73 175.67, 19 156.79 C26.26 137.91, 36.69 118.42, 47.87 102.48 C59.06 86.54, 71.08 73.4, 86.09 61.15 C101.11 48.91, 128.77 33.73, 137.94 29.04 C147.11 24.35, 138.68 30.13, 141.13 33.02" stroke="#e67700" stroke-width="1" fill="none"></path></g><g transform="translate(740.4369696427827 250.3450831221653) rotate(0 130 18)"><text x="0" y="25" font-family="Virgil, Segoe UI Emoji" font-size="28px" fill="#e67700" text-anchor="start" style="white-space: pre;" direction="ltr">Jlinx Micro-Ledgers</text></g><g stroke-linecap="round" transform="translate(61.07372425102989 65.41988254587432) rotate(0 56.78151517860857 76.26335290902091)"><path d="M28.39 0 M28.39 0 C45.94 -0.1, 56.38 -1.58, 85.17 0 M28.39 0 C41.56 0.6, 59.24 -1.52, 85.17 0 M85.17 0 C102.91 -1.64, 109.71 10.41, 113.56 28.39 M85.17 0 C106.65 -2.61, 109.33 10.87, 113.56 28.39 M113.56 28.39 C116.97 54.09, 111.32 78.3, 113.56 124.14 M113.56 28.39 C112.81 65.7, 114.45 102.42, 113.56 124.14 M113.56 124.14 C116.46 143.59, 104.28 151.02, 85.17 152.53 M113.56 124.14 C113.43 138.84, 100.97 152.21, 85.17 152.53 M85.17 152.53 C69.45 152.26, 56.98 154.4, 28.39 152.53 M85.17 152.53 C63.1 150.78, 41.14 152.39, 28.39 152.53 M28.39 152.53 C7.34 148.55, 3.64 143.94, 0 124.14 M28.39 152.53 C13.68 152.7, -4.51 147.53, 0 124.14 M0 124.14 C-1.69 95.13, -1.1 61.79, 0 28.39 M0 124.14 C-1.48 103.4, -1.22 84.55, 0 28.39 M0 28.39 C2.8 10.03, 8.93 -2.41, 28.39 0 M0 28.39 C0.03 12.78, 5.24 -2.39, 28.39 0" stroke="#5f3dc4" stroke-width="1" fill="none"></path></g><g transform="translate(72.29167148608161 79.33761474639005) rotate(0 42 53.5)"><text x="42" y="24.666666666666664" font-family="Virgil, Segoe UI Emoji" font-size="28px" fill="#5f3dc4" text-anchor="middle" style="white-space: pre;" direction="ltr">Alice's</text><text x="42" y="60.33333333333333" font-family="Virgil, Segoe UI Emoji" font-size="28px" fill="#5f3dc4" text-anchor="middle" style="white-space: pre;" direction="ltr">Phone</text><text x="42" y="96" font-family="Virgil, Segoe UI Emoji" font-size="28px" fill="#5f3dc4" text-anchor="middle" style="white-space: pre;" direction="ltr"></text></g><g stroke-linecap="round"><g transform="translate(342.37619976401646 192.89323703633477) rotate(0 -74.73382200134864 -38.16226009348475)"><path d="M-0.34 -2.35 C-25.07 -15.66, -124.65 -66.49, -149.12 -78.88 M-3.98 2.55 C-27.69 -10.59, -119.36 -63.86, -143.49 -76.56" stroke="#5f3dc4" stroke-width="1" fill="none"></path></g><g transform="translate(342.37619976401646 192.89323703633477) rotate(0 -74.73382200134864 -38.16226009348475)"><path d="M-117.22 -73.83 C-125.43 -72.46, -130.35 -70.7, -146.99 -79.64 M-114.85 -71.4 C-122.35 -71.88, -131.19 -72.61, -142.44 -76.12" stroke="#5f3dc4" stroke-width="1" fill="none"></path></g><g transform="translate(342.37619976401646 192.89323703633477) rotate(0 -74.73382200134864 -38.16226009348475)"><path d="M-127.2 -55.9 C-132.82 -59.39, -135.01 -62.52, -146.99 -79.64 M-124.83 -53.47 C-129.94 -59, -136.04 -64.64, -142.44 -76.12" stroke="#5f3dc4" stroke-width="1" fill="none"></path></g></g><g stroke-linecap="round"><g transform="translate(775.0971982000272 515.840460203467) rotate(0 -150.02915022441243 -107.79203650385853)"><path d="M-0.75 -0.25 C-51.47 -35.61, -251.14 -175.23, -301.48 -210.58 M4.03 -2.85 C-47.37 -39.27, -253.91 -180.82, -304.09 -215.34" stroke="#5f3dc4" stroke-width="1" fill="none"></path></g><g transform="translate(775.0971982000272 515.840460203467) rotate(0 -150.02915022441243 -107.79203650385853)"><path d="M-275.4 -208.81 C-286.06 -213.84, -300.21 -212.59, -303.09 -212.1 M-275.42 -206.8 C-281.83 -210.06, -286.47 -212.37, -303.15 -213.81" stroke="#5f3dc4" stroke-width="1" fill="none"></path></g><g transform="translate(775.0971982000272 515.840460203467) rotate(0 -150.02915022441243 -107.79203650385853)"><path d="M-287.02 -191.89 C-293.23 -203.61, -302.74 -209.12, -303.09 -212.1 M-287.04 -189.88 C-290.83 -196.84, -293.06 -202.67, -303.15 -213.81" stroke="#5f3dc4" stroke-width="1" fill="none"></path></g></g><g stroke-linecap="round"><g transform="translate(191.96556936524468 136.56165461319642) rotate(0 69.61794376079234 40.412166751566474)"><path d="M-0.16 2.21 C23.58 14.8, 119.7 63.69, 142.92 76.17 M-3.69 0.94 C19.73 13.97, 116.55 68.01, 141.26 79.88" stroke="#5f3dc4" stroke-width="1" fill="none"></path></g><g transform="translate(191.96556936524468 136.56165461319642) rotate(0 69.61794376079234 40.412166751566474)"><path d="M114.69 77.38 C121.19 73.35, 131.97 76.94, 145.05 81.36 M111.76 75.6 C123.98 76.19, 134.97 78.61, 139.85 79.41" stroke="#5f3dc4" stroke-width="1" fill="none"></path></g><g transform="translate(191.96556936524468 136.56165461319642) rotate(0 69.61794376079234 40.412166751566474)"><path d="M124.22 59.21 C127.78 60.94, 135.54 70.29, 145.05 81.36 M121.29 57.43 C129.84 64.82, 137.31 73.97, 139.85 79.41" stroke="#5f3dc4" stroke-width="1" fill="none"></path></g></g><g stroke-linecap="round"><g transform="translate(485.5246108265864 292.9039302936203) rotate(0 142.88723483398365 47.0930981888481)"><path d="M2.08 -2.8 C49.65 13.77, 238.58 80.93, 286.01 96.98 M-0.23 1.86 C46.96 17.75, 236.45 76.86, 284.08 92.41" stroke="#5f3dc4" stroke-width="1" fill="none"></path></g><g transform="translate(485.5246108265864 292.9039302936203) rotate(0 142.88723483398365 47.0930981888481)"><path d="M250.11 94.44 C264.92 94.54, 269.59 94.51, 287.96 89.44 M254.34 93.69 C265.46 92.23, 275 94.09, 284.85 91.87" stroke="#5f3dc4" stroke-width="1" fill="none"></path></g><g transform="translate(485.5246108265864 292.9039302936203) rotate(0 142.88723483398365 47.0930981888481)"><path d="M256.34 74.89 C268.82 81.36, 271.49 87.61, 287.96 89.44 M260.57 74.14 C269.79 79.42, 277.2 87.98, 284.85 91.87" stroke="#5f3dc4" stroke-width="1" fill="none"></path></g></g><g stroke-linecap="round" transform="translate(792.3449392229311 302.9358944701039) rotate(0 83.11900204431822 84.07437777107123)"><path d="M41.56 0 M41.56 0 C61.53 -0.02, 81.56 -0.31, 124.68 0 M41.56 0 C65.43 0.71, 84.2 1.78, 124.68 0 M124.68 0 C150.38 -0.31, 164.41 17.73, 166.24 41.56 M124.68 0 C149.66 -2.16, 170.26 18.18, 166.24 41.56 M166.24 41.56 C165.12 64.75, 170.43 78.12, 166.24 126.59 M166.24 41.56 C165.96 59.22, 165.1 79.44, 166.24 126.59 M166.24 126.59 C169.69 152.12, 153.95 169.27, 124.68 168.15 M166.24 126.59 C168.72 151.26, 147.87 170.4, 124.68 168.15 M124.68 168.15 C100.64 170.69, 81.61 168.05, 41.56 168.15 M124.68 168.15 C99.58 168.24, 74.76 166.51, 41.56 168.15 M41.56 168.15 C13.68 169.62, 1.88 156.63, 0 126.59 M41.56 168.15 C11.58 168.75, -2.38 150.21, 0 126.59 M0 126.59 C0.28 101.94, 1.95 76, 0 41.56 M0 126.59 C-0.54 93.74, 1.4 61.5, 0 41.56 M0 41.56 C2.99 10.03, 13.15 0.03, 41.56 0 M0 41.56 C0.1 12.44, 14.97 -3.84, 41.56 0" stroke="#5f3dc4" stroke-width="1" fill="none"></path></g><g transform="translate(799.0726490783504 315.88510886116455) rotate(0 72.5 12.5)"><text x="72.5" y="20" font-family="Cascadia, Segoe UI Emoji" font-size="20.503091663867348px" fill="#5f3dc4" text-anchor="middle" style="white-space: pre;" direction="ltr">jlinx:u9qha…</text></g><g stroke-linecap="round" transform="translate(806.6342870163464 395.5710642848651) rotate(0 66.92497019142957 13.90648731250485)"><path d="M1.85 1.61 C1.85 1.61, 1.85 1.61, 1.85 1.61 M1.85 1.61 C1.85 1.61, 1.85 1.61, 1.85 1.61 M1.59 8.01 C4.79 5.91, 5.74 4.2, 8.15 0.46 M1.59 8.01 C4.08 4.8, 5.92 2.31, 8.15 0.46 M1.33 14.4 C3.17 12.41, 11.64 3.44, 13.14 0.82 M1.33 14.4 C4.83 10.45, 6.91 6.56, 13.14 0.82 M1.72 20.05 C11.38 10.19, 17.86 3.98, 18.12 1.18 M1.72 20.05 C7.83 14.19, 11.79 10.21, 18.12 1.18 M2.12 25.69 C6.62 17.57, 15.37 11.06, 23.77 0.79 M2.12 25.69 C8.63 16.28, 14.76 9.67, 23.77 0.79 M5.14 28.31 C10.8 20.28, 14.33 17.47, 28.75 1.15 M5.14 28.31 C12 21.19, 22.08 10.38, 28.75 1.15 M10.12 28.67 C14.85 23.81, 24.84 13.67, 34.4 0.75 M10.12 28.67 C18.63 22.23, 25.01 11.68, 34.4 0.75 M15.77 28.28 C24.05 20.66, 33.3 10.77, 39.38 1.11 M15.77 28.28 C22.09 22.72, 27.16 14.81, 39.38 1.11 M20.75 28.64 C27.11 20.14, 37.51 10.11, 45.03 0.72 M20.75 28.64 C28.3 20.01, 35.09 15.4, 45.03 0.72 M26.4 28.25 C29.72 17.46, 42.78 10.08, 50.01 1.08 M26.4 28.25 C32.61 19.47, 38.32 14.46, 50.01 1.08 M31.38 28.61 C35.62 20.94, 43.51 9.21, 55.66 0.68 M31.38 28.61 C39.2 20.2, 49.34 7.8, 55.66 0.68 M37.03 28.21 C47.17 14.94, 57.42 7.99, 60.64 1.04 M37.03 28.21 C40.7 20.79, 48.41 15.18, 60.64 1.04 M42.01 28.57 C52.05 16.87, 58.49 14.54, 66.29 0.65 M42.01 28.57 C50.77 17.96, 60.84 6.92, 66.29 0.65 M47.66 28.18 C54.29 18.7, 57.3 17.3, 71.27 1.01 M47.66 28.18 C53.15 22.85, 56.82 15.88, 71.27 1.01 M52.64 28.54 C59.33 22.29, 67.52 14.64, 76.26 1.37 M52.64 28.54 C60.15 18, 67.91 12.04, 76.26 1.37 M57.63 28.9 C62.34 24.71, 68.08 11.37, 81.9 0.97 M57.63 28.9 C64.61 21.67, 72.76 13.5, 81.9 0.97 M63.27 28.5 C71.43 19.29, 70.29 14.52, 86.89 1.33 M63.27 28.5 C70.3 20.65, 80.77 11.56, 86.89 1.33 M68.26 28.86 C76.03 21.31, 79.86 17.99, 92.53 0.94 M68.26 28.86 C78.25 17.28, 88.89 6.71, 92.53 0.94 M73.9 28.47 C79.68 22.22, 81.47 21.34, 97.52 1.3 M73.9 28.47 C80.91 20.4, 87.83 15.36, 97.52 1.3 M78.89 28.83 C84.29 22.36, 90.98 17.58, 103.16 0.9 M78.89 28.83 C90.23 17.89, 96.99 8.32, 103.16 0.9 M84.53 28.43 C86.79 23.51, 94.36 13.43, 108.15 1.26 M84.53 28.43 C93.25 20.48, 101.42 10.71, 108.15 1.26 M89.52 28.79 C94.8 22.58, 105.7 9.27, 113.79 0.87 M89.52 28.79 C96.77 17.59, 105.79 11.26, 113.79 0.87 M95.16 28.4 C99.64 20.54, 107.88 12.75, 118.78 1.23 M95.16 28.4 C104.7 20.81, 111.45 9.43, 118.78 1.23 M100.15 28.76 C106.3 25.03, 113.99 13.77, 124.42 0.83 M100.15 28.76 C109.29 17.99, 117 10.41, 124.42 0.83 M105.14 29.12 C117.91 19.94, 126.08 5.83, 130.07 0.44 M105.14 29.12 C112.71 17.62, 122.45 8.03, 130.07 0.44 M110.78 28.72 C113.21 22.95, 118.91 15.43, 133.09 3.06 M110.78 28.72 C119.1 18.1, 126.84 12.02, 133.09 3.06 M115.77 29.08 C123.41 20.12, 128.6 10.8, 136.11 5.69 M115.77 29.08 C123.61 21.48, 127.15 15.18, 136.11 5.69 M121.41 28.69 C126.75 24.6, 125.16 22.2, 135.84 12.09 M121.41 28.69 C124.82 22.34, 129.1 17.08, 135.84 12.09 M127.05 28.3 C128.9 22.56, 135.33 19.88, 135.58 18.48 M127.05 28.3 C130.26 25.91, 132.7 21.89, 135.58 18.48" stroke="#7950f2" stroke-width="0.5" fill="none"></path><path d="M6.95 0 M6.95 0 C40.6 -2.08, 79.35 0.41, 126.9 0 M6.95 0 C54.09 2.26, 100 -1.08, 126.9 0 M126.9 0 C135.14 -1.43, 131.54 0.96, 133.85 6.95 M126.9 0 C130.79 -3.15, 135.14 2.29, 133.85 6.95 M133.85 6.95 C136.32 9.65, 133.89 12.4, 133.85 20.86 M133.85 6.95 C133.08 13.79, 133.68 17.11, 133.85 20.86 M133.85 20.86 C134.25 22.5, 135.23 31.15, 126.9 27.81 M133.85 20.86 C136.73 29.03, 128.6 24.17, 126.9 27.81 M126.9 27.81 C86.92 25.58, 36.73 28.22, 6.95 27.81 M126.9 27.81 C98.14 27.41, 67.4 25.4, 6.95 27.81 M6.95 27.81 C4.49 27.14, 2.79 29.15, 0 20.86 M6.95 27.81 C0.47 29.82, -3.94 21.43, 0 20.86 M0 20.86 C0.66 13.45, 1.54 12.37, 0 6.95 M0 20.86 C0.86 14.66, 0.46 9.37, 0 6.95 M0 6.95 C-1 4.46, 0.4 -3.14, 6.95 0 M0 6.95 C3.18 4.19, 0.6 0.72, 6.95 0" stroke="#5f3dc4" stroke-width="1" fill="none"></path></g><g stroke-linecap="round" transform="translate(807.5034424733774 433.8139043942517) rotate(0 66.92497019142957 13.90648731250485)"><path d="M1.85 1.61 C1.85 1.61, 1.85 1.61, 1.85 1.61 M1.85 1.61 C1.85 1.61, 1.85 1.61, 1.85 1.61 M1.59 8.01 C4.98 5.74, 5.16 0.89, 8.15 0.46 M1.59 8.01 C3.45 6.72, 5.08 5.39, 8.15 0.46 M1.33 14.4 C6.61 8.18, 5.89 7.97, 13.14 0.82 M1.33 14.4 C5.68 10.59, 6.83 6.91, 13.14 0.82 M1.72 20.05 C3.68 14.33, 8.89 10.45, 18.12 1.18 M1.72 20.05 C5.84 15.02, 9.49 12.5, 18.12 1.18 M2.12 25.69 C8.34 16.57, 20.19 5.22, 23.77 0.79 M2.12 25.69 C8.87 16.65, 15.6 7.72, 23.77 0.79 M5.14 28.31 C13.31 19.89, 14.95 13.19, 28.75 1.15 M5.14 28.31 C10.31 19.44, 17.59 13.3, 28.75 1.15 M10.12 28.67 C21.05 17.2, 24.53 4.05, 34.4 0.75 M10.12 28.67 C13.9 22.3, 21.96 17.01, 34.4 0.75 M15.77 28.28 C26.54 21.69, 32.68 12.45, 39.38 1.11 M15.77 28.28 C20.11 23.63, 27.15 17.81, 39.38 1.11 M20.75 28.64 C24.93 22.02, 32.68 15.02, 45.03 0.72 M20.75 28.64 C29.03 17.06, 38.71 9.63, 45.03 0.72 M26.4 28.25 C31.05 22.34, 35.79 17.15, 50.01 1.08 M26.4 28.25 C36.95 19.88, 41.84 6.78, 50.01 1.08 M31.38 28.61 C35.53 20.43, 41.4 14.24, 55.66 0.68 M31.38 28.61 C40.84 18.99, 47.3 14.06, 55.66 0.68 M37.03 28.21 C43.87 18.7, 50.01 7.02, 60.64 1.04 M37.03 28.21 C44.41 21.26, 51.9 11.88, 60.64 1.04 M42.01 28.57 C53.19 18.74, 55.48 11.99, 66.29 0.65 M42.01 28.57 C46.27 21.62, 53.36 14.14, 66.29 0.65 M47.66 28.18 C56.06 17.16, 62.43 10.28, 71.27 1.01 M47.66 28.18 C55.94 19.02, 67.26 6.22, 71.27 1.01 M52.64 28.54 C60.94 17.48, 68.03 15.78, 76.26 1.37 M52.64 28.54 C62.35 20.11, 72.16 6.04, 76.26 1.37 M57.63 28.9 C65.37 15.04, 77 9.41, 81.9 0.97 M57.63 28.9 C67.75 19.23, 75.28 9.56, 81.9 0.97 M63.27 28.5 C74.91 18.13, 75.64 6.43, 86.89 1.33 M63.27 28.5 C71.08 23.51, 74.32 15.29, 86.89 1.33 M68.26 28.86 C79.47 15.08, 90.94 10.58, 92.53 0.94 M68.26 28.86 C72.6 23.32, 79.55 16.05, 92.53 0.94 M73.9 28.47 C83.37 20.27, 87.61 11.7, 97.52 1.3 M73.9 28.47 C78.31 23.2, 82.58 14.98, 97.52 1.3 M78.89 28.83 C87.99 22.12, 91 14.88, 103.16 0.9 M78.89 28.83 C84.65 22.61, 91.26 15, 103.16 0.9 M84.53 28.43 C92.25 16.07, 100.8 8.82, 108.15 1.26 M84.53 28.43 C90.62 21.27, 99.22 11.25, 108.15 1.26 M89.52 28.79 C101.32 23.15, 105.32 14.09, 113.79 0.87 M89.52 28.79 C97.99 19.29, 107.39 5.54, 113.79 0.87 M95.16 28.4 C99.5 20.97, 105.32 14.49, 118.78 1.23 M95.16 28.4 C100.02 23.62, 105.02 17.89, 118.78 1.23 M100.15 28.76 C109.91 21.91, 113.7 8.53, 124.42 0.83 M100.15 28.76 C106.83 21.15, 112.73 13.82, 124.42 0.83 M105.14 29.12 C115.32 15.63, 123.1 12.28, 130.07 0.44 M105.14 29.12 C114.5 19.37, 123.53 10.76, 130.07 0.44 M110.78 28.72 C114.26 24.55, 124.6 12.98, 133.09 3.06 M110.78 28.72 C115.81 22.74, 123.49 13.6, 133.09 3.06 M115.77 29.08 C123.14 21.39, 125.38 14.36, 136.11 5.69 M115.77 29.08 C121.61 24.5, 126.02 15.85, 136.11 5.69 M121.41 28.69 C121.97 26.93, 129.14 15.6, 135.84 12.09 M121.41 28.69 C125.87 24.46, 127.31 18.61, 135.84 12.09 M127.05 28.3 C129.86 24.79, 134.95 21.73, 135.58 18.48 M127.05 28.3 C129.81 24.08, 132.87 20.74, 135.58 18.48" stroke="#7950f2" stroke-width="0.5" fill="none"></path><path d="M6.95 0 M6.95 0 C57.08 -4.05, 97.91 1.09, 126.9 0 M6.95 0 C40.24 -3.59, 75.75 -3.26, 126.9 0 M126.9 0 C129.34 -1.76, 136.4 3.61, 133.85 6.95 M126.9 0 C132.82 -3.13, 136.35 1.54, 133.85 6.95 M133.85 6.95 C135.32 9.72, 131.65 19.33, 133.85 20.86 M133.85 6.95 C132.98 11.19, 135.05 15.24, 133.85 20.86 M133.85 20.86 C131.66 24.36, 133.56 25.53, 126.9 27.81 M133.85 20.86 C134.86 23.23, 130.38 30.28, 126.9 27.81 M126.9 27.81 C98.3 27.97, 67.08 26.92, 6.95 27.81 M126.9 27.81 C95.31 30.65, 62.83 31.18, 6.95 27.81 M6.95 27.81 C5.69 27.28, 1.98 26.73, 0 20.86 M6.95 27.81 C0.23 25.4, 3.99 25.65, 0 20.86 M0 20.86 C0.92 15.18, -0.36 13.06, 0 6.95 M0 20.86 C-0.45 18.25, -0.16 14.96, 0 6.95 M0 6.95 C-0.31 5.93, -0.21 1.22, 6.95 0 M0 6.95 C1.85 5.13, -0.77 1.6, 6.95 0" stroke="#5f3dc4" stroke-width="1" fill="none"></path></g><g stroke-linecap="round" transform="translate(805.7651315593159 350.374980519224) rotate(0 66.92497019142957 13.90648731250485)"><path d="M1.85 1.61 C1.85 1.61, 1.85 1.61, 1.85 1.61 M1.85 1.61 C1.85 1.61, 1.85 1.61, 1.85 1.61 M1.59 8.01 C2.62 7.83, 2.87 3.84, 8.15 0.46 M1.59 8.01 C2.51 6.93, 5.41 3.76, 8.15 0.46 M1.33 14.4 C0.75 14.26, 3.37 8.45, 13.14 0.82 M1.33 14.4 C4.75 8.34, 11.56 4.97, 13.14 0.82 M1.72 20.05 C9.25 10.03, 12.73 8.05, 18.12 1.18 M1.72 20.05 C8.96 14.76, 12.15 7.38, 18.12 1.18 M2.12 25.69 C3.81 22.96, 11.85 9.58, 23.77 0.79 M2.12 25.69 C8.09 18.52, 15.89 9.6, 23.77 0.79 M5.14 28.31 C8.27 22.15, 20.8 16.76, 28.75 1.15 M5.14 28.31 C9.95 22.97, 14.28 16.8, 28.75 1.15 M10.12 28.67 C13.84 18.44, 25.63 11.85, 34.4 0.75 M10.12 28.67 C19.26 17.91, 26.83 8, 34.4 0.75 M15.77 28.28 C22.8 22.88, 28.4 17.89, 39.38 1.11 M15.77 28.28 C23.6 17.49, 35.98 6.55, 39.38 1.11 M20.75 28.64 C30.27 19.1, 30.62 13.81, 45.03 0.72 M20.75 28.64 C28.28 21.87, 34.86 12.17, 45.03 0.72 M26.4 28.25 C31.29 15.44, 40.59 10.83, 50.01 1.08 M26.4 28.25 C36.31 20.42, 44.91 7.24, 50.01 1.08 M31.38 28.61 C38.95 19.33, 50.78 11.06, 55.66 0.68 M31.38 28.61 C40.22 19.54, 50.01 5.19, 55.66 0.68 M37.03 28.21 C44.89 16.55, 58.12 7.11, 60.64 1.04 M37.03 28.21 C45.03 19.42, 56.04 7.93, 60.64 1.04 M42.01 28.57 C48.29 21.15, 56.2 20.8, 66.29 0.65 M42.01 28.57 C48.12 20.16, 55.6 11.85, 66.29 0.65 M47.66 28.18 C57.95 17.52, 63.15 9.42, 71.27 1.01 M47.66 28.18 C56.43 20.23, 63.38 11.55, 71.27 1.01 M52.64 28.54 C61.62 21.99, 63.51 16.73, 76.26 1.37 M52.64 28.54 C56.27 21.98, 64.73 16.82, 76.26 1.37 M57.63 28.9 C65.3 19.78, 73.01 12.39, 81.9 0.97 M57.63 28.9 C66.58 20.31, 71.76 10.74, 81.9 0.97 M63.27 28.5 C72.95 22.76, 75.1 15.88, 86.89 1.33 M63.27 28.5 C70.74 18.52, 81.38 11.49, 86.89 1.33 M68.26 28.86 C77.15 22.06, 81.15 14.72, 92.53 0.94 M68.26 28.86 C74.3 20.24, 82.2 12.25, 92.53 0.94 M73.9 28.47 C81.5 17.68, 87.29 14.77, 97.52 1.3 M73.9 28.47 C78.63 21.59, 87.93 13.93, 97.52 1.3 M78.89 28.83 C83.78 20.17, 88.28 17.56, 103.16 0.9 M78.89 28.83 C83.88 20.81, 90.23 14.1, 103.16 0.9 M84.53 28.43 C90.65 17.74, 98.7 12.6, 108.15 1.26 M84.53 28.43 C90.94 18.54, 98.66 11.52, 108.15 1.26 M89.52 28.79 C94.82 22.75, 104.6 11.41, 113.79 0.87 M89.52 28.79 C99.53 18.88, 106.81 9.81, 113.79 0.87 M95.16 28.4 C98.43 24.64, 106.18 20.04, 118.78 1.23 M95.16 28.4 C103.05 20.81, 106.01 15.59, 118.78 1.23 M100.15 28.76 C106.24 18.81, 114.42 14.15, 124.42 0.83 M100.15 28.76 C107.53 22.67, 110.84 16.75, 124.42 0.83 M105.14 29.12 C112.95 21.36, 124.58 3.58, 130.07 0.44 M105.14 29.12 C114.97 21.02, 122.56 9.6, 130.07 0.44 M110.78 28.72 C114.69 26.91, 118.48 14.82, 133.09 3.06 M110.78 28.72 C117.3 22.02, 125.98 13.08, 133.09 3.06 M115.77 29.08 C123.03 27.38, 123.35 20.04, 136.11 5.69 M115.77 29.08 C119.62 25.4, 125.29 17.17, 136.11 5.69 M121.41 28.69 C124.05 21.47, 133.33 14.5, 135.84 12.09 M121.41 28.69 C127.29 22.46, 129.3 19.45, 135.84 12.09 M127.05 28.3 C128.37 24.22, 133.14 23.22, 135.58 18.48 M127.05 28.3 C131.16 25.79, 132.82 21.84, 135.58 18.48" stroke="#7950f2" stroke-width="0.5" fill="none"></path><path d="M6.95 0 M6.95 0 C50.1 1.39, 85.32 1.71, 126.9 0 M6.95 0 C47.47 1.49, 87.38 1.41, 126.9 0 M126.9 0 C129.02 -1.36, 136.16 1.8, 133.85 6.95 M126.9 0 C134.57 -0.36, 138.01 -0.59, 133.85 6.95 M133.85 6.95 C132.1 12.52, 131.26 15.75, 133.85 20.86 M133.85 6.95 C133.37 11.94, 132.59 16.2, 133.85 20.86 M133.85 20.86 C131.99 24.22, 133.82 28.11, 126.9 27.81 M133.85 20.86 C130.2 20.97, 128.46 31.94, 126.9 27.81 M126.9 27.81 C82.06 26.59, 36.69 29.53, 6.95 27.81 M126.9 27.81 C96.43 27.03, 69.04 30.01, 6.95 27.81 M6.95 27.81 C2.71 29.96, -2.56 24.7, 0 20.86 M6.95 27.81 C0.48 28.47, 0.49 27.83, 0 20.86 M0 20.86 C1.01 18.37, 1.05 14.92, 0 6.95 M0 20.86 C0.01 16.95, 0.67 14.01, 0 6.95 M0 6.95 C2.97 0.54, 1.86 -0.23, 6.95 0 M0 6.95 C-1.66 0.76, 4.51 4.3, 6.95 0" stroke="#5f3dc4" stroke-width="1" fill="none"></path></g><g transform="translate(649.6089736175259 16) rotate(0 41.5 17.5)"><text x="41.5" y="28" font-family="Cascadia, Segoe UI Emoji" font-size="28px" fill="#000000" text-anchor="middle" style="white-space: pre;" direction="ltr">CLOUD</text></g><g stroke-linecap="round" transform="translate(83.76281532268143 550.336539573711) rotate(0 51.18162269587651 81.35416425695917)"><path d="M25.59 0 M25.59 0 C45.84 -1.03, 62.94 1.48, 76.77 0 M25.59 0 C45.63 -1.09, 64.24 -0.62, 76.77 0 M76.77 0 C95.23 -3.23, 104.87 10.48, 102.36 25.59 M76.77 0 C96.52 -3.07, 102.8 9.57, 102.36 25.59 M102.36 25.59 C104.98 51.24, 100 77.56, 102.36 137.12 M102.36 25.59 C100.36 56.33, 99.95 89.2, 102.36 137.12 M102.36 137.12 C101.05 153.95, 90.56 163.74, 76.77 162.71 M102.36 137.12 C99.17 153.38, 90.59 163.07, 76.77 162.71 M76.77 162.71 C54.87 164.42, 35.54 163.57, 25.59 162.71 M76.77 162.71 C67.33 161.36, 56.45 163.09, 25.59 162.71 M25.59 162.71 C7.83 163.28, 0.15 153.96, 0 137.12 M25.59 162.71 C10.68 166.44, 2.11 153.62, 0 137.12 M0 137.12 C-1.81 94.41, -1.56 49.32, 0 25.59 M0 137.12 C1.98 107.6, 0.78 81.71, 0 25.59 M0 25.59 C0.75 6.2, 10.21 1.02, 25.59 0 M0 25.59 C0.23 6.96, 9.55 1.17, 25.59 0" stroke="#0b7285" stroke-width="1" fill="none"></path></g><g transform="translate(96.44443801855783 557.3728641128864) rotate(0 38.5 35.5)"><text x="38.5" y="25.5" font-family="Virgil, Segoe UI Emoji" font-size="28px" fill="#0b7285" text-anchor="middle" style="white-space: pre;" direction="ltr">Bob's</text><text x="38.5" y="61" font-family="Virgil, Segoe UI Emoji" font-size="28px" fill="#0b7285" text-anchor="middle" style="white-space: pre;" direction="ltr">Phone</text></g><g stroke-linecap="round" transform="translate(297.5534116360838 437.8269208525778) rotate(0 80 68.5)"><path d="M62.56 1.16 C73.01 -2.07, 86 -0.44, 96.99 1.71 C107.97 3.87, 119.48 7.88, 128.46 14.08 C137.44 20.28, 145.65 29.86, 150.88 38.91 C156.11 47.95, 159.49 58.66, 159.84 68.34 C160.2 78.02, 157.83 88.02, 153 96.99 C148.17 105.97, 140.03 115.83, 130.84 122.17 C121.65 128.51, 109.31 132.96, 97.87 135.02 C86.44 137.09, 73.56 136.69, 62.21 134.55 C50.87 132.4, 38.93 128.12, 29.81 122.13 C20.7 116.14, 12.61 107.34, 7.53 98.6 C2.44 89.87, -0.74 79.78, -0.69 69.75 C-0.64 59.71, 2.78 47.47, 7.82 38.4 C12.86 29.33, 18.92 21.79, 29.57 15.33 C40.21 8.86, 62.82 2.03, 71.68 -0.38 C80.54 -2.79, 82.5 -0.33, 82.72 0.85 M50.56 3.42 C60.34 -0.85, 74.74 -1.75, 86.69 -0.64 C98.63 0.48, 112.28 4.87, 122.21 10.1 C132.15 15.33, 139.92 22.75, 146.29 30.76 C152.66 38.77, 158.87 48.41, 160.42 58.19 C161.97 67.96, 159.28 79.78, 155.58 89.43 C151.87 99.09, 145.94 108.97, 138.19 116.11 C130.45 123.24, 119.91 128.67, 109.12 132.25 C98.32 135.83, 85.06 138.48, 73.44 137.59 C61.81 136.69, 49.54 131.92, 39.38 126.87 C29.21 121.81, 18.98 115.45, 12.44 107.25 C5.9 99.04, 1.62 87.5, 0.14 77.64 C-1.34 67.77, -0.23 57.46, 3.55 48.06 C7.32 38.66, 14.59 28.31, 22.8 21.24 C31.01 14.17, 47.89 8.24, 52.81 5.63 C57.73 3.02, 52.16 4.56, 52.32 5.56" stroke="#0b7285" stroke-width="1" fill="none"></path></g><g transform="translate(302.5534116360838 452.3269208525778) rotate(0 75 54)"><text x="75" y="25" font-family="Virgil, Segoe UI Emoji" font-size="28px" fill="#0b7285" text-anchor="middle" style="white-space: pre;" direction="ltr">Bob's</text><text x="75" y="61" font-family="Virgil, Segoe UI Emoji" font-size="28px" fill="#0b7285" text-anchor="middle" style="white-space: pre;" direction="ltr">Data </text><text x="75" y="97" font-family="Virgil, Segoe UI Emoji" font-size="28px" fill="#0b7285" text-anchor="middle" style="white-space: pre;" direction="ltr">Agent</text></g><g stroke-linecap="round"><g transform="translate(204.16306039755347 552.5238716590738) rotate(0 42.78396644924635 -17.64360573547924)"><path d="M2.12 0.85 C16.69 -5.57, 71.72 -29.7, 85.74 -36.13 M-0.17 -1.16 C14.36 -5.87, 70.25 -26.8, 84.58 -32.53" stroke="#0b7285" stroke-width="1" fill="none"></path></g><g transform="translate(204.16306039755347 552.5238716590738) rotate(0 42.78396644924635 -17.64360573547924)"><path d="M63.16 -10 C66.97 -14.36, 70.07 -25.69, 83.11 -32.34 M60.22 -12.89 C67.79 -17.38, 73.11 -24.12, 82.99 -34.07" stroke="#0b7285" stroke-width="1" fill="none"></path></g><g transform="translate(204.16306039755347 552.5238716590738) rotate(0 42.78396644924635 -17.64360573547924)"><path d="M55.79 -29.15 C61.69 -29.04, 66.56 -35.77, 83.11 -32.34 M52.85 -32.04 C62.83 -31.3, 70.19 -32.74, 82.99 -34.07" stroke="#0b7285" stroke-width="1" fill="none"></path></g></g><g stroke-linecap="round"><g transform="translate(773.6786868357417 403.7154746823235) rotate(0 -154.65858572981006 38.05096660722381)"><path d="M0.36 -2.6 C-51.59 10.72, -258.27 65.54, -309.67 78.71 M-2.89 2.16 C-54.16 14.74, -253.28 61.57, -304.51 74.36" stroke="#0b7285" stroke-width="1" fill="none"></path></g><g transform="translate(773.6786868357417 403.7154746823235) rotate(0 -154.65858572981006 38.05096660722381)"><path d="M-283.24 54.5 C-287.19 62.99, -299.8 70.41, -308.37 71.12 M-279.38 58.35 C-288.15 62.71, -297.62 70.2, -306.04 75.28" stroke="#0b7285" stroke-width="1" fill="none"></path></g><g transform="translate(773.6786868357417 403.7154746823235) rotate(0 -154.65858572981006 38.05096660722381)"><path d="M-278.42 74.45 C-283.98 75.56, -298.38 75.57, -308.37 71.12 M-274.56 78.3 C-285.34 75.17, -296.63 75.14, -306.04 75.28" stroke="#0b7285" stroke-width="1" fill="none"></path></g></g><g stroke-linecap="round" transform="translate(10 293.3365395737112) rotate(0 77.13621702190736 44.64529815670119)"><path d="M-3.16 -2.48 C61.2 2.35, 118.53 -2.92, 157.78 0.39 M1.96 0.56 C31.92 -2.21, 62.63 -1.29, 153.65 1.73 M151.18 2 C152.89 21.72, 152.56 49.88, 156.04 86.66 M152.6 -1.95 C155.54 25.24, 155.37 47.08, 153.42 88.64 M152.99 92.59 C100.16 91.87, 41.86 88.68, 3.05 87.7 M152.91 89.49 C103.51 87.69, 55.58 88.24, 0.96 88.55 M0.31 89.2 C1.19 57.25, -2.06 31.19, 2.39 -3.04 M0.61 88.3 C1.27 67.77, 1.64 49.68, 0.05 -0.01" stroke="#5f3dc4" stroke-width="1" fill="none"></path></g><g transform="translate(29.10897361752592 302.5) rotate(0 56 35.5)"><text x="56" y="25.5" font-family="Virgil, Segoe UI Emoji" font-size="28px" fill="#5f3dc4" text-anchor="middle" style="white-space: pre;" direction="ltr">Alice's</text><text x="56" y="61" font-family="Virgil, Segoe UI Emoji" font-size="28px" fill="#5f3dc4" text-anchor="middle" style="white-space: pre;" direction="ltr">Desktop</text></g><g stroke-linecap="round"><g transform="translate(176.2179369595121 324.0339925858075) rotate(0 67.42943694694691 -22.745033418811886)"><path d="M1 -2.12 C22.82 -10.37, 109.75 -40.83, 131.42 -48.39 M-1.9 2.9 C20.77 -4.94, 113.67 -35.4, 136.76 -44.62" stroke="#5f3dc4" stroke-width="1" fill="none"></path></g><g transform="translate(176.2179369595121 324.0339925858075) rotate(0 67.42943694694691 -22.745033418811886)"><path d="M110.66 -28.25 C121.23 -35.03, 129.8 -34.29, 140.32 -44.29 M112.52 -26.97 C121.01 -28.96, 124.52 -34.24, 135.58 -43.14" stroke="#5f3dc4" stroke-width="1" fill="none"></path></g><g transform="translate(176.2179369595121 324.0339925858075) rotate(0 67.42943694694691 -22.745033418811886)"><path d="M103.73 -47.57 C116.66 -48.26, 127.42 -41.39, 140.32 -44.29 M105.59 -46.29 C115.52 -43.36, 120.76 -43.8, 135.58 -43.14" stroke="#5f3dc4" stroke-width="1" fill="none"></path></g></g><g stroke-linecap="round"><g transform="translate(318.11751221109245 303.89371327442905) rotate(0 -71.55264355775313 19.884292218097244)"><path d="M0.13 0.88 C-24.21 7.33, -120.14 31.94, -143.24 38.38 M-3.24 -1.11 C-27 5.66, -115.58 33.67, -138.21 40.88" stroke="#5f3dc4" stroke-width="1" fill="none"></path></g><g transform="translate(318.11751221109245 303.89371327442905) rotate(0 -71.55264355775313 19.884292218097244)"><path d="M-113.18 18.96 C-126.95 33.1, -134.77 39.52, -139.07 43.23 M-114.97 20.8 C-117.5 24.56, -123.16 31.24, -137.3 39.31" stroke="#5f3dc4" stroke-width="1" fill="none"></path></g><g transform="translate(318.11751221109245 303.89371327442905) rotate(0 -71.55264355775313 19.884292218097244)"><path d="M-106.99 38.52 C-123.19 44.86, -133.48 43.46, -139.07 43.23 M-108.77 40.36 C-112.48 40.15, -119.4 42.82, -137.3 39.31" stroke="#5f3dc4" stroke-width="1" fill="none"></path></g></g><g stroke-linecap="round"><g transform="translate(467.9306841033343 512.0020982322685) rotate(0 153.86755774537335 17.29981425627352)"><path d="M-0.07 -0.9 C51.04 5.1, 254.09 32.63, 305.68 38.46 M-3.56 -3.86 C48.58 2.61, 259.21 28.04, 311.3 34.68" stroke="#0b7285" stroke-width="1" fill="none"></path></g><g transform="translate(467.9306841033343 512.0020982322685) rotate(0 153.86755774537335 17.29981425627352)"><path d="M280.77 39.33 C292.94 42.99, 294.39 35.67, 307.97 32.65 M282.56 43.04 C289.11 38.71, 298.81 37.35, 309.9 33.83" stroke="#0b7285" stroke-width="1" fill="none"></path></g><g transform="translate(467.9306841033343 512.0020982322685) rotate(0 153.86755774537335 17.29981425627352)"><path d="M283.29 18.97 C295.15 28.01, 295.93 26.08, 307.97 32.65 M285.08 22.68 C290.81 24.6, 299.74 29.47, 309.9 33.83" stroke="#0b7285" stroke-width="1" fill="none"></path></g></g><g stroke-linecap="round" transform="translate(792.6009156744597 485.6871106949711) rotate(0 83.11900204431822 84.07437777107123)"><path d="M41.56 0 M41.56 0 C65.03 3.21, 81.71 -1.17, 124.68 0 M41.56 0 C68.22 -0.16, 98.27 -1.73, 124.68 0 M124.68 0 C149.67 2.28, 166.11 15.97, 166.24 41.56 M124.68 0 C154.9 -2.94, 169.77 12.59, 166.24 41.56 M166.24 41.56 C162.45 60.13, 164.25 85.74, 166.24 126.59 M166.24 41.56 C165.79 67.14, 167.02 94.49, 166.24 126.59 M166.24 126.59 C164.02 150.49, 151.12 171.56, 124.68 168.15 M166.24 126.59 C163.59 154.66, 152.97 166.51, 124.68 168.15 M124.68 168.15 C92.37 166.46, 69.53 167.1, 41.56 168.15 M124.68 168.15 C100.91 166.24, 76.11 167.3, 41.56 168.15 M41.56 168.15 C14.63 166.35, -1.81 150.48, 0 126.59 M41.56 168.15 C10.28 164.8, 1.98 151.49, 0 126.59 M0 126.59 C0.02 104.65, 1.15 84.06, 0 41.56 M0 126.59 C-0.53 97.38, 1.15 71, 0 41.56 M0 41.56 C-3.71 12.6, 17.12 3.91, 41.56 0 M0 41.56 C4.37 9.5, 15.86 -3.09, 41.56 0" stroke="#0b7285" stroke-width="1" fill="none"></path></g><g transform="translate(799.3286255298792 498.6363250860318) rotate(0 72.5 12.5)"><text x="72.5" y="20" font-family="Cascadia, Segoe UI Emoji" font-size="20.503091663867348px" fill="#0b7285" text-anchor="middle" style="white-space: pre;" direction="ltr">jlinx:ufMRp…</text></g><g stroke-linecap="round" transform="translate(806.8902634678755 578.3222805097321) rotate(0 66.92497019142957 13.90648731250485)"><path d="M1.85 1.61 C1.85 1.61, 1.85 1.61, 1.85 1.61 M1.85 1.61 C1.85 1.61, 1.85 1.61, 1.85 1.61 M1.59 8.01 C2.18 7.23, 4.85 2.63, 8.15 0.46 M1.59 8.01 C2.18 6.45, 4.41 5.06, 8.15 0.46 M1.33 14.4 C3.96 12.31, 9.87 4.62, 13.14 0.82 M1.33 14.4 C2.8 11.56, 6.48 8, 13.14 0.82 M1.72 20.05 C4.56 10.73, 16.56 4.77, 18.12 1.18 M1.72 20.05 C5.81 14.71, 9.13 10.43, 18.12 1.18 M2.12 25.69 C5.44 14.82, 13.25 11.7, 23.77 0.79 M2.12 25.69 C8.55 19.46, 12.86 14.08, 23.77 0.79 M5.14 28.31 C11.86 15.65, 19.95 9.36, 28.75 1.15 M5.14 28.31 C15.57 20.87, 24.14 7.47, 28.75 1.15 M10.12 28.67 C18.69 17.58, 26.68 7.22, 34.4 0.75 M10.12 28.67 C17.27 17.13, 25.88 9.04, 34.4 0.75 M15.77 28.28 C22.54 19.88, 27.23 15.36, 39.38 1.11 M15.77 28.28 C23.12 20.1, 29.43 8.7, 39.38 1.11 M20.75 28.64 C27.59 16.65, 34.91 10.13, 45.03 0.72 M20.75 28.64 C28.07 17.34, 38.63 8.65, 45.03 0.72 M26.4 28.25 C38.25 17.04, 38.89 8.55, 50.01 1.08 M26.4 28.25 C35.84 18.02, 41.25 10.19, 50.01 1.08 M31.38 28.61 C37.37 21.98, 43.54 13.92, 55.66 0.68 M31.38 28.61 C38.26 20.9, 39.91 17.69, 55.66 0.68 M37.03 28.21 C45.2 20.42, 51.94 16.16, 60.64 1.04 M37.03 28.21 C42.48 19.61, 50.39 11.11, 60.64 1.04 M42.01 28.57 C54.27 19.84, 63.24 7.82, 66.29 0.65 M42.01 28.57 C49.52 16.71, 59.18 8.15, 66.29 0.65 M47.66 28.18 C58.69 22.54, 61.97 9.8, 71.27 1.01 M47.66 28.18 C53.55 18.5, 62.19 9.88, 71.27 1.01 M52.64 28.54 C63.04 15.03, 73.18 11, 76.26 1.37 M52.64 28.54 C57.72 21.2, 64.4 14.1, 76.26 1.37 M57.63 28.9 C63.29 22.22, 64.53 18.07, 81.9 0.97 M57.63 28.9 C66.41 21.13, 72.3 10.91, 81.9 0.97 M63.27 28.5 C67.91 23.7, 77.71 15.51, 86.89 1.33 M63.27 28.5 C68.47 19.8, 77.31 11.67, 86.89 1.33 M68.26 28.86 C72.16 23.16, 81.59 10.52, 92.53 0.94 M68.26 28.86 C71.72 22.54, 76.97 15.98, 92.53 0.94 M73.9 28.47 C78.09 24.56, 90.07 11.39, 97.52 1.3 M73.9 28.47 C81.54 20.81, 87.51 11.64, 97.52 1.3 M78.89 28.83 C88.98 20.9, 90.87 10.16, 103.16 0.9 M78.89 28.83 C87.38 21.14, 94.06 10.36, 103.16 0.9 M84.53 28.43 C89.25 16.5, 97.48 6.07, 108.15 1.26 M84.53 28.43 C92.57 20.25, 96.71 12.23, 108.15 1.26 M89.52 28.79 C98.25 24.75, 97.27 13.22, 113.79 0.87 M89.52 28.79 C100.51 18.56, 107.85 7.56, 113.79 0.87 M95.16 28.4 C101.41 21.76, 102.81 19.71, 118.78 1.23 M95.16 28.4 C102.24 22.59, 108.42 14.69, 118.78 1.23 M100.15 28.76 C108.44 21.97, 113.68 9.91, 124.42 0.83 M100.15 28.76 C106.65 18.88, 115.91 9.9, 124.42 0.83 M105.14 29.12 C112.52 20.6, 121.44 5.71, 130.07 0.44 M105.14 29.12 C109.88 24.27, 116.36 17.29, 130.07 0.44 M110.78 28.72 C114.14 24.13, 124.02 16.05, 133.09 3.06 M110.78 28.72 C116 23.97, 118.89 16.47, 133.09 3.06 M115.77 29.08 C125.06 24.79, 127.78 13.73, 136.11 5.69 M115.77 29.08 C122.4 20.54, 128.26 14.34, 136.11 5.69 M121.41 28.69 C128.55 20.53, 133.38 19.86, 135.84 12.09 M121.41 28.69 C123.46 23.47, 125.7 22.56, 135.84 12.09 M127.05 28.3 C132.21 25.43, 132.12 19.59, 135.58 18.48 M127.05 28.3 C130.85 25.82, 132.47 20.97, 135.58 18.48" stroke="#7950f2" stroke-width="0.5" fill="none"></path><path d="M6.95 0 M6.95 0 C41.15 2.22, 65.23 1.53, 126.9 0 M6.95 0 C36.63 -1.13, 61.7 0.49, 126.9 0 M126.9 0 C129.08 -0.13, 132.3 4.16, 133.85 6.95 M126.9 0 C128.31 3.65, 129.98 5.2, 133.85 6.95 M133.85 6.95 C131.76 8.93, 131.27 13.76, 133.85 20.86 M133.85 6.95 C132.67 13.07, 132.64 17.89, 133.85 20.86 M133.85 20.86 C134.17 27.83, 130.49 30.11, 126.9 27.81 M133.85 20.86 C131.23 25.31, 129.77 30.81, 126.9 27.81 M126.9 27.81 C88.3 28.73, 58.64 27.8, 6.95 27.81 M126.9 27.81 C103.43 25.82, 78.25 26.69, 6.95 27.81 M6.95 27.81 C5.02 29.57, 1.17 28.61, 0 20.86 M6.95 27.81 C1.24 31.58, -3.22 28.81, 0 20.86 M0 20.86 C1.6 13.81, 1.52 11.64, 0 6.95 M0 20.86 C-1.39 17.3, -0.16 10.42, 0 6.95 M0 6.95 C-1.26 2.92, 0.46 -0.23, 6.95 0 M0 6.95 C1.42 4.56, 2.17 0.92, 6.95 0" stroke="#0b7285" stroke-width="1" fill="none"></path></g><g stroke-linecap="round" transform="translate(807.759418924906 616.5651206191187) rotate(0 66.92497019142957 13.90648731250485)"><path d="M1.85 1.61 C1.85 1.61, 1.85 1.61, 1.85 1.61 M1.85 1.61 C1.85 1.61, 1.85 1.61, 1.85 1.61 M1.59 8.01 C5.36 4.88, 5.32 0.84, 8.15 0.46 M1.59 8.01 C3.04 6.47, 4.64 4.64, 8.15 0.46 M1.33 14.4 C7.04 11.79, 7.15 2.07, 13.14 0.82 M1.33 14.4 C4.41 11.12, 6.8 8.15, 13.14 0.82 M1.72 20.05 C2.62 19.19, 6.89 11.26, 18.12 1.18 M1.72 20.05 C7.83 11.51, 14.96 6.51, 18.12 1.18 M2.12 25.69 C4.75 16.84, 15.1 10.97, 23.77 0.79 M2.12 25.69 C7.58 19.12, 13.84 13.46, 23.77 0.79 M5.14 28.31 C10.04 17.64, 21.27 12.46, 28.75 1.15 M5.14 28.31 C12.16 24.2, 13.21 17.54, 28.75 1.15 M10.12 28.67 C14.31 21.69, 19.2 18.6, 34.4 0.75 M10.12 28.67 C18.33 16.34, 30.06 7.23, 34.4 0.75 M15.77 28.28 C20.18 19.82, 28.52 18.31, 39.38 1.11 M15.77 28.28 C23.94 17.99, 28.94 12.07, 39.38 1.11 M20.75 28.64 C27.61 16.11, 39.91 8.41, 45.03 0.72 M20.75 28.64 C23.89 24.31, 29.71 17.3, 45.03 0.72 M26.4 28.25 C33.09 14.39, 42.56 9.56, 50.01 1.08 M26.4 28.25 C31.71 19.33, 39.48 12.86, 50.01 1.08 M31.38 28.61 C38.41 20.01, 43.97 12.98, 55.66 0.68 M31.38 28.61 C38.18 16.73, 49.5 8.31, 55.66 0.68 M37.03 28.21 C44.78 20.51, 56.01 10.43, 60.64 1.04 M37.03 28.21 C42.57 20.91, 48.21 15.67, 60.64 1.04 M42.01 28.57 C50.65 23.08, 55.91 15.51, 66.29 0.65 M42.01 28.57 C48.75 18.94, 58.83 9.33, 66.29 0.65 M47.66 28.18 C59.94 16.77, 65.1 6.84, 71.27 1.01 M47.66 28.18 C52.72 21.06, 58.89 15.34, 71.27 1.01 M52.64 28.54 C55.58 23.48, 68.01 14.2, 76.26 1.37 M52.64 28.54 C57.85 21.38, 63.34 15.48, 76.26 1.37 M57.63 28.9 C63.92 17.41, 72.72 12.47, 81.9 0.97 M57.63 28.9 C65.15 20.53, 70.24 12.93, 81.9 0.97 M63.27 28.5 C72.86 21.68, 79.11 13.86, 86.89 1.33 M63.27 28.5 C69.74 20.9, 76.77 12.71, 86.89 1.33 M68.26 28.86 C80.55 16.87, 85.91 5.49, 92.53 0.94 M68.26 28.86 C74.07 20.4, 79.66 14.46, 92.53 0.94 M73.9 28.47 C83.75 24.31, 84.36 15.51, 97.52 1.3 M73.9 28.47 C80.04 20.86, 84.62 16.01, 97.52 1.3 M78.89 28.83 C85.97 18.66, 90.2 12.96, 103.16 0.9 M78.89 28.83 C90.24 16.97, 98.48 6.95, 103.16 0.9 M84.53 28.43 C89.3 17.27, 95.63 9.84, 108.15 1.26 M84.53 28.43 C91.48 18.62, 98.62 8.39, 108.15 1.26 M89.52 28.79 C97.29 18.54, 97.62 19.34, 113.79 0.87 M89.52 28.79 C97.21 19.6, 104.09 11.45, 113.79 0.87 M95.16 28.4 C104.04 14.95, 117.53 5.44, 118.78 1.23 M95.16 28.4 C102.08 22.19, 106.9 17.25, 118.78 1.23 M100.15 28.76 C109.87 17.38, 114.38 14.17, 124.42 0.83 M100.15 28.76 C105.94 21.34, 112.7 14.39, 124.42 0.83 M105.14 29.12 C116.18 17.8, 120.86 4.38, 130.07 0.44 M105.14 29.12 C114.3 20.37, 121.28 12.6, 130.07 0.44 M110.78 28.72 C120.4 22.39, 126.52 7.75, 133.09 3.06 M110.78 28.72 C120.26 17.38, 126.96 8.31, 133.09 3.06 M115.77 29.08 C122.19 24.48, 121.86 18.19, 136.11 5.69 M115.77 29.08 C119.94 22.57, 126.43 16.06, 136.11 5.69 M121.41 28.69 C123.48 26.13, 133.03 12.76, 135.84 12.09 M121.41 28.69 C125.12 20.88, 133.15 18.05, 135.84 12.09 M127.05 28.3 C129.71 24.66, 129.37 25.64, 135.58 18.48 M127.05 28.3 C131.56 23.6, 133.69 19.93, 135.58 18.48" stroke="#7950f2" stroke-width="0.5" fill="none"></path><path d="M6.95 0 M6.95 0 C42.83 -4.88, 74.75 -4.83, 126.9 0 M6.95 0 C31.67 -3.43, 58.81 -2.98, 126.9 0 M126.9 0 C131.41 -1.55, 135.69 -0.49, 133.85 6.95 M126.9 0 C135.18 -3.87, 136.73 -1.58, 133.85 6.95 M133.85 6.95 C132.97 8.97, 134.81 17.8, 133.85 20.86 M133.85 6.95 C134.81 9.28, 134.74 13.84, 133.85 20.86 M133.85 20.86 C136.19 24.45, 133.83 25.54, 126.9 27.81 M133.85 20.86 C133.66 23.73, 134.53 27.84, 126.9 27.81 M126.9 27.81 C101.1 30.13, 72.41 22.38, 6.95 27.81 M126.9 27.81 C95.87 28.68, 65.83 30.13, 6.95 27.81 M6.95 27.81 C4.07 28.99, 3.12 24.55, 0 20.86 M6.95 27.81 C6.08 24.59, 3.31 27.15, 0 20.86 M0 20.86 C-2.28 18.88, 0.22 15.52, 0 6.95 M0 20.86 C1.16 15.62, -0.88 9.82, 0 6.95 M0 6.95 C0.6 0.46, 2.09 1.24, 6.95 0 M0 6.95 C2.24 2.17, 3.23 -1.29, 6.95 0" stroke="#0b7285" stroke-width="1" fill="none"></path></g><g stroke-linecap="round" transform="translate(806.021108010845 533.1261967440914) rotate(0 66.92497019142957 13.90648731250485)"><path d="M1.85 1.61 C1.85 1.61, 1.85 1.61, 1.85 1.61 M1.85 1.61 C1.85 1.61, 1.85 1.61, 1.85 1.61 M1.59 8.01 C3.46 4.41, 4.41 1, 8.15 0.46 M1.59 8.01 C3.37 6.21, 4.83 4.6, 8.15 0.46 M1.33 14.4 C6.6 8.38, 4.75 5.33, 13.14 0.82 M1.33 14.4 C6.26 8.51, 11.48 2.5, 13.14 0.82 M1.72 20.05 C10.84 11.73, 12.84 9.82, 18.12 1.18 M1.72 20.05 C3.53 16.98, 8.87 11.48, 18.12 1.18 M2.12 25.69 C5.19 21.4, 11.18 11.86, 23.77 0.79 M2.12 25.69 C7.08 20.04, 12.99 14.94, 23.77 0.79 M5.14 28.31 C9.06 22.4, 18.45 12.29, 28.75 1.15 M5.14 28.31 C12.94 18.66, 18.26 11.91, 28.75 1.15 M10.12 28.67 C15.68 19.43, 25.12 18.52, 34.4 0.75 M10.12 28.67 C18.22 19.49, 29.49 5.01, 34.4 0.75 M15.77 28.28 C22.01 21.29, 35.19 8.01, 39.38 1.11 M15.77 28.28 C22.49 16.92, 33.58 10.25, 39.38 1.11 M20.75 28.64 C25 22.3, 34.05 11.92, 45.03 0.72 M20.75 28.64 C32.16 16.79, 40.84 8.59, 45.03 0.72 M26.4 28.25 C31.34 17.55, 45.38 6.57, 50.01 1.08 M26.4 28.25 C34.1 18.4, 44.31 5.68, 50.01 1.08 M31.38 28.61 C34.89 23.19, 39.93 17.02, 55.66 0.68 M31.38 28.61 C37.47 20.76, 47.1 10.48, 55.66 0.68 M37.03 28.21 C42.9 26.07, 46.4 15.38, 60.64 1.04 M37.03 28.21 C43.76 19.14, 52.51 12.42, 60.64 1.04 M42.01 28.57 C48.98 22.94, 53.92 19.16, 66.29 0.65 M42.01 28.57 C51 18.85, 59.99 10.8, 66.29 0.65 M47.66 28.18 C52.7 19.84, 59.29 13.07, 71.27 1.01 M47.66 28.18 C56.55 17.22, 66.8 7.9, 71.27 1.01 M52.64 28.54 C61.79 24.06, 66.73 8.04, 76.26 1.37 M52.64 28.54 C60.01 19.41, 68.58 8.46, 76.26 1.37 M57.63 28.9 C61.39 21.62, 71.71 12.13, 81.9 0.97 M57.63 28.9 C65.1 18.59, 73.38 9.47, 81.9 0.97 M63.27 28.5 C72.46 21.65, 80.59 8.42, 86.89 1.33 M63.27 28.5 C70.83 19.82, 77.74 14.49, 86.89 1.33 M68.26 28.86 C73.59 20.27, 79.47 10.36, 92.53 0.94 M68.26 28.86 C75.03 18.77, 84.24 9.92, 92.53 0.94 M73.9 28.47 C84.53 17.6, 90.45 6.87, 97.52 1.3 M73.9 28.47 C77.75 21.98, 84.35 15.83, 97.52 1.3 M78.89 28.83 C83.32 18.15, 92.29 18.45, 103.16 0.9 M78.89 28.83 C84.33 21.32, 91.64 14.81, 103.16 0.9 M84.53 28.43 C91.46 14.34, 102.08 8.87, 108.15 1.26 M84.53 28.43 C91.3 18.36, 97.72 9.73, 108.15 1.26 M89.52 28.79 C94.4 15.6, 110.4 7.66, 113.79 0.87 M89.52 28.79 C93.86 22.69, 99.3 17.27, 113.79 0.87 M95.16 28.4 C100.21 23.25, 109.23 7.76, 118.78 1.23 M95.16 28.4 C101.65 21.49, 109.4 12.34, 118.78 1.23 M100.15 28.76 C105.63 19.04, 119.27 6.54, 124.42 0.83 M100.15 28.76 C110.23 17.34, 120.72 8.46, 124.42 0.83 M105.14 29.12 C113.09 15.96, 118.93 9.77, 130.07 0.44 M105.14 29.12 C109.9 24.22, 115.59 16.98, 130.07 0.44 M110.78 28.72 C120.02 21.01, 120.92 16.81, 133.09 3.06 M110.78 28.72 C114.76 21.11, 121.05 14.22, 133.09 3.06 M115.77 29.08 C123.65 17.63, 129.88 11.31, 136.11 5.69 M115.77 29.08 C121.01 22.63, 126.28 18.49, 136.11 5.69 M121.41 28.69 C129.23 24.83, 126.28 21.98, 135.84 12.09 M121.41 28.69 C124.24 24.93, 132.02 16.87, 135.84 12.09 M127.05 28.3 C127.36 24.54, 132.29 26.59, 135.58 18.48 M127.05 28.3 C129.01 24.91, 132 21.25, 135.58 18.48" stroke="#7950f2" stroke-width="0.5" fill="none"></path><path d="M6.95 0 M6.95 0 C45.52 0.62, 86.76 -5.44, 126.9 0 M6.95 0 C42.84 1.78, 80.84 0.91, 126.9 0 M126.9 0 C129.98 1.84, 131.04 5.49, 133.85 6.95 M126.9 0 C127.66 2.88, 129.95 4.06, 133.85 6.95 M133.85 6.95 C130.95 12.63, 135.08 15.09, 133.85 20.86 M133.85 6.95 C132.59 10.99, 133.75 13.55, 133.85 20.86 M133.85 20.86 C132.8 27.8, 129.25 27.65, 126.9 27.81 M133.85 20.86 C132.08 28.49, 131.56 24.66, 126.9 27.81 M126.9 27.81 C100.03 30.04, 61.55 27.3, 6.95 27.81 M126.9 27.81 C100.25 28.44, 75.15 28.56, 6.95 27.81 M6.95 27.81 C3.49 30.93, -0.94 28.77, 0 20.86 M6.95 27.81 C-0.9 31.12, 1.65 22.72, 0 20.86 M0 20.86 C1.21 17.29, 1.18 15.74, 0 6.95 M0 20.86 C0.3 15.36, -0.2 11.62, 0 6.95 M0 6.95 C-1.86 2.09, 3.56 1.95, 6.95 0 M0 6.95 C-0.15 3.23, 1.03 1.11, 6.95 0" stroke="#0b7285" stroke-width="1" fill="none"></path></g></svg>